<?xml version="1.0" encoding="utf-8"?><svg xml:space="preserve" viewBox="0 0 100 100" y="0" x="0" xmlns="http://www.w3.org/2000/svg" id="圖層_1" version="1.1" width="198px" height="198px" xmlns:xlink="http://www.w3.org/1999/xlink" style="width:100%;height:100%;background-size:initial;background-repeat-y:initial;background-repeat-x:initial;background-position-y:initial;background-position-x:initial;background-origin:initial;background-image:initial;background-color:rgb(255, 255, 255);background-clip:initial;background-attachment:initial;animation-play-state:paused" ><g class="ldl-scale" style="transform-origin:50% 50%;transform:rotate(0deg) scale(0.8, 0.8);animation-play-state:paused" ><path fill="#a0c8d7" d="M64.8 16.7c-.4-.9-1.5-1.2-2.4-.8l-10.7 5.4v-4.8l9-4.6c.9-.4 1.2-1.5.8-2.4-.4-.9-1.5-1.2-2.4-.8l-7.4 3.7V5.8C51.8 4.8 51 4 50 4s-1.8.8-1.8 1.8v6.7l-7.4-3.7c-.9-.4-2-.1-2.4.8-.4.9-.1 2 .8 2.4l9 4.6v4.8L37.5 16c-.9-.4-2-.1-2.4.8-.4.9-.1 2 .8 2.4l12.3 6.2v3.2l-7.4-3.7c-.9-.4-2-.1-2.4.8-.4.9-.1 2 .8 2.4l9 4.6V50c0 1 .8 1.8 1.8 1.8s1.8-.8 1.8-1.8V32.5l9-4.6c.9-.4 1.2-1.5.8-2.4-.4-.9-1.5-1.2-2.4-.8l-7.4 3.7v-3.2L64.1 19c.8-.3 1.2-1.4.7-2.3z" style="fill:rgb(160, 200, 215);animation-play-state:paused" ></path>
<path fill="#77a4bd" d="M50.9 48.5l-15.2-8.8.6-10.1c.1-1-.7-1.8-1.7-1.9-1-.1-1.8.7-1.9 1.7l-.5 8.3-2.7-1.6.8-13.7c.1-1-.7-1.8-1.7-1.9-1-.1-1.8.7-1.9 1.7L26 34.1l-4.2-2.4.6-10.1c.1-1-.7-1.8-1.7-1.9-1-.1-1.8.7-1.9 1.7l-.5 8.3-5.8-3.4c-.9-.5-2-.2-2.4.7-.5.9-.2 2 .7 2.4l5.8 3.4-6.9 4.5c-.8.5-1.1 1.7-.5 2.5.3.5.9.8 1.5.8.3 0 .7-.1 1-.3l8.5-5.5 4.2 2.4-10 6.5c-.8.5-1.1 1.7-.5 2.5.3.5.9.8 1.5.8.3 0 .7-.1 1-.3l11.5-7.5 2.7 1.6-6.9 4.5c-.8.5-1.1 1.7-.5 2.5.3.5.9.8 1.5.8.3 0 .7-.1 1-.3l8.5-5.5 15.2 8.8c.3.2.6.2.9.2.6 0 1.2-.3 1.6-.9.1-.9-.1-2-1-2.4z" style="fill:rgb(119, 164, 189);animation-play-state:paused" ></path>
<path fill="#a0c8d7" d="M51.5 49.1c-.5-.9-1.6-1.1-2.4-.7l-15.2 8.8-8.5-5.5c-.8-.5-1.9-.3-2.5.5-.5.8-.3 1.9.5 2.5l6.9 4.5-2.7 1.6-11.5-7.5c-.8-.5-1.9-.3-2.5.5-.5.8-.3 1.9.5 2.5l10 6.5-4.2 2.4-8.5-5.5c-.8-.5-1.9-.3-2.5.5-.5.8-.3 1.9.5 2.5l6.9 4.5-5.8 3.4c-.9.5-1.1 1.6-.7 2.4.3.6.9.9 1.6.9.3 0 .6-.1.9-.2l5.8-3.4.5 8.3c.1 1 .8 1.7 1.8 1.7h.1c1-.1 1.7-.9 1.7-1.9l-.6-10.1 4.2-2.4.7 11.9c.1 1 .8 1.7 1.8 1.7h.1c1-.1 1.7-.9 1.7-1.9l-.8-13.7 2.7-1.6.5 8.3c.1 1 .8 1.7 1.8 1.7h.1c1-.1 1.7-.9 1.7-1.9l-.6-10.1 15.2-8.8c1.1-.4 1.3-1.5.8-2.4z" style="fill:rgb(160, 200, 215);animation-play-state:paused" ></path>
<path fill="#77a4bd" d="M64.1 80.9l-12.3-6.2v-3.2l7.4 3.7c.3.1.5.2.8.2.7 0 1.3-.4 1.6-1 .4-.9.1-2-.8-2.4l-9-4.6V50c0-1-.8-1.8-1.8-1.8s-1.8.8-1.8 1.8v17.5l-9 4.6c-.9.4-1.2 1.5-.8 2.4.3.6.9 1 1.6 1 .3 0 .5-.1.8-.2l7.4-3.7v3.2L35.9 81c-.9.4-1.2 1.5-.8 2.4.3.6.9 1 1.6 1 .3 0 .5-.1.8-.2l10.7-5.4v4.8l-9 4.6c-.9.4-1.2 1.5-.8 2.4.3.6.9 1 1.6 1 .3 0 .5-.1.8-.2l7.4-3.7v6.7c0 1 .8 1.8 1.8 1.8s1.8-.8 1.8-1.8v-6.7l7.4 3.7c.3.1.5.2.8.2.7 0 1.3-.4 1.6-1 .4-.9.1-2-.8-2.4l-9-4.6v-4.8l10.7 5.4c.3.1.5.2.8.2.7 0 1.3-.4 1.6-1 .4-1 0-2.1-.8-2.5z" style="fill:rgb(119, 164, 189);animation-play-state:paused" ></path>
<path fill="#a0c8d7" d="M90.9 60.2c-.5-.8-1.7-1.1-2.5-.5l-8.5 5.5-4.2-2.4 10-6.5c.8-.5 1.1-1.7.5-2.5-.5-.8-1.7-1.1-2.5-.5l-11.5 7.5-2.7-1.6 6.9-4.5c.8-.5 1.1-1.7.5-2.5-.5-.8-1.7-1.1-2.5-.5l-8.5 5.5-15.2-8.8c-.9-.5-1.9-.2-2.4.7-.5.9-.2 2 .7 2.4l15.2 8.8-.6 10.1c-.1 1 .7 1.8 1.7 1.9h.1c.9 0 1.7-.7 1.8-1.7l.5-8.3 2.7 1.6-.8 13.7c-.1 1 .7 1.8 1.7 1.9h.1c.9 0 1.7-.7 1.8-1.7l.8-11.9 4.2 2.4-.6 10.1c-.1 1 .7 1.8 1.7 1.9h.1c.9 0 1.7-.7 1.8-1.7l.5-8.3 5.8 3.4c.3.2.6.2.9.2.6 0 1.2-.3 1.6-.9.5-.9.2-2-.7-2.4l-5.8-3.4 6.9-4.5c.8-.6 1-1.7.5-2.5z" style="fill:rgb(160, 200, 215);animation-play-state:paused" ></path>
<path fill="#77a4bd" d="M90.3 37.3l-6.9-4.5 5.8-3.4c.9-.5 1.1-1.6.7-2.4-.5-.9-1.6-1.1-2.4-.7l-5.8 3.4-.5-8.3c-.1-1-.9-1.7-1.9-1.7-1 .1-1.7.9-1.7 1.9l.6 10.1-4.2 2.4-.7-11.9c-.1-1-.9-1.7-1.9-1.7-1 .1-1.7.9-1.7 1.9l.8 13.7-2.7 1.6-.5-8.3c-.1-1-.9-1.7-1.9-1.7-1 .1-1.7.9-1.7 1.9l.6 10.1-15.2 8.8c-.9.5-1.1 1.6-.7 2.4.3.6.9.9 1.6.9.3 0 .6-.1.9-.2l15.2-8.8 8.5 5.5c.3.2.6.3 1 .3.6 0 1.2-.3 1.5-.8.5-.8.3-1.9-.5-2.5l-6.9-4.5 2.7-1.6 11.5 7.5c.3.2.6.3 1 .3.6 0 1.2-.3 1.5-.8.5-.8.3-1.9-.5-2.5l-10-6.5 4.2-2.4 8.5 5.5c.3.2.6.3 1 .3.6 0 1.2-.3 1.5-.8.3-.8.1-1.9-.8-2.5z" style="fill:rgb(119, 164, 189);animation-play-state:paused" ></path>
<metadata xmlns:d="https://loading.io/stock/" style="animation-play-state:paused" ><d:name style="animation-play-state:paused" >snow flake</d:name>
<d:tags style="animation-play-state:paused" >ice,crystal,polygon,christmas,cold,frozen,snow flake,weather</d:tags>
<d:license style="animation-play-state:paused" >pro</d:license>
<d:slug style="animation-play-state:paused" >ctbezh</d:slug></metadata></g><!-- generated by https://loading.io/ --></svg>