<svg width="102" height="40" viewBox="0 0 102 40" fill="none" xmlns="http://www.w3.org/2000/svg">
<path d="M12.05 21.0722C7.61942 21.0722 4.02776 17.4805 4.02776 13.05C4.02776 8.61946 7.61942 5.0278 12.05 5.0278C16.4805 5.0278 20.0721 8.61946 20.0721 13.05C20.0721 17.4805 16.4805 21.0722 12.05 21.0722Z" fill="#FCEE21"/>
<path d="M12.05 1L13.5942 3.67406H10.5057L12.05 1Z" fill="#FCEE21"/>
<path d="M20.5702 4.52977L19.7713 7.51135L17.5886 5.32865L20.5702 4.52977Z" fill="#FCEE21"/>
<path d="M24.1 13.05L21.4259 14.5943V11.5057L24.1 13.05Z" fill="#FCEE21"/>
<path d="M20.5702 21.5702L17.5886 20.7714L19.7713 18.5887L20.5702 21.5702Z" fill="#FCEE21"/>
<path d="M12.05 25.1L10.5057 22.4259H13.5942L12.05 25.1Z" fill="#FCEE21"/>
<path d="M3.52977 21.5702L4.32865 18.5887L6.51135 20.7714L3.52977 21.5702Z" fill="#FCEE21"/>
<path d="M8.58307e-06 13.05L2.67407 11.5057V14.5943L8.58307e-06 13.05Z" fill="#FCEE21"/>
<path d="M3.52977 4.52977L6.51135 5.32865L4.32865 7.51135L3.52977 4.52977Z" fill="#FCEE21"/>
<path d="M19.616 32.512C17.2053 32.512 15.4347 31.904 14.304 30.688C13.1733 29.472 12.608 27.456 12.608 24.64C12.608 22.4 12.9813 19.9893 13.728 17.408C14.496 14.8267 15.712 12.6187 17.376 10.784C19.0613 8.928 21.1947 8 23.776 8C25.376 8 26.6667 8.352 27.648 9.056C28.6293 9.76 29.12 10.8373 29.12 12.288C29.12 13.2053 28.9387 13.9307 28.576 14.464C28.2133 14.976 27.648 15.232 26.88 15.232C26.112 15.232 25.504 14.9547 25.056 14.4C25.44 14.208 25.7813 13.824 26.08 13.248C26.3787 12.672 26.528 12.0747 26.528 11.456C26.528 10.88 26.368 10.4107 26.048 10.048C25.7493 9.68533 25.2587 9.504 24.576 9.504C23.4453 9.504 22.368 10.2827 21.344 11.84C20.32 13.376 19.488 15.3173 18.848 17.664C18.2293 20.0107 17.92 22.272 17.92 24.448C17.92 26.0693 18.1973 27.3067 18.752 28.16C19.3067 29.0133 20.3093 29.44 21.76 29.44C23.0187 29.44 24.1813 29.1627 25.248 28.608C26.3147 28.0533 27.232 27.264 28 26.24L28.736 26.56C28.2027 27.904 27.4133 29.024 26.368 29.92C25.3227 30.816 24.2027 31.4773 23.008 31.904C21.8133 32.3093 20.6827 32.512 19.616 32.512ZM31.0743 32.192C30.0503 32.192 29.2183 31.872 28.5783 31.232C27.9596 30.592 27.6502 29.632 27.6502 28.352C27.6502 27.8187 27.7356 27.1253 27.9062 26.272L31.3303 10.24L36.0663 9.6L32.3863 26.88C32.3009 27.2 32.2583 27.5413 32.2583 27.904C32.2583 28.3307 32.3543 28.64 32.5463 28.832C32.7596 29.0027 33.1009 29.088 33.5703 29.088C34.1889 29.088 34.7649 28.832 35.2983 28.32C35.8316 27.7867 36.2156 27.104 36.4503 26.272H37.7943C37.0049 28.576 35.9916 30.144 34.7543 30.976C33.5169 31.7867 32.2903 32.192 31.0743 32.192ZM41.7815 14.272C41.0775 14.272 40.4802 14.0267 39.9895 13.536C39.4988 13.0453 39.2535 12.448 39.2535 11.744C39.2535 11.04 39.4988 10.4427 39.9895 9.952C40.4802 9.44 41.0775 9.184 41.7815 9.184C42.4855 9.184 43.0828 9.44 43.5735 9.952C44.0855 10.4427 44.3415 11.04 44.3415 11.744C44.3415 12.448 44.0855 13.0453 43.5735 13.536C43.0828 14.0267 42.4855 14.272 41.7815 14.272ZM39.6055 32.192C38.5815 32.192 37.7495 31.872 37.1095 31.232C36.4908 30.592 36.1815 29.632 36.1815 28.352C36.1815 27.8187 36.2668 27.1253 36.4375 26.272L38.6135 16H43.2215L40.9175 26.88C40.8322 27.2 40.7895 27.5413 40.7895 27.904C40.7895 28.3307 40.8855 28.64 41.0775 28.832C41.2908 29.0027 41.6322 29.088 42.1015 29.088C42.7202 29.088 43.2962 28.832 43.8295 28.32C44.3628 27.7867 44.7468 27.104 44.9815 26.272H46.3255C45.5362 28.576 44.5228 30.144 43.2855 30.976C42.0482 31.7867 40.8215 32.192 39.6055 32.192ZM64.4248 32.192C63.1234 32.192 62.1634 31.8507 61.5448 31.168C60.9474 30.464 60.6488 29.6 60.6488 28.576C60.6488 28.128 60.7021 27.6267 60.8088 27.072C60.9154 26.496 61.0221 25.9413 61.1287 25.408C61.2568 24.8747 61.3421 24.5333 61.3848 24.384C61.5554 23.6373 61.7154 22.9013 61.8647 22.176C62.0141 21.4507 62.0888 20.864 62.0888 20.416C62.0888 19.328 61.7048 18.784 60.9368 18.784C60.3821 18.784 59.8914 19.0613 59.4648 19.616C59.0381 20.1493 58.6968 20.8533 58.4408 21.728L56.2648 32H51.6568L53.9928 20.96C54.0568 20.704 54.0888 20.4373 54.0888 20.16C54.0888 19.2213 53.7688 18.752 53.1288 18.752C52.5314 18.752 52.0088 19.0293 51.5608 19.584C51.1341 20.1173 50.7928 20.832 50.5368 21.728L48.3608 32H43.7527L47.1448 16H51.7528L51.4008 17.664C52.4888 16.448 53.7901 15.84 55.3048 15.84C57.1821 15.84 58.2808 16.7573 58.6008 18.592C59.7741 16.7787 61.2568 15.872 63.0487 15.872C64.1368 15.872 65.0008 16.1707 65.6408 16.768C66.2808 17.3653 66.6008 18.272 66.6008 19.488C66.6008 20.1067 66.5261 20.8 66.3768 21.568C66.2274 22.3147 66.0141 23.232 65.7368 24.32C65.5661 24.9813 65.4061 25.632 65.2568 26.272C65.1288 26.8907 65.0648 27.3813 65.0648 27.744C65.0648 28.1707 65.1608 28.5013 65.3528 28.736C65.5448 28.9707 65.8754 29.088 66.3448 29.088C66.9848 29.088 67.4968 28.864 67.8808 28.416C68.2648 27.9467 68.6488 27.232 69.0328 26.272H70.3768C69.5874 28.6187 68.6701 30.1973 67.6248 31.008C66.6008 31.7973 65.5341 32.192 64.4248 32.192ZM80.5833 13.792C80.0926 13.792 79.6339 13.7387 79.2073 13.632C78.7806 13.5253 78.2686 13.3653 77.6713 13.152C77.0526 12.96 76.5833 12.8213 76.2633 12.736C75.9433 12.6507 75.5913 12.608 75.2073 12.608C74.4179 12.608 73.7139 12.8853 73.0953 13.44L72.9353 13.376C73.4259 12.352 74.1299 11.5733 75.0473 11.04C75.9646 10.5067 77.0419 10.24 78.2793 10.24C78.8126 10.24 79.2926 10.2933 79.7193 10.4C80.1673 10.4853 80.6579 10.624 81.1913 10.816C81.6819 10.9867 82.0979 11.1147 82.4393 11.2C82.7806 11.264 83.1539 11.296 83.5593 11.296C84.3699 11.296 85.0419 11.0507 85.5753 10.56L85.7353 10.592C85.6499 11.0827 85.3406 11.584 84.8073 12.096C84.2953 12.5867 83.6553 12.992 82.8873 13.312C82.1406 13.632 81.3726 13.792 80.5833 13.792ZM72.8713 32.192C71.6553 32.192 70.6419 31.776 69.8313 30.944C69.0206 30.112 68.6152 28.8107 68.6152 27.04C68.6152 25.4613 68.9246 23.808 69.5433 22.08C70.1833 20.3307 71.1219 18.8587 72.3593 17.664C73.6179 16.448 75.1113 15.84 76.8393 15.84C77.7139 15.84 78.3646 15.9893 78.7913 16.288C79.2179 16.5867 79.4313 16.9813 79.4313 17.472V17.696L79.7833 16H84.3913L82.0873 26.88C82.0019 27.2 81.9593 27.5413 81.9593 27.904C81.9593 28.8213 82.3966 29.28 83.2713 29.28C83.8686 29.28 84.3806 29.0027 84.8073 28.448C85.2553 27.8933 85.6073 27.168 85.8633 26.272H87.2073C86.4179 28.576 85.4366 30.144 84.2633 30.976C83.1113 31.7867 81.9486 32.192 80.7753 32.192C79.8793 32.192 79.1539 31.9467 78.5993 31.456C78.0659 30.944 77.7459 30.208 77.6393 29.248C77.0206 30.1227 76.3273 30.8373 75.5593 31.392C74.8126 31.9253 73.9166 32.192 72.8713 32.192ZM74.9513 29.088C75.4846 29.088 76.0073 28.8427 76.5193 28.352C77.0526 27.84 77.4153 27.1467 77.6073 26.272L79.1433 19.04C79.1433 18.7627 79.0366 18.496 78.8233 18.24C78.6099 17.9627 78.2793 17.824 77.8313 17.824C76.9779 17.824 76.2099 18.3253 75.5273 19.328C74.8446 20.3093 74.3113 21.504 73.9273 22.912C73.5433 24.2987 73.3513 25.5253 73.3513 26.592C73.3513 27.6587 73.5006 28.3413 73.7993 28.64C74.1193 28.9387 74.5033 29.088 74.9513 29.088ZM90.547 32.128C88.9683 32.128 87.7203 31.7227 86.803 30.912C85.8857 30.1013 85.427 28.8213 85.427 27.072C85.427 25.6 85.715 23.9893 86.291 22.24C86.867 20.4693 87.8057 18.944 89.107 17.664C90.4083 16.3627 92.0723 15.712 94.099 15.712C96.6163 15.712 97.971 17.152 98.163 20.032C98.6323 19.9253 99.0483 19.6693 99.411 19.264C99.7737 18.8373 100.115 18.3573 100.435 17.824H101.459C100.883 18.976 100.371 19.8827 99.923 20.544C99.475 21.184 98.8883 21.7067 98.163 22.112C98.035 24.1173 97.619 25.8773 96.915 27.392C96.2323 28.9067 95.3363 30.08 94.227 30.912C93.1177 31.7227 91.891 32.128 90.547 32.128ZM91.827 29.248C92.6163 29.248 93.3523 28.608 94.035 27.328C94.7177 26.048 95.187 24.4693 95.443 22.592C94.931 22.4 94.675 21.92 94.675 21.152C94.675 20.32 94.9737 19.7653 95.571 19.488C95.5283 18.8053 95.411 18.336 95.219 18.08C95.0483 17.8027 94.7603 17.664 94.355 17.664C93.651 17.664 92.979 18.176 92.339 19.2C91.699 20.2027 91.1763 21.4293 90.771 22.88C90.387 24.3093 90.195 25.568 90.195 26.656C90.195 27.68 90.3123 28.3733 90.547 28.736C90.7817 29.0773 91.2083 29.248 91.827 29.248Z" fill="black"/>
</svg>
