<svg width="700" height="700" viewBox="0 0 700 700" fill="none" xmlns="http://www.w3.org/2000/svg">
<rect width="700" height="700" rx="350" fill="white"/>
<g clip-path="url(#clip0_4_70)">
<path fill-rule="evenodd" clip-rule="evenodd" d="M436.198 94.5013C436.571 93.9696 437.303 93.8403 437.835 94.2127L474.189 119.668C474.721 120.04 474.85 120.773 474.478 121.305L423.879 193.567C448.478 201.426 465.237 209.903 465.237 209.903C465.237 209.903 424.273 280.365 354.794 280.365C285.315 280.365 235.944 214.693 235.944 214.693C235.944 214.693 253.45 203.521 279.4 193.939L223.9 127.798C223.483 127.3 223.548 126.559 224.045 126.142L258.042 97.6147C258.54 97.1974 259.281 97.2623 259.698 97.7595L329.97 181.506C335.987 180.826 342.117 180.445 348.303 180.445C357.194 180.445 366.074 181.121 374.743 182.268L436.198 94.5013ZM449.944 283.702C468.485 270.46 496.541 235.898 496.541 235.898C496.541 235.898 568.205 292.688 568.205 413.104C568.205 533.519 444.309 605.992 444.309 605.992C444.309 605.992 385.114 546.211 370.582 470.43C356.051 394.649 392.078 310.503 392.078 310.503C392.078 310.503 431.402 296.944 449.944 283.702ZM250.261 283.702C231.72 270.46 203.664 235.898 203.664 235.898C203.664 235.898 132 292.688 132 413.104C132 533.519 255.896 605.992 255.896 605.992C255.896 605.992 315.091 546.211 329.623 470.43C344.154 394.649 308.127 310.503 308.127 310.503C308.127 310.503 268.803 296.944 250.261 283.702Z" fill="url(#paint0_linear_4_70)"/>
</g>
<defs>
<linearGradient id="paint0_linear_4_70" x1="350.102" y1="94" x2="350.102" y2="605.992" gradientUnits="userSpaceOnUse">
<stop stop-color="#93BB3A"/>
<stop offset="1" stop-color="#84AE27"/>
</linearGradient>
<clipPath id="clip0_4_70">
<rect width="512.205" height="511.992" fill="white" transform="translate(94 94)"/>
</clipPath>
</defs>
</svg>
