<svg width="700" height="700" viewBox="0 0 700 700" fill="none" xmlns="http://www.w3.org/2000/svg">
<rect width="700" height="700" rx="350" fill="white"/>
<path fill-rule="evenodd" clip-rule="evenodd" d="M374.702 348.881C378.172 346.765 381.116 342.331 383.49 337.403C414.735 350.173 436.692 380.349 436.692 415.54C436.692 462.29 397.942 500.189 350.142 500.189C330.52 500.189 312.423 493.802 297.906 483.039C293.144 480.784 289.226 478.618 286.02 476.845C281.047 474.096 277.786 472.293 275.744 472.575C269.775 473.398 271.508 478.89 273.083 483.879C274.152 487.268 275.149 490.425 273.606 491.727C271.992 493.091 266.764 488.106 260.655 482.282C252.339 474.353 242.391 464.868 237.7 467.717C233.991 469.97 237.592 476.081 242 483.561L242.327 484.116C244.189 487.278 246.347 490.498 248.316 493.436C252.319 499.407 255.543 504.219 253.93 505.033C251.98 506.017 238.394 496.847 226.945 484.116C222.526 479.203 218.246 473.877 214.268 468.928V468.927C205.561 458.093 198.307 449.068 194.235 450.137C189.337 451.423 193.042 461.527 198.487 471.25C201.033 475.797 204.028 480.427 206.621 484.436V484.437C210.654 490.671 213.715 495.402 212.605 495.984C211.107 496.767 197.926 483.914 188.973 467.717C183.656 458.096 179.191 447.464 175.576 438.857C171.656 429.522 168.736 422.569 166.813 421.869C160.133 419.438 160.133 433.059 162.812 452.718C163.161 455.283 163.682 457.973 164.323 460.712C190.307 544.785 270.128 606 364.567 606C480.084 606 573.728 514.412 573.728 401.432C573.728 293.9 488.899 205.747 381.12 197.494C381.256 192.428 383.9 182.383 383.9 182.383C383.9 182.383 402.927 136.347 403.933 126.51C403.999 125.857 404.078 125.147 404.163 124.392C405.348 113.763 407.553 94 390.551 94C381.471 94 377.249 100.755 372.42 108.48C370.566 111.446 368.622 114.555 366.28 117.479C349.412 138.544 321.048 164.849 304.965 178.863C270.971 208.484 237.619 232.828 218.167 247.026L218.166 247.027C209.319 253.484 203.348 257.843 201.5 259.644C187.574 273.22 137.642 363.286 137.642 363.286C137.642 363.286 121.494 392.182 127.234 398.043C132.973 403.903 146.814 402.56 146.814 402.56C146.814 402.56 332.755 359.903 349.402 356.539C353.884 355.633 357.048 355.11 359.477 354.709C366.072 353.62 367.256 353.424 374.702 348.881ZM243.235 294.064C233.254 303.551 216.701 326.196 216.701 326.196C216.701 326.196 247.465 328.091 264.408 311.986C281.352 295.88 277.47 268.433 277.47 268.433C277.47 268.433 253.215 284.577 243.235 294.064Z" fill="url(#paint0_linear_12_146)"/>
<defs>
<linearGradient id="paint0_linear_12_146" x1="349.864" y1="94" x2="349.864" y2="606" gradientUnits="userSpaceOnUse">
<stop stop-color="#176CC5"/>
<stop offset="1" stop-color="#0757AC"/>
</linearGradient>
</defs>
</svg>
