<svg width="700" height="700" viewBox="0 0 700 700" fill="none" xmlns="http://www.w3.org/2000/svg">
<rect width="700" height="700" rx="350" fill="white"/>
<g clip-path="url(#clip0_12_151)">
<path fill-rule="evenodd" clip-rule="evenodd" d="M196.726 499.978L278.848 476.166L349.778 605.857C349.871 606.025 350.112 606.025 350.204 605.857L421.134 476.166L503.257 499.978C503.441 500.031 503.612 499.86 503.557 499.676L479.741 419.179L605.856 350.204C606.025 350.112 606.025 349.871 605.857 349.779L478.702 280.235L503.557 196.225C503.612 196.041 503.441 195.87 503.257 195.923L419.208 220.294L350.204 94.1262C350.112 93.9579 349.871 93.9579 349.779 94.1262L280.775 220.294L196.726 195.923C196.542 195.87 196.371 196.041 196.426 196.225L221.281 280.235L94.1262 349.779C93.9579 349.871 93.9579 350.112 94.1262 350.204L220.241 419.179L196.426 499.676C196.371 499.86 196.542 500.031 196.726 499.978ZM260.452 350.876L318.631 382.695L350.45 440.873C350.542 441.042 350.784 441.042 350.876 440.873L382.695 382.695L440.873 350.876C441.041 350.784 441.041 350.542 440.873 350.45L382.695 318.631L350.876 260.453C350.784 260.284 350.542 260.284 350.45 260.453L318.631 318.631L260.452 350.45C260.284 350.542 260.284 350.784 260.452 350.876Z" fill="url(#paint0_linear_12_151)"/>
</g>
<defs>
<linearGradient id="paint0_linear_12_151" x1="349.991" y1="94" x2="349.991" y2="605.983" gradientUnits="userSpaceOnUse">
<stop stop-color="#F4BBED"/>
<stop offset="1" stop-color="#D285C8"/>
</linearGradient>
<clipPath id="clip0_12_151">
<rect width="512" height="512" fill="white" transform="translate(94 94)"/>
</clipPath>
</defs>
</svg>
