<svg width="700" height="700" viewBox="0 0 700 700" fill="none" xmlns="http://www.w3.org/2000/svg">
<rect width="700" height="700" rx="350" fill="white"/>
<path fill-rule="evenodd" clip-rule="evenodd" d="M182.234 136.566C188.43 112.101 210.593 94 236.983 94C256.778 94 274.195 104.185 284.279 119.6H300.792C311.051 109.072 325.384 102.533 341.245 102.533C364.499 102.533 384.471 116.588 393.129 136.667H406.954C415.617 131.258 425.853 128.133 436.818 128.133C460.073 128.133 480.044 142.188 488.702 162.267H526.297C526.618 162.267 526.919 162.353 527.178 162.504C528.895 162.347 530.634 162.267 532.391 162.267C563.582 162.267 588.866 187.551 588.866 218.742V388.086L588.867 388.4L588.866 388.714V391.153C588.866 392.186 588.838 393.215 588.782 394.239C585.384 511.717 479.749 606 349.933 606C217.974 606 111 508.577 111 388.4C111 330.391 135.925 277.683 176.553 238.675C176.452 295.228 177.407 353.694 181.811 352.691C193.601 350.003 184.389 174.84 182.234 136.566Z" fill="url(#paint0_linear_12_149)"/>
<defs>
<linearGradient id="paint0_linear_12_149" x1="349.934" y1="94" x2="349.934" y2="606" gradientUnits="userSpaceOnUse">
<stop stop-color="#D3425F"/>
<stop offset="1" stop-color="#B92240"/>
</linearGradient>
</defs>
</svg>
