<svg width="700" height="700" viewBox="0 0 700 700" fill="none" xmlns="http://www.w3.org/2000/svg">
<rect width="700" height="700" rx="350" fill="white"/>
<path fill-rule="evenodd" clip-rule="evenodd" d="M446.258 489.394C452.584 466.263 440.305 418.71 440.305 418.71C440.305 418.71 431.399 457.449 417.483 471.767C405.611 483.98 391.066 492.451 370.206 494.677C387.261 486.393 398.99 469.12 398.99 449.155C398.99 421.129 375.878 398.409 347.368 398.409C318.858 398.409 295.745 421.129 295.745 449.155C295.745 456.809 297.47 464.068 300.557 470.576C282.725 456.37 279.921 433.594 279.921 433.594C279.921 433.594 260.009 516.264 314.875 555.152C369.74 594.04 477.219 560.614 477.219 560.614C477.219 560.614 323.41 668.837 209.436 551.05C111.257 449.584 183.811 316.003 183.811 316.003C183.811 316.003 180.678 328.395 180.678 342.78C180.678 357.165 188.477 368.11 188.477 368.11C188.477 368.11 211.742 319.071 229.848 299.128C246.984 280.254 268.465 264.946 287.019 251.724C301.301 241.546 313.849 232.604 321.343 224.223C362.62 178.069 337.311 94 337.311 94C337.311 94 383.841 135.02 396.831 187.998C401.783 208.192 398.597 231.169 395.749 251.716C391.125 285.072 387.388 312.025 420.793 310.276C474.775 307.449 427.866 224.223 427.866 224.223C427.866 224.223 550.318 288.583 541.17 401.145C532.021 513.707 407.324 539.297 407.324 539.297C407.324 539.297 439.931 512.525 446.258 489.394Z" fill="url(#paint0_linear_12_121)"/>
<defs>
<linearGradient id="paint0_linear_12_121" x1="349.829" y1="94" x2="349.829" y2="606" gradientUnits="userSpaceOnUse">
<stop stop-color="#F9A555"/>
<stop offset="1" stop-color="#D07824"/>
</linearGradient>
</defs>
</svg>
