<svg width="700" height="700" viewBox="0 0 700 700" fill="none" xmlns="http://www.w3.org/2000/svg">
<rect width="700" height="700" rx="350" fill="white"/>
<path fill-rule="evenodd" clip-rule="evenodd" d="M272.712 571.733C347.715 571.733 411.927 530.048 438.436 470.956C438.76 470.235 332.007 498.699 335.411 488.637C336.931 484.144 402.371 460.238 450.048 432.354C477.451 416.327 490.07 382.4 490.07 382.4C490.07 382.4 443.903 404.815 420.564 410.501C373.532 421.961 332.131 420.727 332.131 419.533C332.131 416.951 400.876 403.889 496.424 345.664C541.367 318.277 553.574 271.103 553.574 271.103C553.574 271.103 504.163 300.535 474.293 310.252C403.457 333.295 338.815 340.239 338.815 337.121C338.815 330.445 395.702 314.802 456.016 285.577C487.376 270.382 514.535 250.53 546.008 228.453C597.506 192.332 605.999 128 605.999 128C605.999 128 555.207 160.76 530.42 171.639C428.141 216.531 337.829 240.079 272.712 245.177C174.416 252.873 94 321.456 94 410.501C94 499.547 174.012 571.733 272.712 571.733Z" fill="url(#paint0_linear_12_139)"/>
<defs>
<linearGradient id="paint0_linear_12_139" x1="349.999" y1="128" x2="349.999" y2="571.733" gradientUnits="userSpaceOnUse">
<stop stop-color="#A2BCEA"/>
<stop offset="1" stop-color="#6A8DCA"/>
</linearGradient>
</defs>
</svg>
