<svg width="700" height="700" viewBox="0 0 700 700" fill="none" xmlns="http://www.w3.org/2000/svg">
<rect width="700" height="700" rx="350" fill="white"/>
<g clip-path="url(#clip0_12_142)">
<path fill-rule="evenodd" clip-rule="evenodd" d="M462.952 604.227C416.769 606.591 363.896 606.591 345.928 604.227C205.77 585.788 94 483.313 94 344.8C94 206.287 208.615 94 350 94C491.385 94 606 206.287 606 344.8C606 409.221 581.207 467.969 540.46 512.387C529.395 524.448 544.577 532.908 560.002 541.504C575.13 549.935 590.492 558.496 581.564 570.712C571.726 584.173 518.392 601.389 462.952 604.227ZM314 313.45C314 335.092 296.091 352.637 274 352.637C251.909 352.637 234 335.092 234 313.45C234 298.935 242.055 286.264 254.024 279.491C254.713 298.362 270.229 313.449 289.269 313.449L314 313.45ZM437.976 279.491C437.287 298.362 421.771 313.449 402.731 313.449H378C378 335.091 395.909 352.637 418 352.637C440.091 352.637 458 335.092 458 313.45C458 298.935 449.945 286.264 437.976 279.491Z" fill="url(#paint0_linear_12_142)"/>
</g>
<defs>
<linearGradient id="paint0_linear_12_142" x1="350" y1="94" x2="350" y2="606" gradientUnits="userSpaceOnUse">
<stop stop-color="#606FBA"/>
<stop offset="1" stop-color="#38499F"/>
</linearGradient>
<clipPath id="clip0_12_142">
<rect width="512" height="512" fill="white" transform="translate(94 94)"/>
</clipPath>
</defs>
</svg>
