<svg width="700" height="700" viewBox="0 0 700 700" fill="none" xmlns="http://www.w3.org/2000/svg">
<rect width="700" height="700" rx="350" fill="white"/>
<g clip-path="url(#clip0_12_140)">
<path fill-rule="evenodd" clip-rule="evenodd" d="M521.821 487.449C573.524 446.108 606 386.376 606 319.95C606 195.161 491.385 94 350 94C208.615 94 94 195.161 94 319.95C94 383.978 124.174 441.786 172.655 482.901C169.717 493.046 168.105 504.081 168.105 515.62C168.105 565.535 198.267 606 235.474 606C259.65 606 280.852 588.915 292.737 563.254C304.622 588.915 325.824 606 350 606C372.038 606 391.604 591.804 403.895 569.857C416.186 591.804 435.752 606 457.789 606C494.996 606 525.158 565.535 525.158 515.62C525.158 505.784 523.986 496.314 521.821 487.449ZM498.211 324.431C498.211 387.785 430.346 439.144 346.632 439.144C262.917 439.144 195.053 387.785 195.053 324.431C195.053 261.077 262.917 209.718 346.632 209.718C430.346 209.718 498.211 261.077 498.211 324.431Z" fill="url(#paint0_linear_12_140)"/>
</g>
<defs>
<linearGradient id="paint0_linear_12_140" x1="350" y1="94" x2="350" y2="606" gradientUnits="userSpaceOnUse">
<stop stop-color="#B667CD"/>
<stop offset="1" stop-color="#923FAA"/>
</linearGradient>
<clipPath id="clip0_12_140">
<rect width="512" height="512" fill="white" transform="translate(94 94)"/>
</clipPath>
</defs>
</svg>
