<svg width="700" height="700" viewBox="0 0 700 700" fill="none" xmlns="http://www.w3.org/2000/svg">
<rect width="700" height="700" rx="350" fill="white"/>
<g clip-path="url(#clip0_4_71)">
<path fill-rule="evenodd" clip-rule="evenodd" d="M549.925 519.184C549.925 519.184 485.365 570.963 356.893 549.536C259.423 533.279 207.437 425.833 207.437 368.079C207.437 231.149 308.783 199.988 377.3 199.988C445.816 199.988 490.513 266.788 490.513 318.508C490.513 370.228 453.933 415.466 397.006 415.466C340.08 415.466 323.22 375.501 323.22 338.758C323.22 302.016 352.947 289.071 380.058 289.071C407.169 289.071 416.452 312.217 416.452 332.11C416.452 352.004 401.017 359.128 388.143 359.128C375.269 359.128 373.996 352.633 369.069 345.807C364.141 338.982 375.353 313.146 356.893 313.146C338.433 313.146 334.992 342.847 334.992 342.847C334.992 342.847 341.722 400.18 397.006 399.191C452.291 398.201 478.518 355.461 470.896 313.146C463.274 270.83 422.207 225.865 350.133 234.951C278.059 244.037 248.632 316.861 261.603 394.685C274.574 472.51 367.807 517.602 441.112 501.379C514.418 485.156 587.429 432.086 587.429 297.533C587.429 162.979 470.896 82.0998 331.941 95.4291C192.986 108.758 106.729 230.242 112.25 376.207C117.771 522.172 256.275 601.669 373.394 605.766C490.513 609.864 562.312 542.067 562.312 542.067C562.312 542.067 578.459 527.668 572.128 516.424C565.798 505.18 549.925 519.184 549.925 519.184Z" fill="url(#paint0_linear_4_71)"/>
</g>
<defs>
<linearGradient id="paint0_linear_4_71" x1="349.714" y1="94" x2="349.714" y2="605.945" gradientUnits="userSpaceOnUse">
<stop stop-color="#F88684"/>
<stop offset="1" stop-color="#E86764"/>
</linearGradient>
<clipPath id="clip0_4_71">
<rect width="512" height="512" fill="white" transform="translate(94 94)"/>
</clipPath>
</defs>
</svg>
