<svg width="700" height="700" viewBox="0 0 700 700" fill="none" xmlns="http://www.w3.org/2000/svg">
<rect width="700" height="700" rx="350" fill="white"/>
<g clip-path="url(#clip0_12_148)">
<path fill-rule="evenodd" clip-rule="evenodd" d="M489.138 338.757C489.109 338.717 489.097 338.667 489.105 338.618L521.769 148.152C521.784 148.064 521.861 148 521.949 148H532.287C532.367 148 532.437 148.052 532.461 148.128L606.051 381.131C606.074 381.203 606.049 381.283 605.989 381.33L551.73 423.693C551.649 423.756 551.532 423.74 551.471 423.657L489.138 338.757ZM93 465.022C93 465.101 93.0508 465.171 93.1259 465.196L204.975 501.767C205.029 501.785 205.089 501.776 205.136 501.744L455.145 329.144C455.187 329.115 455.215 329.07 455.222 329.02L482.032 149.128C482.049 149.018 481.963 148.919 481.852 148.919H260.406C260.351 148.919 260.3 148.943 260.265 148.985L93.042 350.714C93.0149 350.747 93 350.788 93 350.831V465.022ZM251.583 511.085L373.776 551.112C373.831 551.13 373.892 551.121 373.939 551.087L519.418 446.734C519.499 446.677 519.519 446.566 519.464 446.484L464.928 365.329C464.871 365.244 464.757 365.222 464.673 365.28L251.583 511.085Z" fill="url(#paint0_linear_12_148)"/>
</g>
<defs>
<linearGradient id="paint0_linear_12_148" x1="349.53" y1="148" x2="349.53" y2="551.121" gradientUnits="userSpaceOnUse">
<stop stop-color="#C9BB8D"/>
<stop offset="1" stop-color="#AE9B5C"/>
</linearGradient>
<clipPath id="clip0_12_148">
<rect width="512" height="512" fill="white" transform="translate(94 94)"/>
</clipPath>
</defs>
</svg>
