<svg width="700" height="700" viewBox="0 0 700 700" fill="none" xmlns="http://www.w3.org/2000/svg">
<rect width="700" height="700" rx="350" fill="white"/>
<path fill-rule="evenodd" clip-rule="evenodd" d="M94.0511 348.527C93.983 348.411 93.983 348.267 94.051 348.15L222.795 128.184C222.862 128.07 222.985 128 223.117 128H478.294C478.427 128 478.55 128.071 478.617 128.186L605.949 348.152C606.016 348.267 606.016 348.41 605.949 348.525L478.617 568.244C478.55 568.359 478.427 568.43 478.294 568.43H223.117C222.985 568.43 222.862 568.36 222.795 568.246L94.0511 348.527ZM468.617 348.215C468.617 413.703 415.528 466.792 350.04 466.792C284.552 466.792 231.463 413.703 231.463 348.215C231.463 282.726 284.552 229.638 350.04 229.638C415.528 229.638 468.617 282.726 468.617 348.215Z" fill="url(#paint0_linear_12_143)"/>
<defs>
<linearGradient id="paint0_linear_12_143" x1="350" y1="128" x2="350" y2="568.43" gradientUnits="userSpaceOnUse">
<stop stop-color="#5995A2"/>
<stop offset="1" stop-color="#296774"/>
</linearGradient>
</defs>
</svg>
