<svg width="96" xmlns="http://www.w3.org/2000/svg" height="96" viewBox="0 0 96 96" xmlns:xlink="http://www.w3.org/1999/xlink">
<path d="m87.468,89.883l-2.127,2.127c-2.355,2.352-6.165,2.352-8.514,0l-17.028-17.022c-1.968-1.974-2.187-4.932-.843-7.236l-9.312-9.306c-5.007,3.714-11.184,5.937-17.895,5.937-16.62,0-30.093-13.473-30.093-30.093 0-16.623 13.473-30.096 30.093-30.096 16.623,0 30.093,13.473 30.093,30.096 0,7.737-2.94,14.769-7.74,20.1l9.105,9.105c2.304-1.341 5.262-1.125 7.23,.849l17.028,17.022c2.352,2.355 2.352,6.168 .003,8.517zm-33.204-55.716c0-12.465-10.107-22.569-22.572-22.569s-22.572,10.101-22.572,22.569 10.104,22.569 22.569,22.569 22.575-10.104 22.575-22.569z"/>
</svg>
