<?xml version="1.0" encoding="iso-8859-1"?>
<!-- Generator: Adobe Illustrator 19.1.0, SVG Export Plug-In . SVG Version: 6.00 Build 0)  -->
<svg version="1.1" id="Capa_1" xmlns="http://www.w3.org/2000/svg" xmlns:xlink="http://www.w3.org/1999/xlink" x="0px" y="0px"
	 viewBox="0 0 89.194 89.194" style="enable-background:new 0 0 89.194 89.194;" xml:space="preserve">
<g>
	<g>
		<path d="M40.967,30.701c-0.342,0-0.182,0.003-1.182,0.008v-8.986c0-3.29-2.643-6.572-5.82-6.885
			c-2.612-0.257-4.717,1.356-6.458,2.631c-0.324,0.236-0.572,0.465-0.87,0.666c-2.39,1.616-4.717,3.34-6.998,5.007
			c-1.975,1.443-4,2.936-6.034,4.337c-1.857,1.28-3.691,2.587-5.53,3.893l-2.096,1.487C2.769,35.047,0,36.934,0,40.905
			c0,4.124,3.35,6.312,5.979,8.026c0.401,0.284,0.811,0.566,1.221,0.85c0.471,0.324,0.942,0.648,1.4,0.977l0.156,0.112
			c3.9,2.804,7.934,5.702,11.949,8.457c0.634,0.436,1.271,0.881,1.91,1.328c1.4,0.979,2.85,1.992,4.303,2.925
			c0.339,0.218,0.743,0.528,1.17,0.857c1.494,1.147,3.352,2.577,5.6,2.576c0.898,0,1.513-0.231,2.319-0.689
			c1.858-1.057,3.779-3.324,3.779-6.239v-8.066c2-0.116,3.762-0.107,5.447-0.107c31.927,0,39.616,20.3,39.928,21.184
			c0.282,0.814,1.174,1.287,2.013,1.287c0.009,0,0.019,0,0.027,0c1.102,0,1.993-0.841,1.993-1.943c0-0.099-0.132-0.232-0.146-0.328
			C88.894,41.515,64.079,30.701,40.967,30.701z M45.482,47.843c-2.377,0-5.106,0.11-7.62,0.329
			c-1.034,0.089-2.077,0.955-2.077,1.992v9.92c0,0.925-0.612,2.111-1.755,2.761c-0.202,0.115-0.266,0.168-0.469,0.168
			c-0.888,0-2.086-0.969-3.099-1.747c-0.496-0.382-0.934-0.743-1.416-1.053c-1.388-0.891-2.787-1.88-4.156-2.837
			c-0.648-0.453-1.286-0.904-1.931-1.348c-3.98-2.73-7.991-5.616-11.875-8.407l-0.155-0.113c-0.48-0.345-0.971-0.684-1.462-1.021
			c-0.396-0.272-0.79-0.545-1.24-0.862C5.303,43.716,4,42.581,4,40.905c0-1.637,0.852-2.436,4.262-4.759l2.134-1.513
			c1.824-1.295,3.651-2.591,5.493-3.861c2.079-1.433,4.144-2.941,6.141-4.4c2.252-1.646,4.581-3.348,6.911-4.924
			c0.336-0.228,0.687-0.483,1.052-0.75c1.267-0.929,2.443-1.993,3.58-1.879c1.15,0.113,2.212,1.66,2.212,2.904v11.039
			c0,1.104,1.396,1.619,2.5,1.619h0.543c0.045,0,0.092,0.188,0.137,0.186c0.008,0,0.841,0.04,2.252,0.04
			c9.4,0,38.192,2.314,43.208,29.282C78.867,56.889,67.425,47.843,45.482,47.843z"/>
	</g>
</g>
<g>
</g>
<g>
</g>
<g>
</g>
<g>
</g>
<g>
</g>
<g>
</g>
<g>
</g>
<g>
</g>
<g>
</g>
<g>
</g>
<g>
</g>
<g>
</g>
<g>
</g>
<g>
</g>
<g>
</g>
</svg>
