<?xml version="1.0" encoding="utf-8"?>
<!-- Generator: Adobe Illustrator 21.0.0, SVG Export Plug-In . SVG Version: 6.00 Build 0)  -->
<svg version="1.1" id="Layer_1" xmlns="http://www.w3.org/2000/svg" xmlns:xlink="http://www.w3.org/1999/xlink" x="0px" y="0px"
	 viewBox="0 0 720 720" style="enable-background:new 0 0 720 720;" xml:space="preserve">
<style type="text/css">
	.st0{fill:#EF402E;}
	.st1{fill:#9F9C9C;}
	.st2{fill:#FFFFFF;}
	.st3{fill:#363738;}
	.st4{fill:#59595B;}
	.st5{fill:#231F20;}
</style>
<path class="st0" d="M148.6,188.2c7.3-6.3,15.3-11.5,23.6-16.4c24.7-14.7,51.3-24.2,79.8-27.5c63-7.4,118.8,9.4,166.6,51.3
	c36.2,31.8,58.3,71.9,67.4,119.2c1.7,8.7,2.5,17.4,3.1,26.2c0.2,3,0.1,3-2.7,1.9c-15-6.1-29.6-13-44.8-18.8
	c-12.1-4.6-24.5-8.4-37.2-10.9c-2.3-0.5-3.2-1.4-3.8-3.6c-7.8-30.3-35.2-53.1-66.3-55c-32.1-2-60,14.5-73.6,43.6
	c-0.9,2-2,2.7-4.2,2.7c-37.1,1.1-73.4,7-109,17.3c-25.2,7.3-49.8,16.3-74.2,25.8c-1.3,0.5-2.6,1-4.1,1.5c-0.4-2.6,0-5,0.2-7.5
	c3.5-47.3,21-88.8,52.1-124.5c1.6-1.9,3.4-3.6,5.1-5.4c0.8,1.3-0.3,2.1-0.9,3c-5.2,7.7-9.1,15.9-10.6,25.1c-1.7,11,0.3,21,8.2,29.2
	c4.3,4.5,9.8,7.2,15.8,8.5c11.6,2.5,22.8,0.8,33.7-3.5c10.3-4,19.4-10,27.1-17.8c10.4-10.4,18.1-22.4,20.1-37.3
	c2.7-20.5-9.2-34.6-27.7-37.2c-14.3-2-27.3,1.9-39.7,8.6C151.6,187.6,150.5,189.2,148.6,188.2z"/>
<path class="st1" d="M141.1,375c-0.6,0.8-0.3,1.6-0.1,2.4c4.6,17.7,11.7,34.4,21.2,49.9c11.6,19,26.1,35.5,43.6,49.3
	c23.6,18.7,50.2,30.9,79.6,36.9c9.6,2,19.3,3,29,3.4c25,1.1,49.1-2.6,72.6-11.1c14.3-5.2,27.7-12,40.4-20.5c10-6.7,19-14.5,28-22.4
	c0.9-0.8,1.9-1.5,2.8-2.2c-1.7,4.4-4.7,8.1-7.3,11.9c-8.3,12.2-18.2,23.1-29,33.1c-12.2,11.4-25.7,21.2-40.3,29.3
	c-17,9.5-34.9,16.5-53.8,21c-11.2,2.7-22.5,4.4-34.1,5.2c-4.9,0.3-9.9,0.5-14.8,0.6c-6.8,0.2-13.7-0.3-20.5-1
	c-18.8-1.8-37.1-6.1-54.8-12.9c-22.7-8.7-43.3-20.9-61.7-36.8c-34.5-29.8-57.2-66.9-68-111.2c-0.6-2.3,0.1-3.1,2.1-3.9
	c20.3-7.7,40.8-14.6,61.7-20.3C139,375.5,140.1,375.2,141.1,375z"/>
<path class="st2" d="M141.1,375c19.8-5.4,39.9-9.5,60.3-12.5c13.6-2,27.3-3.4,41-4.4c5.3-0.4,10.6-0.5,15.9-0.9
	c1.7-0.1,2.2,0.8,2.8,2c9.4,20,24.4,33.9,45.6,40.4c25.5,7.8,48.8,2.9,69.6-13.7c5.6-4.5,10.3-9.7,14.2-15.7c1-1.5,1.9-2,3.8-1.6
	c26.1,5.4,51.5,13.3,76.4,22.6c3.8,1.4,7.6,3.1,11.5,4.3c2,0.6,2.2,1.7,1.8,3.4c-2.1,8.6-4.5,17.2-7.7,25.5
	c-4.3,11.5-9.4,22.8-15.9,33.3c-0.6,1-1.4,1.9-2.1,2.9c-2.2,3.3-5.5,5.4-8.3,7.9c-8.1,7.3-16.7,13.9-25.9,19.8
	c-16.4,10.4-34,18-52.7,23.1c-11.4,3.1-22.9,5.1-34.6,5.9c-31.6,2.2-61.9-3-90.9-15.9c-13.6-6-26.4-13.6-38.1-22.6
	c-11.9-9.2-22.6-19.6-32-31.4c-16.5-20.7-28.2-43.8-35.1-69.4C140.2,377,139.7,375.8,141.1,375z M148.6,188.2
	c1.1,0.2,1.7-0.6,2.5-1.1c11.3-6.6,23.4-10.5,36.7-10.1c15.7,0.4,28.2,9.1,32.2,22.6c2.3,7.8,1.9,15.6-0.5,23.3
	c-5.5,18.1-17.2,31.3-32.8,41.4c-12.2,7.9-25.6,12.3-40.3,11.5c-16.8-0.9-29.3-11.3-31.8-26.9c-1.4-8.7,0.3-17,3.6-25.1
	c1.9-4.8,4.5-9.2,7.5-13.4c0.5-0.7,1.3-1.2,1.1-2.2c2.1-2.2,4.2-4.5,6.3-6.7C137.8,196.4,143.3,192.5,148.6,188.2z"/>
<path class="st3" d="M84.6,344.1c-0.9,2.5,0.1,5,0.7,7.2c3.9,14,12.9,23,26.8,27.1c0.7,0.2,1.5,0.1,2.3,0.2
	c-6.9,2.3-13.8,4.6-20.7,7c-6.7,2.3-13.4,4.5-19.8,7.4c-1.6,0.7-1.9,0-2.3-1.3c-1.1-4.3-1.7-8.7-2.4-13c-1.4-8.5-0.9-17-1-25.5
	c0-1.9,0.6-2.9,2.4-3.6C75.3,347.8,79.8,345.6,84.6,344.1z"/>
<path class="st4" d="M490.7,351.4c0-1.6-0.8-2.4-2.3-3c-8.1-3.3-16.1-6.7-24.1-10.2c-20.5-9.1-41.4-17.2-63.5-21.4
	c-2.2-0.4-3.2-1.3-3.7-3.6c-3.8-16.5-12.4-30-25.8-40.2c-15.1-11.5-32.2-16.1-51.1-13.9c-10.1,1.2-19.5,4.5-28.1,9.8
	c-13.2,8.2-22.8,19.6-28.6,34.2c-0.4,1.2-0.9,1.9-2.3,1.9c-3,0-6,0.3-9,0.4c-7.4,0.3-14.8,1-22.2,1.6c-11.8,1-23.5,2.7-35.2,4.7
	c-15,2.6-29.8,6.3-44.6,10.2c-11.9,3.1-23.5,7-35.1,11c-10.2,3.6-20.4,7.3-30.5,11.2c-1.2,0.6-1,1.7-1,2.8
	c2.2,14.5,10,24.8,23.5,30.6c2.2,0.9,4.5,2,7.1,1.1c1.4,0.1,2.5-0.7,3.7-1.1c7-2,13.8-4.2,20.9-5.9c5.6-1.4,11.1-3.4,16.7-4.7
	c15.1-3.3,30.2-6.3,45.5-8.5c11.1-1.7,22.3-2.9,33.5-3.9c8.5-0.8,17.1-1.1,25.6-1.6c1.7-0.1,2.7,0.2,3.5,2.1
	c5.4,13.1,13.8,24,25.7,31.9c13.7,9.2,28.8,13.2,45.4,11.8c11.6-1,22.2-4.7,31.9-10.9c9.1-5.8,16.3-13.3,21.9-22.4
	c0.7-1.1,1.2-2,3-1.6c17.6,3.6,34.9,8.1,52,13.6c14,4.5,27.7,9.4,41.3,14.8c1.3,0.5,2.3,0.9,2.8-1.1
	C490.8,378,491.2,364.8,490.7,351.4z M330.3,378.9c-29-0.1-51.4-23.6-51.4-51.7c0-28.2,23.1-51.9,51.8-51.5
	c28.1-0.3,51.8,23,51.5,52C381.9,356,359.4,379,330.3,378.9z"/>
<path class="st2" d="M331.2,281.5c-25.9-0.3-47.3,20.7-47.6,46.9c-0.3,25.5,20.7,47.2,45.8,47.6c26.4,0.4,48.2-20.2,48.6-45.6
	C378.4,303.2,357.9,281.8,331.2,281.5z M330.9,365.2c-20.2,0-36.4-16.5-36.3-36.8c0.1-19.9,16.5-36.1,36.4-36
	c20.2,0.1,36.5,16.5,36.3,36.6C367.1,349.1,350.9,365.2,330.9,365.2z"/>
<path class="st2" d="M364.3,329.4c-0.9,19.5-16.3,33.7-35.5,32.8c-17.8-0.9-32.4-16.9-31.5-34.5c1-18.7,16.6-33.3,34.7-32.4
	C350.3,296.3,365.1,311.9,364.3,329.4z"/>
<path class="st5" d="M330.9,277.1c-28.7-0.4-51.8,23.3-51.8,51.5c0,28.1,22.4,51.6,51.4,51.7c29.1,0.1,51.6-22.9,51.9-51.2
	C382.7,300.1,359,276.8,330.9,277.1z M329.3,375.9c-25.1-0.4-46.1-22.1-45.8-47.6c0.3-26.2,21.7-47.2,47.6-46.9
	c26.7,0.3,47.2,21.7,46.8,48.9C377.5,355.7,355.7,376.3,329.3,375.9z M330.8,292.3c-19.9-0.1-36.3,16.1-36.4,36
	c-0.1,20.3,16.1,36.8,36.3,36.8c20,0,36.2-16.1,36.4-36.2C367.3,308.8,351,292.4,330.8,292.3z M328.7,362
	c-17.8-0.9-32.4-16.9-31.5-34.5c1-18.7,16.6-33.3,34.7-32.4c18.3,1,33.1,16.6,32.3,34.1C363.3,348.7,347.9,362.9,328.7,362z
	 M276.1,136.7c-112.8,1.5-212.9,91.8-213,216.5c0,120.8,98.3,216.6,217.8,215.4c126.9-1.2,215.5-106.8,214.2-215.3
	C495.4,231.9,396.1,135.1,276.1,136.7z M69.5,338.1c3.5-47.3,21-88.8,52.1-124.5c1.6-1.9,3.4-3.6,5.1-5.4c0,0,0,0,0,0.1
	c0,0,0,0,0-0.1c2.1-2.2,4.2-4.5,6.3-6.7c4.7-5,10.2-9,15.6-13.2c7.3-6.3,15.3-11.5,23.5-16.4c24.7-14.7,51.3-24.2,79.8-27.5
	c63-7.3,118.8,9.4,166.6,51.3c36.2,31.8,58.3,71.9,67.4,119.2c1.7,8.7,2.5,17.4,3.1,26.2c0.2,3,0.1,3-2.7,1.9
	c-15-6.1-29.6-13-44.8-18.8c-12.1-4.6-24.5-8.4-37.2-10.9c-2.3-0.5-3.2-1.4-3.8-3.6c-7.8-30.3-35.2-53.1-66.3-55
	c-32.1-2-60,14.5-73.6,43.6c-0.9,2-2,2.7-4.2,2.7c-37.1,1.1-73.4,7-109,17.3c-25.2,7.3-49.8,16.3-74.2,25.8c-1.3,0.5-2.5,1-4.1,1.5
	C69,342.9,69.4,340.5,69.5,338.1z M483.9,399c-2.1,8.6-4.5,17.2-7.7,25.5c-4.3,11.5-9.4,22.8-15.9,33.3c-0.6,1-1.4,1.9-2.1,2.9l0,0
	l0,0c-1.7,4.4-4.7,8.1-7.3,11.9c-8.3,12.2-18.2,23.1-29,33.1c-12.2,11.4-25.7,21.2-40.3,29.3c-17,9.5-34.9,16.5-53.8,21
	c-11.2,2.7-22.5,4.4-34.1,5.2c-4.9,0.3-9.9,0.5-14.8,0.6c-6.8,0.2-13.7-0.3-20.5-1c-18.8-1.8-37.1-6.1-54.8-12.9
	c-22.7-8.7-43.3-20.9-61.7-36.8c-34.5-29.8-57.2-66.9-68-111.2c-0.6-2.3,0.1-3.1,2.1-3.9c20.3-7.7,40.8-14.6,61.7-20.3
	c1.1-0.3,2.1-0.6,3.2-0.8c19.8-5.4,39.9-9.5,60.3-12.5c13.6-2,27.3-3.4,41-4.4c5.3-0.4,10.6-0.5,15.9-0.9c1.7-0.1,2.2,0.8,2.8,2
	c9.4,20,24.4,33.9,45.6,40.4c25.5,7.8,48.8,2.9,69.6-13.7c5.6-4.5,10.3-9.7,14.2-15.7c1-1.5,1.9-2,3.8-1.6
	c26.1,5.4,51.5,13.3,76.4,22.6c3.8,1.4,7.6,3.1,11.5,4.3C484.2,396.3,484.3,397.3,483.9,399z M484.8,392.3
	c-13.6-5.4-27.3-10.3-41.3-14.8c-17.1-5.5-34.4-10-52-13.6c-1.8-0.4-2.3,0.5-3,1.6c-5.6,9.1-12.8,16.6-21.8,22.4
	c-9.7,6.2-20.3,9.9-31.9,10.8c-16.6,1.4-31.7-2.6-45.4-11.8c-11.9-7.9-20.3-18.8-25.7-31.9c-0.8-1.9-1.8-2.2-3.5-2.1
	c-8.5,0.5-17.1,0.8-25.6,1.6c-11.2,1-22.4,2.2-33.5,3.8c-15.3,2.2-30.4,5.2-45.5,8.5c-5.6,1.3-11.1,3.3-16.7,4.7
	c-7.1,1.7-13.9,3.9-20.9,5.9c-1.2,0.3-2.3,1.2-3.7,1.1c0,0,0,0-0.1,0h0.1c-6.9,2.3-13.8,4.6-20.7,7c-6.7,2.3-13.4,4.5-19.8,7.4
	c-1.6,0.7-1.9,0-2.3-1.3c-1.1-4.3-1.7-8.7-2.4-13c-1.4-8.5-0.9-17-1-25.5c0-1.9,0.6-2.9,2.5-3.6c4.7-1.7,9.2-3.9,14-5.4
	c10.1-3.9,20.3-7.6,30.5-11.2c11.6-4,23.2-7.9,35.1-11c14.8-3.9,29.6-7.6,44.6-10.2c11.7-2,23.4-3.7,35.2-4.7
	c7.4-0.6,14.8-1.3,22.2-1.6c3-0.1,6-0.4,9-0.4c1.4,0,1.9-0.7,2.3-1.9c5.8-14.6,15.4-26,28.6-34.2c8.6-5.3,18-8.6,28.1-9.8
	c18.9-2.2,36,2.4,51.1,13.9c13.4,10.2,22,23.7,25.8,40.2c0.5,2.3,1.5,3.2,3.7,3.6c22.1,4.2,43,12.3,63.5,21.4
	c8,3.5,16,6.9,24.1,10.2c1.5,0.6,2.3,1.4,2.3,3c0.5,13.4,0.1,26.6-3.1,39.7C487.1,393.2,486,392.8,484.8,392.3z"/>
</svg>
