<?xml version="1.0" encoding="utf-8"?>
<!-- Generator: Adobe Illustrator 21.0.0, SVG Export Plug-In . SVG Version: 6.00 Build 0)  -->
<svg version="1.1" id="Layer_1" xmlns="http://www.w3.org/2000/svg" xmlns:xlink="http://www.w3.org/1999/xlink" x="0px" y="0px"
	 viewBox="0 0 720 720" style="enable-background:new 0 0 720 720;" xml:space="preserve">
<style type="text/css">
	.st0{fill:#FAD902;}
	.st1{fill:#51AE6A;}
	.st2{fill:#D2543E;}
	.st3{fill:#BED995;}
	.st4{fill:#3A4A50;}
	.st5{fill:#0474B6;}
	.st6{fill:#005C50;}
	.st7{fill:#D4B263;}
	.st8{fill:#238843;}
	.st9{fill:#232220;}
	.st10{fill:#CB6869;}
	.st11{fill:#EB7780;}
	.st12{fill:#FFFFFF;}
	.st13{fill:#F4C19C;}
	.st14{fill:#E7918B;}
	.st15{fill:#8E2F2E;}
	.st16{fill:#FCD940;}
	.st17{fill:#E03B45;stroke:#1B1918;stroke-width:0.7501;stroke-linecap:round;stroke-linejoin:round;}
	.st18{fill:#C7946D;}
	.st19{fill:#F4F8F0;}
	.st20{fill:#82A13D;}
	.st21{fill:#035D58;}
</style>
<path class="st0" d="M345,455.5c-0.1-0.6-0.3-0.9-0.3-1.1c0-0.9,0.2-1.7,0.2-2.6c0-1.3,0.1-2.8-1.3-3.4c-1.2-0.6-2.4,0.1-3.3,0.8
	c-0.9,0.6-1.7,1.4-2.5,2.1c-0.4,0.3-0.8,0.7-1.5,1.2c-0.2-1.3-0.3-2.2-0.5-3.1c-0.5-2-2-2.7-3.7-1.5c-1.3,0.9-2.6,2-3.6,3.2
	c-3.1,3.4-5.5,7.3-7.7,11.3c-0.5,0.9-1.1,1.8-1.7,2.9c-0.4-0.4-0.7-0.5-0.8-0.8c-4.8-8.9-12.5-14.1-21.9-17
	c-12.5-3.8-24.5-2.4-36.1,3.6c-5.6,2.9-10.4,6.7-14.8,11.2c-4.6,4.8-8.5,10.2-11.8,16c-0.3,0.5-0.5,1-0.7,1.5c-0.1,0.2,0,0.4,0,0.6
	c0.4,0.5,1,0.6,1.4,0c0.6-0.8,1-1.7,1.5-2.5c3.4-5.8,7.5-11.2,12.4-16c6.8-6.6,14.6-11.4,23.8-13.6c12.5-2.9,24.2-1.2,35,6.1
	c4.1,2.8,7.4,6.4,9.7,10.9c0.9,1.7,0.9,3.1,0.1,4.9c-4.8,10.4-8,21.4-10.3,32.6c-0.2,0.9-0.3,1.7-0.4,2.6c0,0.5,0.1,1,0.7,0.9
	c0.3,0,0.8-0.5,0.8-0.8c0.9-3.9,1.7-7.9,2.7-11.8c2.5-9.8,5.9-19.1,10.5-28.1c2.2-4.3,4.6-8.4,7.7-12.1c1-1.3,2.2-2.4,3.4-3.5
	c0.4-0.4,1.1-0.6,1.6-0.9c1.1,0.9,1,2.1,0.9,3.1c-0.2,2.5-0.5,5-0.8,7.5c-0.4,2.5-1,4.9-1.5,7.4c-0.1,0.6-0.3,1.3-0.3,1.9
	c0,0.3,0.3,0.5,0.4,0.8c0.3-0.2,0.9-0.4,1-0.6c0.7-3.2,1.6-6.4,2-9.6c0.5-4.2,3-6.9,6.2-9.2c0.3-0.2,0.8-0.3,1.1-0.4
	c0.9,0.5,0.8,1.2,0.7,1.8c-0.3,3.1-0.6,6.3-1,9.4c-0.4,2.8-1,5.6-1.5,8.4c-0.1,0.7-0.1,1.3,1,1.5c0.2-0.6,0.6-1.3,0.8-2
	c0.5-2.6,1-5.1,1.4-7.7c0.2-1.5,0.7-2.8,1.8-3.7c1.3-1.1,2.6-2.3,4-3.3c0.3-0.2,0.8-0.2,1.2-0.3c0.5,1.3,0.1,2.5-0.2,3.6
	c-2.3,10-4.5,20-6.8,29.9c-3.3,14.1-6.5,28.2-9.8,42.3c-1.5,6.1-3.3,12.2-5.1,18.2c-0.5,1.8-1.3,3.5-2,5.2c-0.5,1.2-1.1,2.3-2.3,3.3
	c-0.7-0.3-1.4-0.6-2.1-0.9c-4.9-2.4-9.5-1.9-13.9,1.2c-1.5,1.1-3,2.2-4.5,3.4c-3.5-0.8-7-1.6-10.5-2.4c-15.5-3.7-30.9-7.3-46.2-11.7
	c-5.4-1.5-10.6-3.4-15.7-5.6c-4.6-2-9.3-3.7-14-5.4c-1.4-0.5-2.4-1.4-3.4-2.4c-8.1-7.9-15.2-16.5-21.3-26
	c-4.3-6.6-8.2-13.4-11.4-20.6c-0.8-1.8-0.9-3.4-0.2-5.3c3.4-9.1,6.9-18.1,11.3-26.8c0.4-0.8,0.7-1.6,1-2.4c0.4-1.3-0.5-2.4-1.9-2.4
	c-0.9,0-1.8,0.1-2.6,0.4c-1.5,0.6-3.1,1.1-4.5,1.9c-3.5,2-6.9,4.1-10.4,6.2c-0.9,0.5-1.8,1.1-3,1.9c-4.4-13.3-6.9-26.7-8.8-40.3
	c5-4.6,9.9-9.1,14.7-13.6c1.3,0.3,1.7,1.3,2.3,2c3,3.6,6,7.2,9.6,10.3c0.6,0.6,1.4,1.1,2.1,1.5c0.1,0.1,0.6-0.1,0.8-0.3
	c0.1-0.1,0.1-0.5,0-0.6c-0.2-0.4-0.5-0.7-0.8-1c-5-4.3-9.2-9.3-13.1-14.5c-7-9.3-13.2-19.2-19.2-29.2c-7.6-13-14.7-26.2-21.5-39.6
	c-0.7-1.5-1.5-2.7-3.1-3.6c-2.2-1.2-2.2-3.8-0.3-5.4c0.4-0.4,0.9-0.6,1.4-0.9c1.2-0.9,1.3-1.2,0.9-2.8c-0.1-0.3-0.3-0.6-0.4-0.9
	c-0.4-1.4,0-2.2,1.4-2.8c0.6-0.3,1.2-0.4,1.9-0.6c0.5-0.2,1-0.3,1.5-0.6c0.9-0.5,1.3-1.3,0.9-2.2c-0.3-0.7-0.7-1.4-1-2
	c0.4-1.4,1.5-1.6,2.6-1.8c1.1-0.2,2.2-0.1,3.1-0.2c1-0.7,0.8-1.6,0.7-2.5c-0.1-3.5,0.9-4.3,4.3-3.2c0.7,0.2,1.4,0.6,2.1,0.8
	c2.7,0.8,3.6,0.6,5.3-1.6c1.1-1.4,2.3-1.6,3.5-0.2c0.8,1,1.6,2.1,2.1,3.3c1.1,2.7,3,4.8,5.4,6.4c3.1,2.1,6.1,4.2,9.2,6.2
	c17.3,11.1,33,24.2,46.7,39.6c0.5,0.6,1,1.1,1.6,1.6c0.2,0.2,0.7,0,1.1-0.1c-0.1-1.4-1.1-2.1-1.8-2.9c-4.9-5.7-10.3-11-15.9-16
	c-10-8.9-20.5-17.2-32-24.3c-3.1-1.9-6.1-4.2-9.2-6.3c-1.9-1.2-2.2-2.7-1.7-4.8c1.1-4,2.1-8,3-12c0.3-1.5,1.1-2.5,2.2-3.5
	c4.1-3.9,8.2-7.8,12.1-11.9c5.3-5.5,10.1-11.4,14.3-17.9c1.9-3,3.7-6.2,5.2-9.4c1-2.1,1.6-4.5,2.1-6.8c0.6-2.8-0.1-5.4-2.3-7.4
	c-1.3-1.2-2.5-2.4-3.9-3.4c-3.8-2.7-7.6-5.5-11.5-8c-12.6-8.1-25.6-15.3-38.5-22.8c-5.3-3-10.5-6.2-15.8-9.2c-1.8-1-2.6-2.3-3.1-4.3
	c-3.4-12.6-5.4-25.3-6-38.3c-0.1-2.9,0.1-5.9,0.3-8.8c0-0.7,0.4-1.4,0.6-2.3c0.8,0.2,1.6,0.3,2.2,0.6c10.1,3.9,20.1,8.3,29.9,13.1
	c17.5,8.5,34.4,18,50.4,28.9c6.3,4.3,12.4,8.8,18.3,13.7c4.8,4,9.4,8.1,13.4,12.9c0.3,0.4,0.8,0.7,1.1,1.1c0.8-0.1,1.2-0.5,0.8-1.1
	c-0.4-0.7-1-1.4-1.6-2.1c-2.5-2.6-5.1-5.1-7.6-7.7c-0.7-0.7-1.4-1.3-2.3-2.2c0.7-0.4,1.2-0.8,1.8-0.9c8.9-2.8,18.1-5,27.3-6.5
	c11.2-1.8,22.5-2.5,33.9-2c12.3,0.6,24.3,2.5,35.8,6.8c5.7,2.1,11.3,4.7,16.6,7.5c6.5,3.5,12.9,7.2,18.8,11.7
	c4.5,3.4,8.9,7.1,12.7,11.3c6.7,7.3,10.5,15.8,11.6,25.7c0.9,8.2,0.8,16.3,0.1,24.5c-0.4,5-0.7,10-1,15c-0.3,3.6,0.3,6.9,2.4,9.9
	c0.6,0.8,0.9,1.7,1.5,2.9c-0.3,0.2-0.6,0.3-0.9,0.5c-5.7,3.4-8.5,8.6-9.3,15c-0.6,4.7-0.1,9.4,1.3,13.9c0.5,1.4,1.1,2.8,1.8,4.2
	c1.4,2.5,3.6,4,6.5,4.9c-0.4,0.8-0.7,1.4-1.1,2c-3.1,4.8-7,8.9-11.3,12.6c-11.5,9.8-24.3,17.3-38.6,22.1c-4.6,1.5-9.3,2.1-14,3.1
	c-6.7,1.4-13.4,0.9-20.2,0.3c-7.8-0.7-15-3.5-22.2-6.4c-1.3-0.5-1.3-0.6-2.9-0.2c0.3,0.4,0.5,0.8,0.8,1c5.1,2.9,10.2,5.8,15.4,8.6
	c2,1.1,4.2,1.8,6.3,2.7c3.8,1.5,7.6,1.6,11.5,0.8c7.9-1.6,15.5-4.3,23-7.2c1.3-0.5,2.6-1,4-1.5c14.5-5,27.4-12.8,38.9-22.9
	c3.5-3,6.5-6.4,9.2-10.1c0.4-0.6,1-1.2,1.5-1.8c5.1,2.8,10.2,5.5,15.4,8.3c-0.4,0.6-0.6,1.1-1,1.5c-6.2,7.5-13.2,14.2-20.3,20.9
	c-1.7,1.6-3.3,3.1-5.4,4.7c-0.4-1.2-0.6-2.1-0.9-3c-0.1-0.3-0.5-0.4-0.7-0.6c-0.2,0.3-0.6,0.6-0.7,0.9c-0.1,0.6,0,1.3,0.2,1.9
	c2.7,14.1,8,27.1,16.2,38.9c5,7.2,11.2,13.3,18.7,18c3,1.9,6.1,3.8,9.2,5.7c2.5,1.6,5,3.1,7.4,4.8c1.8,1.3,3.6,2.9,5.2,4.5
	c3.7,3.8,5.6,8.5,6,13.8c0.3,3.8,0,7.6-0.8,11.4c-1.1,5.5-2.7,10.8-4.7,16c-0.1,0.2-0.2,0.4-0.4,0.5c-4.2,1.8-8.4,3.7-12.6,5.5
	c-0.8-0.2-0.8-1-1-1.5c-0.9-2-1.7-4-2.7-6c-0.6-1.1-1.5-2.2-2.4-3c-1.5-1.4-3.3-1.6-5.1-0.7c-1,0.5-1.9,1.1-2.7,1.8
	c-1,1-1.9,2.1-2.9,3.1c-3.7,4.1-7.4,8.3-11.1,12.4c-1.6,1.8-3.5,3.2-6,3.7c-2.3,0.5-3.8,2.1-4.7,4.2c-0.2,0.5-0.5,1-0.6,1.5
	c-1.1,4-3.6,6.9-6.8,9.3c-3,2.2-6,4.4-8.9,6.7c-3.3,2.7-6.5,5.5-9.7,8.2c-1.2,1-1.9,2.3-2.5,3.8c-1.5,3.7-3,7.5-4.6,11.2
	c-0.5,1.1-0.9,2.2-1.4,3.3c-3.7,0.1-6.9,1.3-10.2,2.4c-2.1,0.7-4.2,1.2-6.3,1.8c-1.1,0.3-2.2,0.2-3.1-0.4c-1.6-0.9-3.1-2-4.5-3.2
	c4-6.6,5.9-13.8,7.7-20.9c2.5-9.8,4.7-19.7,7-29.6c3.5-15,7-29.9,10.4-44.9c0.5-2.1,0.9-4.3,1.3-6.4c0.1-0.5,0.2-1.1,0.2-1.6
	c0.1-1.7-1.2-2.7-2.8-2.1c-1,0.4-1.9,1-2.8,1.6C346.5,454.3,345.8,454.9,345,455.5z M384.6,285c-0.1-4.5-0.5-8.9-2.2-12.9
	c-0.7-1.7-1.6-3.3-2.7-4.8c-1.6-2-3.8-2.7-6.4-2.2c-2.5,0.5-4.7,1.7-6.4,3.7c-1.5,1.7-2.6,3.8-3.4,5.9c-1.3,3.5-1.8,7.2-1.7,10.9
	c0.1,3.2,0.5,6.3,1.7,9.3c0.9,2.2,2.1,4.3,4,5.8c4.1,3.3,9.7,2.8,13.1-1.3c1.2-1.4,1.9-3.1,2.6-4.9
	C384.3,291.4,384.4,288.1,384.6,285z M273.4,288c2.1-0.3,4.3-0.4,6.4-1c7.1-1.9,11.4-6.5,13-13.6c0.6-2.8,0.5-5.6,0-8.4
	c-2.1-11-11.6-18-22.6-16.5c-2.4,0.3-4.6,0.9-6.7,2.4c-7.1,5.3-10.2,12.3-9.4,21c0.6,7,4.4,11.9,11,14.5
	C267.8,287.5,270.6,287.9,273.4,288z M334.4,313.8c-0.7,1.1-1.2,1.8-1.7,2.5c-1.3,1.9-3.1,3.3-5.2,4.3c-6.4,2.9-13.9,1.4-18.5-3.9
	c-0.9-1-1.6-2.1-2.3-3.1c-0.4-0.5-0.8-1-1.1-1.5c-1,1-1,1-0.7,1.6c1.9,3.6,4.5,6.4,8.1,8.2c0.9,0.4,1.7,0.9,2.5,1.3
	c0.1,0.6,0.1,1.1,0.2,1.5c0.3,5,1,10,2,14.9c0.7,3.4,1.5,6.8,3.2,9.9c0.7,1.3,1.6,2.6,2.7,3.6c1.6,1.6,3.7,1.9,5.7,0.8
	c1.2-0.6,2.4-1.5,3.4-2.5c2.4-2.2,4.2-5,5.8-7.8c3.1-5.1,5.5-10.6,7.8-16.1c0.4-1,0.8-2,1.2-2.8c1.6-0.3,3-0.5,4.4-0.9
	c1.7-0.5,3.2-1.4,4.1-3c0.3-0.6,0.3-1.3-0.9-1.3c-2.2,3-5.4,3.5-9,3.2c-1.7-0.2-3.1-0.8-4.5-1.7c-2-1.2-3.6-2.8-5.1-4.5
	C335.9,315.6,335.3,314.9,334.4,313.8z M266.7,312.2c0.2-12.5-6.1-20.4-16.6-22.2c-12-2-19.8,4.4-22.9,13.3
	c-1.6,4.4-1.9,8.9-0.9,13.5c1.7,7.6,6.1,12.9,13.8,15c1.6,0.4,3.2,0.7,4.8,0.8c5.6,0.2,10.6-1.3,14.7-5.1
	C264.3,322.9,266.5,317.1,266.7,312.2z M336.7,296.5c-1.9,0-3.8-0.1-5.6,0c-1.1,0-1.6,1.1-1,2.1c0.1,0.2,0.2,0.4,0.4,0.5
	c1.9,2.2,4.1,3.9,6.4,5.5c0.8,0.5,1.6,0.5,2.5,0.3c2.3-0.6,4.5-1.6,6.5-3c0.5-0.4,1-0.8,1.5-1.2c0.9-0.9,0.7-2-0.5-2.6
	c-0.7-0.3-1.4-0.5-2.2-0.7C342.1,297.1,339.4,296.8,336.7,296.5z"/>
<path class="st0" d="M161.7,444.6c-0.9,0.4,2.4,7.5,1.4,8.1c-0.9,0.5-3.9-4.2-10.9-10.1c-1-0.8-1.8-1.5-2.4-1.9
	c3,4.9,6.1,9.8,9.1,14.6c-0.8-0.4-2-0.9-3.5-1.5c-2.5-1-3.6-1.1-4.9-1.6c-1.4-0.6-2.2-1.2-6.1-4.4c-8.1-6.8-10.3-9.2-13.6-12.2
	c-0.3-0.3-0.6-0.6-0.8-0.8c-0.1-0.3-0.1-0.4-0.1-0.5s0-0.2,0-0.3c7.1-17.2,14.3-34.4,21.4-51.5c-0.1-1.3-1.1-1.9-1.8-2.7
	c-11.2-12.2-22.5-24.3-33.7-36.5c-1.4-1.5-2.8-3-4.3-4.7c0.1-0.8,0.1-1.7,0.3-2.5c2.9-13.3,5.8-26.6,8.6-39.9
	c0.3-1.1,0.4-2.3,0.6-3.6c-33.9-29-67.6-57.9-101.5-86.9c2.8-47.4,5.7-94.8,8.5-142.1c1.2-0.4,1.4,0.6,1.8,1.1
	c4.8,6.6,9.6,13.2,14.4,19.8c11,14.7,21.8,29.6,32.7,44.5c0.5,0.7,1.1,1.4,1.5,2.1c4.4,7.4,9.6,14.3,14.9,21
	c4.3,5.4,8.7,10.6,13.3,15.7c8.1,9,16.2,17.9,24.6,26.7c4.8,5.1,10,9.7,15,14.6c12.4,12.1,25.1,23.9,37.9,35.6
	c0.8,0.7,1.5,1.5,2.2,2.2c-4.4,9.7-8.3,19.4-11.7,29.3c-3.3,9.8-5.7,19.9-8.3,30.2c-0.5-0.6-0.8-1-1.1-1.4c-0.7-0.9-1.3-2-2.2-2.8
	c-1.7-1.5-4-1.2-5.4,0.6c-0.1,0.2-0.2,0.4-0.3,0.6c-0.6,0.9-1.4,1.3-2.5,0.9c-0.7-0.2-1.4-0.5-2.2-0.7c-0.8-0.3-1.6-0.6-2.5-0.7
	c-2.9-0.5-4.6,1-4.8,3.9c0,0.6,0.1,1.3,0.1,2.1c-0.8,0.1-1.6,0.2-2.3,0.4c-0.8,0.2-1.7,0.4-2.5,0.8c-1.4,0.7-1.8,1.7-1.4,3.3
	c0.1,0.3,0.3,0.6,0.4,0.9c0.1,0.3,0.1,0.6,0.2,1.1c-0.6,0.3-1.2,0.5-1.8,0.7c-0.8,0.3-1.6,0.6-2.4,1.1c-1.3,0.9-1.9,2.1-1.5,3.7
	c0.2,0.6,0.4,1.2,0.6,2c-0.6,0.5-1.2,0.9-1.8,1.4c-2.7,2.4-2.6,6.1,0.4,8c1.4,0.9,2.2,2,2.9,3.4c6.5,13,13.4,25.7,20.7,38.2
	c0.9,1.5,1.3,2.9,1.3,4.6c0,11.8,0.8,23.5,2.1,35.2c1.8,16.1,4.4,28.3,6,34.1c0.4,1.5,0.8,2.8,1.1,3.7
	C164.6,447.4,162.3,444.3,161.7,444.6z"/>
<path class="st1" d="M401.5,562.6c1,0.1,1.8,0.4,2.4,0.3c7-1.8,13.9-3.6,20.8-5.5c3.1-0.8,6.3-1.8,9.4-2.8c0.7,1,0.3,1.9,0.1,2.8
	c-0.6,4.4-0.3,8.7,1.1,12.9c1.6,5,4.5,9.2,8.5,12.5c0.8,0.7,1.7,1.4,2.7,2.2c-0.6,0.6-1.1,1.1-1.7,1.6c-3.9,3.1-7.9,6.2-11.8,9.4
	c-0.9,0.7-1.7,1.7-2.5,2.6c-0.1,0.2,0,0.7,0.1,0.8c0.2,0.2,0.6,0.2,0.9,0c0.4-0.2,0.7-0.5,1-0.8c5-4.6,10.5-8.5,15.9-12.6
	c0.3-0.2,0.6-0.3,1-0.5c0.9,2.7,1.4,5.5,2.9,7.9c1.6,2.4,3.7,4.2,6.1,5.8c-0.6,1.3-1.6,1.9-2.6,2.6c-3.1,2.4-6.3,4.7-9.5,7
	c-0.5,0.4-1.1,0.8-1.5,1.3c-0.2,0.2,0,0.7,0,1.1c0.4,0,0.7,0.1,0.8,0c0.7-0.4,1.3-0.8,1.9-1.2c3.4-2.4,6.7-4.8,10-7.3
	c0.2,0.1,0.5,0.1,0.6,0.2c2.3,4.3,1.6,3.7,6.2,8.1c-0.6,0.8-1.2,1.7-1.9,2.5c-0.7,0.8-1.5,1.6-2.2,2.5c-0.9,1.1-1.8,2.2-2.6,3.3
	c-0.9,1.3-1.3,2.8-1.2,4.3c0,0.6,0.2,1.2,0.9,1.1c0.2,0,0.6-0.6,0.6-0.9c0.2-3.5,2.2-5.7,4.6-7.7c1.4,2.2,2.8,4.3,4.2,6.4
	c0-0.1,0,0.1,0,0.1c-4.1,3.2-8.4,6.2-13.4,7.8c-6.6,2.1-13.4,3.7-20.2,5.2c-18,3.9-36.1,7.2-54.3,9.9c-8.3,1.3-16.6,2.4-24.9,3.5
	c-1.2,0.2-2.4,0.2-3.6,0.3c-0.6-0.6-1.3-1.2-1.9-1.8c-6.4-7.3-10.5-15.7-12.3-25.2c-2.2-11.7-0.9-23.2,2.3-34.5
	c0.8-2.8,1.9-5.5,3.3-8.1c4-7.3,7-15,10-22.7c1.6-4.1,3.4-8.3,5-12.4c0.9-2.3,2.2-4.1,4.1-5.8c5.1-4.4,10.3-8.7,15.8-12.6
	c1.5-1.1,2.9-2.3,4.2-3.6c1-1,2.1-1.4,3.5-1.5c2.1-0.1,4.1,0.3,6,1.2c2.4,1.2,4.4,2.8,6.1,4.8c2,2.3,3.5,5,4.7,7.8
	c1,2.4,1.2,4.7,0.6,7.3C400.8,548.8,400.3,555.5,401.5,562.6z"/>
<path class="st2" d="M385.7,199.2c0.3-0.2,0.6-0.4,1-0.6c14.5-7.6,29.6-13.2,45.8-15.9c12.2-2,24.5-2.6,36.8-1.8
	c7.5,0.5,15,1.2,22.4,2.3c20.8,3.1,41,8,60.3,16.4c2.9,1.3,5.7,2.7,8.5,4.1c0.6,0.3,1.1,0.7,1.8,1.1c-0.3,0.7-0.4,1.5-0.7,2.1
	c-2.9,4.9-6.7,9.1-11,12.8c-1.1,1-2.5,1.4-3.9,1.3c-2.6-0.2-5.2-0.3-7.8-0.6c-10.3-1.1-20.5-2.4-30.8-3.5
	c-14.4-1.5-28.9-2.8-43.4-2.3c-8.2,0.3-16.3,1.2-24.4,2.4c-17.2,2.5-34,6.4-50.9,10.3c-1,0.2-2.1,0.4-3.2,0.6
	c-0.2-0.5-0.4-0.8-0.4-1.1c0.6-8.2,0.2-16.3-0.3-24.5c0-0.8-0.1-1.5-0.1-2.3C385.5,199.7,385.6,199.5,385.7,199.2z"/>
<path class="st3" d="M349.4,559.2c-0.2,0.8-0.3,1.3-0.5,1.8c-2.7,6.6-5.5,13.3-9,19.6c-0.7,1.2-1.2,2.5-1.7,3.9
	c-3.2,9.7-4.8,19.7-4.2,29.9c0.8,14.6,6.1,27.3,16.7,37.6c0.5,0.5,1.1,1,1.7,1.5c0.2,0.1,0.7,0.2,0.9,0c0.2-0.1,0.3-0.6,0.2-0.8
	c-0.1-0.5-0.4-0.9-0.8-1.6c2.7-0.3,5.2-0.6,7.6-0.9c0.3,5.2-2.9,9-7.7,9.2c-1.8,0.1-3.7-0.2-5.5-0.5c-4.3-0.9-8.2-2.8-12.3-4.3
	c-1.3-0.5-2.7-0.9-4.1-1.1c-2.5-0.4-5,0-7.4,1c-1.8,0.7-3.6,1.4-5.5,2c-2.5,0.8-4.9,0.7-7.4,0c-5.2-1.5-9.8-4.1-13.8-7.8
	c-3.6-3.4-6.5-7.3-8.8-11.7c-4-7.4-6.4-15.2-7.5-23.5c-0.4-3.1-0.6-6.3-0.7-9.4c-0.2-3.4,0.6-6.7,1.8-9.9c1.4-3.6,3.1-7,5.1-10.2
	c4.9-7.8,10.6-14.9,17.4-21.1c1.9-1.8,4-3.4,6.1-4.8c3.7-2.6,7.8-2.7,11.7-0.6c1.9,1,3.8,2.2,5.5,3.5c2.9,2.4,6,2.8,9.5,1.5
	c2.8-1,5.6-1.8,8.4-2.7C346.4,559.2,347.7,558.9,349.4,559.2z"/>
<path class="st4" d="M642.1,289.9c-2.2,0.4-4,0.8-5.8,1.1c-14.2,2.7-28.4,5.5-42.3,9.8c-3.6,1.1-7.2,2.5-10.7,3.9
	c-1.6,0.6-3,1.7-4.5,2.6c-0.4,0.3-0.7,0.8-1.1,1.4c0.8,0.5,1.3,1,2,1.3c4.4,2,8.8,3.9,13.1,5.9c4.5,2.1,9,4.3,13.5,6.5
	c0.8,0.4,1.4,0.9,2.1,1.3c-0.4,0.9-1,0.6-1.5,0.6c-6.3-0.1-12.6-0.3-18.9-0.4c-6.6-0.1-13.3-0.3-19.9,0.4c-1.5,0.2-3,0.3-4.3,1.1
	c-0.3,0.7-0.1,1.2,0.4,1.4c2.1,0.9,4.2,1.7,6.4,2.5c1.5,0.6,3,1.2,4.6,1.8c0.3,0.1,0.6,0.5,1.2,1c-3.9,0.5-7.5,0.9-11,1.4
	c-4.4,0.7-8.8,1.7-13.1,2.5c-0.8,0.2-1.7,0.3-2.3,1.1c0,0.8,0.5,1,1,1c2.3,0.4,4.5,0.8,6.8,1.2c3.2,0.6,6.4,1.4,9.5,2
	c0.2,1-0.4,1-0.9,1.2c-5.8,1.3-11.7,2.6-17.5,4c-1.9,0.4-3.8,1.1-5.7,1.6c-0.6,0.2-1.3,0.4-1.9,0.2c-1.6-0.3-3.2-0.8-5-1.3
	c0.6-0.6,0.9-1.1,1.4-1.5c1.9-1.8,3.9-3.5,5.7-5.4c3.4-3.4,5.8-7.3,7.1-11.9c0.5-2,1.1-4,1.7-5.9c0.4-0.1,0.8-0.2,1-0.2
	c3.8,0.5,7.1-0.7,10.2-2.7c2.9-1.9,5.2-4.3,7.3-6.9c7.9-9.8,11.2-21,10.7-33.4c-0.2-3.7-0.5-7.4-1.6-11c-0.6-1.8-1.2-3.5-2.1-5.1
	c-1.7-3-4.2-3.9-7.5-2.7c-1.3,0.5-2.5,1.2-3.7,1.8c-0.5-0.7-0.1-1.1,0.1-1.6c1.4-2.9,2.9-5.9,4.9-8.5c0.3-0.3,0.4-0.7,0.5-1.1
	c0-0.1-0.1-0.4-0.3-0.5c-0.1-0.1-0.4-0.1-0.6-0.1c-0.4,0.2-0.8,0.5-1,0.8c-0.9,1.2-1.8,2.5-2.5,3.8c-1.5,2.7-2.8,5.4-4.1,8.2
	c-0.5,1-0.9,1.9-1.4,2.9c-0.8,0-0.7-0.6-0.7-0.9c0.1-8.1-1-16.1-2.4-24.4c0.8,0.6,1.4,1,2.3,1.6c0.2-0.7,0.4-1.1,0.4-1.4
	c0-1,0-2-0.3-2.9c-0.6-2.2,0-3.9,1.1-5.9c3.5-6.2,6.9-12.6,10.4-18.9c0.2-0.3,0.4-0.5,0.7-0.9c4,1.1,7.9,2.9,11.9,4.3
	c3.9,1.4,7.8,2.8,11.7,4.3c4,1.4,7.9,2.9,11.8,4.8c-0.5,0-0.9,0.1-1.4,0.1c-3.3-0.3-6.5-0.7-9.7-1c-4.1-0.4-8.3-0.6-12.4-0.9
	c-0.8-0.1-1.5,0-2.3,0.1c-0.4,0.1-0.7,0.4-1,0.5c0.2,1.3,1.2,1.3,1.9,1.7c5.8,2.7,11.7,5.3,17.5,8.1c6.1,2.9,12,6.3,17.5,10.1
	c0.9,0.6,1.7,1.3,2.3,2.3c-0.7-0.1-1.4-0.2-2-0.3c-5.9-1.5-11.8-3.1-17.7-4.5c-2.5-0.6-5.2-0.8-7.7-1.2c-0.4-0.1-0.9,0-1.2,0.2
	c-0.2,0.2-0.3,0.7-0.2,1.1c0.1,0.2,0.5,0.4,0.8,0.6c7.3,4.1,13.6,9.5,19.7,15c7.8,7,15.2,14.4,21.9,22.4c2.2,2.7,4.2,5.5,6.3,8.3
	C641.4,288.5,641.6,289,642.1,289.9z"/>
<path class="st0" d="M383.5,229.4c-0.4-0.4-0.8-0.7-1.1-1.1c-4.5-5.8-9.9-10.7-15.8-15c-4.3-3.1-8.9-5.9-13.4-8.8
	c-1-0.6-1.7-1.3-2-2.4c-2.3-7.7-4.6-15.4-6.9-23.1c-2-6.8-3.7-13.6-4.8-20.6c-0.1-0.5-0.2-1.1-0.3-1.6c-0.2-2.8-0.9-5.7-0.5-8.4
	c0.4-2.6,1.8-5.1,2.8-7.6c3.2-7.7,6.6-15.4,10.7-22.7c1.6-2.8,3.3-5.6,5.1-8.3c1-1.4,2.1-2.8,3.3-4c0.8-0.9,1.7-1.7,3.2-1.8
	c0.3,0.4,0.7,0.9,0.8,1.5c1.3,4.6,2.6,9.2,3.9,13.8c0.9,3.3,1.8,6.5,2.6,9.8c0.3,1,0.4,2.1,0.5,3.2c0,0.3,0,0.7,0.1,0.9
	c2.9,7.9,4.1,16.2,5.7,24.4c1.7,8.9,3.2,17.8,4.4,26.7c1.9,13.8,2.8,27.7,2.2,41.7c0,1-0.1,1.9-0.3,2.9
	C384,229,383.7,229.1,383.5,229.4z"/>
<path class="st5" d="M576.5,555.9c-0.2-0.3-0.3-0.5-0.5-0.8c-3.3-6.5-6.5-13-9.8-19.6c-0.7-1.5-1.3-3-2-4.5
	c-1.4-3.2-1.7-6.5-1.2-9.9c0.9-5.7,1.8-11.4,2.7-17.1c0.8-5.2,1.7-10.3,1.8-15.6c0-1.5-0.1-3-0.3-4.6c0-0.3-0.5-0.4-1.1-0.8
	c-0.1,0.8-0.3,1.4-0.3,1.9c0.3,5.6-0.7,11.1-1.5,16.6c-0.8,5.6-1.8,11.2-2.7,16.8c-0.1,0.6-0.2,1.3-0.3,1.9c-0.7,5,0,9.7,2.4,14.3
	c2.5,4.8,4.9,9.7,7.3,14.6c0.7,1.5,1.4,3,2.2,4.4c2.3,4.3,3.7,8.7,4.3,13.6c1.4,10.6,3,21.1,4.7,31.7c3.8,23.5,7.6,47.1,13.5,70.2
	c0.1,0.5,0.2,1.1,0.3,1.8c-1.4,0.7-2.9,1.3-4.5,1.7c-8.3,2.1-16.8,3.7-25.3,5.1c-11.7,1.9-23.5,3.2-35.3,4.4
	c-8.2,0.8-16.5,1.4-24.7,2.2c-13.3,1.3-26.7,2.4-40,4.3c-1.6,0.2-3.2,0.4-4.8,0.5c-0.2-0.3-0.4-0.5-0.4-0.7
	c0.4-20,0.9-40.1,1.3-60.2c0.7-0.5,1.3-1.1,2-1.6c2.6-1.8,5.2-3.6,7.8-5.4c1.4-1,2.8-2.1,4.1-3.2c4.8-4.2,4.5-4.3,5.1-9.3
	c0.4-2.6,0.6-5.2,0.8-7.8c0.1-2.5,0-5-1.3-7.4c1.3-1.6,1.3-3.6,1.5-5.6c0.6-6.4,1.2-12.8,1-19.2c0-1.8-0.3-3.7-0.4-5.8
	c1.2-1.7,1-3.7,0.5-5.9c-1.5-6.6-2.8-13.2-4.3-19.8c-0.3-1.4-0.4-2.8,0-4.2c0.5-2.1,0.3-4.1-0.5-6.1c-2.4-5.8-4.8-11.7-7.2-17.5
	c-0.9-2.2-2.1-4.3-4.4-5.6c0.2-2.4,0.4-4.6,0.6-6.9c0.5-4.5,1-9.1,1.3-13.7c0.1-1.7,0.8-2.8,2.2-3.7c27.2-17,55-32.7,84.5-45.4
	c11-4.7,22.2-8.9,33.7-12.5c2.1-0.6,4-0.6,6,0.1c3.9,1.4,7.7,3,11.5,5c-0.9,3.2-2.5,5.9-3.6,8.8c-1.1,3-2.4,5.8-3.5,8.8
	c-1.1,2.9-2.2,5.9-3.3,8.9c-1.1,3.1-2.1,6.2-3.1,9.3c-1,3-1.9,6-2.8,9c-0.9,3-1.8,6.1-2.6,9.1s-1.5,6.1-2.3,9.2
	c-0.7,3.1-1.5,6.1-2.1,9.2c-0.7,3.1-1.2,6.2-1.8,9.3s-1.1,6.2-1.6,9.3c-0.5,3.2-1,6.5-1.3,9.7c-0.4,3.1-0.7,6.3-1,9.4
	c-0.3,3.2-0.5,6.3-0.8,9.5c-0.2,3.2-0.4,6.3-0.5,9.5C576.8,555.7,576.7,555.8,576.5,555.9z M477.3,491.1c0,2.1,0.2,4,1,5.9
	c1.2,2.5,3.5,3.6,6.2,2.9c1.9-0.5,3.3-1.6,4.5-3.1c2.8-3.6,4.4-7.8,4.6-12.3c0-0.6,0-1.3-0.1-1.9c-0.1-0.5-0.4-1-0.7-1.4
	c-3.8-4-9.9-3.5-12.9,1.2C478.2,485,477.5,488.1,477.3,491.1z M380.3,647.4c-1.3,13.6-2.3,26.8-2.3,40.2c-0.9,0.1-1.5,0.3-2.1,0.3
	c-17,0-34-0.1-51-0.1c-0.5,0-1.1-0.1-1.8-0.2c-0.1-0.6-0.3-1.1-0.3-1.6c0-9.6,0-19.2,0-28.8c0-0.2,0.1-0.4,0.1-0.8
	c3.1-2,6.6-2.2,10.1-1c2.3,0.8,4.5,1.8,6.7,2.6c3,1.2,6.1,2.2,9.4,2.7c1.3,0.2,2.6,0.3,3.9,0.1c3.8-0.4,6.5-2.4,8-5.9
	c0.4-1,0.7-2.1,1-3.1c0.2-0.7,0.4-1.4,0.7-2.3c5.2-0.8,10.4-1.6,15.5-2.3C378.8,647.4,379.4,647.4,380.3,647.4z"/>
<path class="st2" d="M576.2,211.2c-4.2-1.2-6.6-4.5-10-6.2c-0.1-0.7-0.1-1.2-0.2-1.7c-0.5-6.3-0.8-12.6-1.6-18.9
	c-1-8.5-2.3-17-3.7-25.5c-1.3-8.1-2.9-16.1-5-23.9c-1.1-4.1-3.2-7.3-6.4-10c-3.5-3-7.2-5.6-11.1-8.1c-9.7-6.2-19.8-11.5-30-16.5
	C497,94.9,485.6,89.7,474,84.9c-0.9-0.4-1.7-0.8-2.5-1.6c2.2,0.4,4.4,0.8,6.6,1.3c17.2,3.8,33.8,9.1,49.9,16.3
	c7,3.1,13.7,6.7,20.1,10.8c3.9,2.6,7.7,5.4,11.1,8.6c5.2,4.8,9.1,10.5,11,17.4c1.8,6.7,3.3,13.5,4.2,20.4c2.3,16.8,2.4,33.7,2,50.6
	C576.4,209.3,576.3,210.1,576.2,211.2z"/>
<path class="st6" d="M460.7,629.5c0.5,3.2-0.7,54-1.4,58.3c-0.6-0.1-1.2-0.2-1.8-0.3c-6.2-1.3-12.5-1.7-18.8-1.1
	c-6.5,0.7-13,1.4-19.5,2c-8.4,0.8-16.7,0.9-25-1c-4.6-1-9.2-1.8-14-0.7c-0.2-0.8-0.4-1.4-0.4-2c-0.1-7.5,0.4-15,0.9-22.5
	c0.3-4,0.7-8,1-12c0.1-1.1-0.1-2.2,0.7-3.4c2.4-0.4,5-0.9,7.5-1.3c17.1-2.8,34.1-5.9,50.9-9.9c4.9-1.2,9.7-2.6,14.5-4
	C457.1,631.1,458.9,630.2,460.7,629.5z M494.1,441c0.3,1.3-0.5,2.2-1,3.2c-3,7.1-6,14.2-9.1,21.3c-0.1,0.3-0.3,0.6-0.4,0.9
	c-0.6,3.5-2.8,5.6-5.9,7.2c-2.5,1.3-4.8,3-7.2,4.5c-0.8,0.5-1.6,1.1-2.4,1.6c-0.8,4.3-0.7,8.5-1.6,12.7c-1.3,0-2.4,0-3.6,0
	c-0.1-0.4-0.1-0.8-0.3-1.1c-0.4-1.4-0.8-1.9-2.1-2c-1,0-2,0-2.9,0.2c-2.7,0.6-5.3,1.2-8,1.8c-0.8,0.2-1.7,0.4-2.6,0.4
	c-2.4-0.2-4.8,0.1-7.1,0.7c-0.4,0.1-0.8,0.1-1.2,0.1c-0.7-0.7-0.2-1.3,0-1.9c1.5-4.6,3-9.3,3.8-14.2c0.7-4.3,1.1-8.6,0.4-13
	c-0.8-4.9-2.8-9.1-6.1-12.8c-2.1-2.3-4.5-4.2-7-5.8c-2.8-1.8-5.7-3.6-8.6-5.4c-1.2-0.7-2.4-1.5-3.7-2.3c0.2-1.8,0.9-3.4,1.6-4.8
	c0.9-0.3,1.4,0.3,1.9,0.6c2.5,1.7,5,3.5,7.6,5.1c5.5,3.4,11.4,5.3,17.8,6c6.5,0.8,13,0.6,19.6,0.1c8.9-0.6,17.8-1.9,26.6-3.3
	C493.3,440.9,493.7,441,494.1,441z M505.9,416.7c0,0.2,0.1,0.4,0.1,0.6c-3.5,7.1-6.9,14.3-10.4,21.5c-1.1,0.2-2.1,0.5-3.2,0.6
	c-7.8,1-15.5,2.2-23.3,3c-8.2,0.8-16.5,1.1-24.8-0.3c-3.7-0.6-7.2-1.7-10.6-3.3c-3.9-1.8-9.5-5.5-13.1-8.6
	c0.5-2.7,3.8-10.2,6.5-15.1c0.5,0.3,1.1,0.5,1.6,0.8c0.7,0.5,1.4,1.1,2.1,1.6c7.3,5.5,15.5,8.2,24.6,8.8c9.4,0.6,18.7-0.7,27.8-2.9
	c7-1.7,13.8-3.9,20.6-6.4c0.6-0.2,1.2-0.4,1.9-0.5C505.7,416.5,505.8,416.6,505.9,416.7z"/>
<path class="st0" d="M423.5,501c6.3-3.3,12.7-6.2,19.6-7.5c1.2-0.2,2.4-0.3,3.6-0.2c1.5,0.1,2.2,1.3,1.4,2.5
	c-0.9,1.6-1.9,3.2-3.2,4.5c-2.9,2.8-6,5.4-9,8.1c-0.6,0.6-1.4,1-2,1.6c-0.3,0.3-0.4,0.7-0.4,1.1s0.9,0.4,1.4,0
	c0.2-0.1,0.4-0.2,0.5-0.4c3.9-3,7.7-6.1,11-9.7c0.6-0.6,1.1-1.3,1.7-2c1.3-1.7,2.2-3.5,1.9-5.7c3.5-1.7,8.3-2.6,11.2-2.1
	c-0.3,0.6-0.5,1.3-0.8,1.7c-1.3,1.5-2.5,3-3.9,4.4c-2.5,2.5-5.1,5-7.7,7.5c-0.7,0.7-1.4,1.4-2,2c0.3,1,0.7,1.3,1.5,0.7
	c0.8-0.6,1.5-1.3,2.2-2c3.1-3.1,6.3-6,9.2-9.2c1.7-1.8,3.5-2.3,6.1-2c-0.6,0.8-0.9,1.5-1.4,2c-4.1,4.1-8.1,8.2-12.3,12.2
	c-11.3,11.1-22.6,22.1-33.3,33.7c-5.3,5.7-10.5,11.4-14.8,17.8c-0.1,0.2-0.4,0.2-0.7,0.5c-0.2-0.4-0.4-0.7-0.5-1
	c-0.5-7.3,0.2-14.6,2.4-21.6c1.1-3.5,2.9-6.4,5.6-9.1c6-6,9.9-13.2,11.9-21.4C423,505.5,423.1,503.4,423.5,501z"/>
<path class="st7" d="M172.9,288.6c0.8-4.5,2.2-8.2,3.5-12c3.2-9.7,6.8-19.3,11.3-28.2c1.1-0.4,1.5,0.3,2,0.6c2.5,1.9,5,3.8,7.6,5.7
	c0.5,0.4,1.2,0.5,1.8,0.7c0.1,0,0.4-0.2,0.5-0.4s0.1-0.4,0-0.6c-0.2-0.3-0.4-0.5-0.7-0.7c-6.8-4.5-12.9-10-19-15.4
	c-13.6-12.1-26.7-24.7-39.6-37.6c-0.5-0.5-0.9-0.9-1.3-1.4c0.6-0.7,1-0.1,1.4,0.1c14.7,8.5,29.4,17,44,25.7
	c4.7,2.8,9.1,5.9,13.6,9.1c1.8,1.2,3.4,2.8,5,4.2c2,1.7,2.8,3.9,2.2,6.4c-0.4,2-1,4-1.8,5.9c-1.6,4.1-3.9,7.8-6.4,11.4
	c-4.8,6.9-10.3,13.3-16.1,19.3c-2,2-4,4-6.1,5.9C174.4,287.7,173.8,288,172.9,288.6z"/>
<path class="st8" d="M426.1,156.2c0.8,0,1.6,0.1,2.4,0.1c3.1-0.2,6.3-0.5,9.5-0.7c10.2-0.8,20.4-1.3,30.7-1.4c7,0,13.9-0.1,20.9,0.8
	c0.3,0,0.6,0.1,1,0.1c4.1,0.6,4.7,1,6.6,5.4c-1.4,0.5-2.8-0.1-4.1-0.1c-1.5,0-3-0.1-4.6-0.2c-1.4-0.1-2.8-0.1-4.2-0.2
	c-1.5-0.1-3-0.2-4.6-0.3c-1.4-0.1-2.8-0.1-4.3-0.1s-2.8-0.1-4.3-0.1s-3,0-4.6,0c-1.4,0-2.8,0-4.3-0.1c-1.4,0-2.8,0-4.3,0
	s-3,0-4.6,0.1c-1.4,0-2.8,0-4.3,0.1c-1.5,0-3,0.1-4.6,0.1c-1.4,0.1-2.8,0.2-4.2,0.3s-2.8,0.1-4.2,0.2c-1.5,0.1-3,0.1-4.6,0.3
	c-1.4,0.1-2.8,0.3-4.2,0.4s-2.8,0.3-4.2,0.4c-1.5,0.1-3,0.3-4.5,0.5c-1.4,0.2-2.8,0.4-4.2,0.6c-1.5,0.2-3,0.4-4.5,0.6
	c-1.4,0.2-2.8,0.4-4.5,0.7c0.5-1,0.7-1.7,1-2.3c3.2-5,6.8-9.6,10.5-14.1c6.2-7.4,12.9-14.5,20.3-20.8c3.2-2.7,6.5-5.1,10.1-7.1
	c3.3-1.9,6.8-2.1,10.5-1.4c1.4,0.3,2.7,0.8,4,1.4c3.3,1.8,5.6,4.7,7.6,7.8c-0.9,0.5-1.4-0.2-1.9-0.4c-1.4-0.5-2.8-1.3-4.2-1.8
	c-3-1-5.8-0.6-8.5,0.9c-1.6,0.9-3.1,2-4.5,3.3c-2.9,2.6-5.7,5.4-8.4,8.2c-5.1,5.4-10,10.9-15,16.4
	C426.5,154.4,425.7,155,426.1,156.2z"/>
<path class="st2" d="M386.8,234.8c-1.5-2.1-1.5-2.1-0.9-4.9c0.6-0.2,1.3-0.4,2.1-0.6c14.2-3.3,28.4-6.7,42.8-9.2
	c11.2-2,22.4-3.5,33.7-4c5-0.2,10-0.1,15,0.1c7.7,0.4,15.4,1,23.1,1.7c6.8,0.6,13.6,1.5,20.5,2.2c6.4,0.7,12.8,1.4,19.2,2.1
	c1.1,0.1,2.2,0,3.3,0.2c3.3,0.5,5.9-0.8,8.2-3.1c3.8-3.9,7.6-7.8,10.1-12.7c0.1-0.2,0.3-0.3,0.4-0.5c2.4,0.8,4.7,2.3,7.6,5.1
	c-0.2,0.6-0.5,1.3-0.8,2c-1.6,3.3-3.5,6.5-5.8,9.4c-1.3,1.7-2.9,3.3-4.7,4.5s-3.7,1.7-5.9,1.3c-6-1.1-12-2.1-18-3
	c-7.2-1-14.5-1.8-21.7-2.6c-10.4-1.2-20.9-1.5-31.3-1.5c-9.6,0-19.1,0.5-28.7,1.4c-19.7,1.9-39,5.4-58.1,10.3c-2,0.5-4,1-6,1.4
	C389.4,234.8,388.1,235.2,386.8,234.8z"/>
<path class="st9" d="M459.5,224.5c1.4-0.9,2.7-0.8,4-0.8c17.7-1,31.2-1,35.8,0c0.2,1-0.7,1.5-1.2,2.1c-9.1,10.9-18.3,21.8-27.5,32.8
	c-2.7,3.3-5.5,6.5-8.2,9.8c-0.5,0.6-0.9,1.2-1.7,2.3c-0.3-1.4-0.5-2-0.5-2.6c-0.1-8-0.3-16.1-0.4-24.1c-0.1-5.1-0.3-10.2-0.4-15.3
	C459.5,227.2,459.5,225.8,459.5,224.5z"/>
<path class="st6" d="M406.3,560.3c0.1-1.3,1-2.1,1.6-3c3.6-4.3,7.2-8.7,11-12.9c9.8-10.7,20.1-20.8,30.4-30.9
	c1.2-1.2,2.5-2.4,3.7-3.6c0.7,0.5,0.3,1,0.1,1.5c-1,2.7-1.3,5.5-1,8.3c0.3,2.8,0.4,5.6,0.5,8.5c0.2,6.1-1.2,11.9-3.6,17.4
	c-0.6,1.4-1.4,2.4-2.9,2.9c-4.6,1.6-9.2,3.3-13.8,4.9c-8.1,2.6-16.2,4.9-24.5,6.7C407.4,560.1,406.9,560.2,406.3,560.3z"/>
<path class="st10" d="M190.1,506.2c-2,1.9-4.2,3.3-6.4,4.4c-4-1.6-25.4-12.4-27.6-13.9c0.7-3.3,2-6.5,3-9.9c1-3.3,2.1-6.6,3.2-10
	c1.1-3.3,2.1-6.6,3.2-10c-2-2-4.1-4.1-6.4-6.2c-2.7-2.5-5.3-4.8-7.9-7c2.2,1,4.4,1.9,6.6,2.9c1.6,0.7,3.2,1.5,4.8,2.2
	c-0.1-1.3-0.8-2-1.3-2.7c-0.8-1.4-1.5-2.4-1.8-2.8c-0.9-1.3-2.4-3.3-4.6-6.9c1,1.2,2.5,2.9,4.5,4.8c2.3,2.1,5.1,4.8,5.9,4.2
	c1.1-0.8-1.9-6.9-1.5-7c0.2-0.1,1,1.5,2.9,5c2.6,4.9,4,7.4,5,11.4v0.1c1.5,6.5,3.9,11.9,8.7,22.7
	C182.4,492.3,185.5,498.8,190.1,506.2z"/>
<path class="st2" d="M441.5,82.2c-0.5,0.2-0.9,0.5-1.4,0.7c-10.2,3.8-19.5,9.1-28.5,15.2c-12.9,8.8-24.8,18.8-35.9,29.8
	c-0.7,0.7-1.4,1.3-2.3,2.1c-1.2-3.6-1.9-6.9-2.8-10.4c1-0.9,1.9-1.8,2.8-2.7c4.9-4.4,10.1-8.2,15.6-11.9c11-7.4,22.5-13.7,34.9-18.4
	c5.1-1.9,10.3-3.5,15.7-4.5c0.6-0.1,1.3-0.2,1.9-0.3C441.5,82,441.5,82.1,441.5,82.2z"/>
<path class="st11" d="M393.2,305.5c6,9.9,6,25.4-0.2,34.7c-2,0.2-3.5-0.8-4.8-2.2c-1.2-1.3-2.1-2.8-2.6-4.5
	c-1.7-5.3-2.3-10.6-1.3-16.1c0.7-3.6,2.3-6.8,4.9-9.4C390.3,307,391.5,306,393.2,305.5z"/>
<path class="st7" d="M349.3,202c-5-2.4-9.4-4.6-14.1-6.9c-0.2-1.3-0.4-2.7-0.5-4.1c-0.5-10.1-1-20.2-0.3-30.3c0.2-2.7,1-5.1,2.3-7.4
	c0-0.1,0.2-0.1,0.4-0.1c0.6,3.6,1.1,7.3,1.8,10.9c1.7,8.9,4.4,17.5,7.1,26.1c0.9,2.9,1.8,5.8,2.7,8.7
	C348.9,199.8,349,200.7,349.3,202z"/>
<path class="st12" d="M451.6,153c-7.2,0.5-14.3,1-21.3,1.4c-0.3,0-0.6-0.1-1-0.3c0.1-0.4,0.2-0.7,0.4-0.9c6.3-7.2,12.7-14.3,19.7-21
	c0.5-0.5,1.1-0.9,1.7-1.4c0.3,0.2,0.5,0.4,0.5,0.5C452,136,452.1,149.8,451.6,153z"/>
<path class="st10" d="M172,461.5c5.3-3.7,10.5-7.1,16.3-9.6c1.1-0.5,2.2-1,3.6-0.7c-0.2,1.8-1.3,3.2-2,4.7c-0.7,1.7-1.6,3.3-2.4,5
	c-0.7,1.6-1.4,3.2-2.1,4.8s-1.3,3.2-2,4.8c-0.7,1.7-1.3,3.5-2,5.2c-0.7,1.6-1,3.3-2.2,5C176.3,474.3,173.9,468.1,172,461.5z"/>
<path class="st10" d="M170.4,395.6c2,2.9,4,5.6,5.9,8.3c-1.7,2.3-11.3,11.1-13.6,12.7c-0.2-0.1-0.4-0.2-0.5-0.4
	c-0.8-6-1.5-12.1-1.7-18.4C163.8,396.4,167.1,396.1,170.4,395.6z"/>
<path class="st9" d="M443.2,225.9c4.5-0.7,8.8-1.1,13.1-1.5c0,0.4,0.1,0.7,0,0.8c-6.3,8.3-12.6,16.6-18.9,24.9
	c-0.5,0.7-1.1,1.3-2,2.3c0-0.9,0-1.3,0.1-1.7C438.1,242.4,440.4,234.1,443.2,225.9z"/>
<path class="st13" d="M398.2,313.4c-1.6-5.8-4-10.8-6.9-15.6c-1-1.8-1.2-3.7-1.1-5.7c0.2-4.2,0.6-8.5,0.9-12.7
	c0.3-4.8,0.8-9.6,0.9-14.4c0.2-9.5-0.7-18.9-4.3-28.1c0.7-0.2,1.2-0.4,1.8-0.6c2.9-0.7,5.7-1.3,8.6-2c2.1-0.6,4.1-0.3,6.3,0.4
	c-0.4,0.5-0.6,1-0.9,1.3c-3.9,3.5-6.3,8-7.6,13.1c-1.3,5.4-1.5,11-1.8,16.5c-0.3,6.2,0.7,12.4,1.5,18.5c0.5,3.7,1.1,7.3,1.7,11
	c0.2,1.3,0.5,2.5,0.7,3.5c1.1,1,2.1,0.8,3.1,0.8c3-0.1,6.1-0.2,9.1-0.3c5.2-0.3,10.4-0.7,15.7-0.6c2,0,4.1-0.5,6.1-0.9
	c0.4-0.1,0.9-0.7,1-1.1c0.2-0.8,0.3-1.7,0.2-2.6c-0.3-6.1-0.5-12.2-1-18.3c-0.4-5.5-1.1-11.1-1.8-16.6c-0.4-3.6-1.1-7.1-1.7-10.6
	c-0.4-2.5-1.3-4.8-2.6-7c-0.2-0.3-0.3-0.7-0.5-1.2c3,0.4,6.2,1.6,9.7,3.5c-0.1,0.6-0.1,1.4-0.4,2.1c-0.9,3.1-1.9,6.2-2.9,9.4
	c-0.3,0.8-0.5,1.7-0.6,2.5c0,0.2,0.3,0.5,0.5,0.8c1.2-0.1,1.6-1.1,2.2-1.9c4.4-5.7,8.8-11.4,13.1-17.1c2.9-3.8,5.8-7.6,8.8-11.4
	c0.4-0.5,0.8-0.9,1.6-1.6c0.3,2.2,0.3,3.9,0.3,5.6c0,1.7,0.1,3.5,0.1,5.2s0,3.5,0.1,5.2c0,1.7,0,3.5,0.1,5.2c0,1.6,0,3.3,0.1,4.9
	c0,1.7,0.1,3.5,0.2,5.2c0,1.7,0.1,3.5,0.1,5.2s0,3.5,0.1,5.2s-0.2,3.4,0.3,5c0.8,0.4,1.3,0.1,1.6-0.3c0.6-0.6,1.1-1.3,1.7-2
	c12.7-15.1,25.4-30.2,38-45.3c0.6-0.7,1.1-1.3,1.8-2c2.9-0.2,5.8,0,9.2,0.6c-1.1,0.9-1.8,1.4-2.4,1.9c-3.9,3-7.8,6-11.5,9.1
	c-2.9,2.4-5.5,5-7.7,8c-0.8,1-1.7,2-1.7,3.4c0.4,0.6,0.9,0.7,1.4,0.3c0.8-0.6,1.5-1.2,2.3-1.8c5.3-4.3,11-8.2,17-11.5
	c0.6-0.3,1.2-1,2.3-0.6c-0.4,0.5-0.7,1-1.1,1.5c-1.6,2-2.7,4.2-3.6,6.6c-1,2.7-1.6,5.4-1.5,8.3c0.4,10.4,0.8,20.9,1.3,31.3
	c0.1,2.1,0.4,4.1,0.6,6.2c0.1,1.1,0.3,2.1,0.6,3.2c0.5,1.7,1,2.1,2.8,2c2.6-0.2,5.2-0.4,7.8-0.7c5.5-0.6,11.1-0.5,16.7-0.4
	c1.4,0,2.8,0.1,4.3,0c0.7,0,1.5-0.3,2.3-0.4c0.2-1,0.5-2,0.6-2.9c1.2-11,1.8-21.9,0.7-32.9c-0.5-5-1.7-9.9-3.8-14.5
	c-0.8-1.8-1.8-3.5-2.9-5.1c-2.5-3.7-6.2-5.7-10.6-6.4c-1-0.2-2.2,0-3.2-0.7c2.6-1.6,5-2.4,7.6-2c5.2,0.7,10.3,1.5,15.5,2.3
	c2.8,0.4,5.6,1.1,8.4,1.5c1.6,0.2,3.2,0.3,5,0.4c0.7,1.5,0.4,3.2,0.9,5c-1.3-0.3-1.3-1.3-1.8-1.8c-0.3-0.3-0.7-0.4-1-0.6
	c-0.2,0.4-0.5,0.7-0.5,1.1c0.1,1,0.4,1.9,0.6,2.9c1.9,9.2,3.2,18.4,3.2,27.9c0,4.2-0.6,8.2-1.4,12.3c-1.5,8.3-2.7,16.5-4,24.8
	c-1.3,7.6-2.6,15.3-4.5,22.7c-0.2,0.8-0.5,1.7-0.7,2.5c-1.2,4.6-3.6,8.6-7,12c-3.6,3.7-7.6,6.9-11.7,9.9
	c-10,7.1-20.6,13.1-31.6,18.4c-6.6,3.3-13.4,6.2-20.4,8.8c-3,1.1-5.9,1.3-8.9,0.6c-6.2-1.4-12.2-3.4-18-5.7
	c-18.9-7.3-37.2-16-55-25.8c-0.8-0.4-1.5-0.9-2.3-1.3c-0.2-0.1-0.3-0.3-0.6-0.6c0.5-1,1-2.1,1.5-3.1c3.3-6.4,4.7-13.1,4.2-20.2
	c-0.1-1.5-0.3-3-0.5-4.7c3.7-3.7,8-6.6,12.4-9.4c0.8,0.6,0.4,1,0.2,1.5c-1.2,2.7-2.5,5.3-3.7,8c-0.3,0.7-0.7,1.4-0.9,2.1
	c-0.1,0.4-0.1,0.9,0.1,1.2c0.4,0.5,1,0.2,1.4-0.1c0.6-0.4,1.2-0.9,1.9-1.3c5-3.4,10.1-6.8,15.2-10.3c0.5-0.4,1.1-0.7,1.5-1.2
	c0.1-0.2-0.1-0.7-0.2-1.3c-3.1,1.4-5.6,3.3-8.3,5c-2.6,1.7-5.2,3.5-8.2,5.6c0.1-0.8,0-1.1,0.2-1.5c1.1-2.5,2.3-5,3.4-7.4
	c0.3-0.7,0.7-1.4,0.9-2.1c0.1-0.4,0.1-0.9,0-1.2c-0.4-0.6-1-0.4-1.5-0.1c-0.8,0.4-1.6,0.8-2.3,1.2c-3.4,2.4-6.8,4.7-10.2,7.1
	C399.9,312,399.3,312.6,398.2,313.4z M465.6,326.8c-0.5,0-1.1,0-1.6,0c-4.8,0.1-9.6,0.4-14.2,1.5c-1.8,0.4-3.6,0.9-5.1,2
	c-1.8,1.3-2.1,3.1-0.6,4.7c1.1,1.2,2.4,2.2,3.8,3c4.8,2.8,9.9,4.9,15.3,6.3c3.7,1,7.5,1.3,11.3,0.4c4.9-1.2,9-3.8,12.1-7.8
	c2-2.7,1.4-5.2-1.5-6.8c-1.4-0.8-3-1.3-4.5-1.7C475.6,327,470.6,326.8,465.6,326.8z M466.9,307.4c0.2-0.8,0.3-1.2,0.3-1.6
	c-0.3-5.1-0.6-10.2-1-15.3c0-0.4-0.3-0.8-0.4-1.1c-0.3,0-0.6,0-0.7,0.1c-3.1,2.3-6.3,4.6-9.4,7c-0.8,0.6-1.3,1.5-1.8,2.3
	c-0.5,0.7-0.4,1.5,0.3,2.1c0.9,0.7,1.9,1.5,3,2C460.3,304.4,463.4,305.8,466.9,307.4z M511.6,306.8c2.6-2,4.7-3.8,7-5.5
	c4.6-3.4,5.3-3.8,7.7-4.2c-0.4,1-0.6,1.9-1,2.8c-1.8,3.6-3.6,7.2-5.4,10.8c-0.3,0.7-0.6,1.4-0.8,2.1c0,0.1,0.1,0.4,0.3,0.5
	c0.1,0.1,0.5,0.2,0.6,0.1c0.5-0.3,1.1-0.7,1.6-1.1c2.9-2.5,5.7-5,8.7-7.5c3.6-3,7.2-6,11.2-8.4c0.8-0.5,1.2-1.2,0.8-1.5
	c-0.6-0.5-1.3-0.2-1.8,0.1c-1.1,0.7-2.2,1.4-3.3,2.2c-3.6,2.8-7.2,5.7-10.7,8.5c-0.8,0.6-1.6,1.3-3,2.4c0.5-1.2,0.6-1.7,0.8-2.1
	c1.1-2.3,2.2-4.5,3.2-6.8c0.4-0.9,0.7-1.8,0.9-2.8c0.3-1.2-0.5-2-1.6-1.7c-0.7,0.2-1.5,0.4-2.1,0.8c-4.5,2.5-8.6,5.5-12.5,8.9
	c-0.3,0.3-0.6,0.6-0.8,1C511.1,305.8,511.4,306.1,511.6,306.8z M191.7,508.1c2.1,3,4.2,5.9,6.4,8.7c2.2,2.9,4.5,5.6,6.8,8.4
	c2.3,2.7,4.8,5.2,7.4,8.1c-4.3-0.4-8.1-1-11.8-1.2c-9.1-0.5-17.8,1.3-26.1,4.7c-0.3,0.1-0.6,0.3-0.9,0.4c-0.3,0.2-0.3,0.5,0.2,1.5
	c1.3-0.5,2.6-0.9,4-1.4c7.7-2.7,15.6-4,23.7-3.6c6.1,0.3,12.1,1.6,17.9,3.6c3,1,6,2.1,8.8,3.4c8.7,4.1,17.9,6.9,27.1,9.3
	c15,3.8,30,7.4,45,11.1c0.6,0.2,1.2,0.4,2,0.7c-0.7,0.8-1.1,1.3-1.6,1.8c-5.8,5.8-11,12.1-15.3,19.1c-2.1,3.3-3.9,6.8-5.3,10.5
	c-1.7,4.5-2.3,9-1.9,13.8c0.6,9.7,2.9,18.9,7,27.7c0.8,1.7,1.7,3.3,2.6,4.9c0.2,0.5,0.4,1,0.7,1.7c-0.9,0-1.5,0-2.1,0
	c-6.4-0.7-12.8-1.2-19.2-2c-8.4-1.1-16.8-2.3-25.2-3.6c-13.1-2-26.2-4.3-39.2-7c-5.2-1.1-10.5-2-15.6-3.6
	c-20.7-6.4-35.8-19.3-45.1-38.9c-0.8-1.8-1.4-3.6-2.2-5.5c-1-2.4-1-4.9-0.4-7.4c1-3.5,1.9-6.9,3.3-10.3c3.7-9.5,8.3-18.4,13.6-27.1
	c2.1-3.5,4.7-6.5,8-8.9c7.7-5.5,15.4-11.1,23.1-16.5C188.6,509.5,189.9,508.5,191.7,508.1z M603.8,687.3c-1.7-3.3-2.7-6.5-3.7-9.7
	c-2.6-8.3-4.5-16.8-6.4-25.3c-0.3-1.3,0-2.3,1-3.2c2.9-3,6-5.7,9.3-8.2c6.8-5.2,14-9.6,21.5-13.6c15.5-8.4,31.7-15.3,48.2-21.7
	c0.6-0.2,1.2-0.4,1.9-0.6c0.2,0.5,0.4,0.9,0.5,1.3c3.5,11,7.1,22,10.5,32.9c4.6,14.4,8.7,29,12.4,43.6c0.2,0.9,0.4,1.9,0.6,2.7
	c-0.6,0.7-1.2,0.5-1.6,0.3c-6.4-2.1-13-2.7-19.7-2c-5.1,0.5-10.2,1.2-15.2,1.7s-9.9,1.3-14.9,1.6c-12.4,0.8-24.8,0.9-37.2,0.4
	C608.6,687.5,606.3,687.4,603.8,687.3z M512.4,362.5c-0.3,4.4-0.6,8.2-0.9,12c-0.5,8-0.9,16.1-0.4,24.2c0.1,2,0.6,4.1,1.1,6.6
	c-1.1,2.2-2.5,4.9-3.9,7.6c-0.3,0.5-0.9,1-1.4,1.2c-1.2,0.5-2.4,1-3.6,1.4c-9.1,3.4-18.4,6.3-27.9,7.9c-7.5,1.3-15.1,2-22.8,1
	c-9.3-1.2-17.3-4.8-24.4-11.2c0.5-1.8,1.4-3.4,2.2-5c0.8-1.7,1.6-3.3,2.5-5c0.9-1.6,1.7-3.3,2.6-4.9c0.9-1.5,1.5-3.3,3.1-4.8
	c0.2,1,0.4,1.8,0.4,2.5c-0.1,3.8-0.2,7.6-0.3,11.4c0,0.9-0.5,1.9,0.4,3c0.3-0.3,0.8-0.5,0.8-0.8c0.3-1,0.6-2.1,0.6-3.2
	c0-6.1,0.1-12.2-0.2-18.3c-0.3-6.5-1-13-2.1-19.5c0-0.2,0.1-0.4,0.2-0.6c1.2-0.3,2.1,0.5,3,0.9c6.5,2.7,13.1,5.4,19.9,7.4
	c3.4,1,7,1.7,10.5,2.5c1.8,0.4,3.5,0.2,5.1-0.4c3.7-1.4,7.4-2.7,11-4.2c7.3-3,14.3-6.5,21.2-10.2C510,363.6,511,363.2,512.4,362.5z
	 M448.5,583.8c-9-4.6-15.6-16.7-11.6-30.1c1-0.4,2.1-0.8,3.2-1.2c2.6-1,5.3-2.1,7.9-3.1c1.1-0.4,1.8-1.2,2.2-2.2
	c2.5-5.7,4.4-11.6,4.1-18c-0.2-3.5-0.3-7-0.5-10.4c-0.3-4.3,1-8.2,3.7-11.5c2-2.5,4.7-3.5,7.9-2.6c1.8,0.5,3.1,1.4,4,3.1
	c0.4,0.8,0.8,1.5,1.2,2.3c2.4,5.7,4.7,11.5,7.1,17.2c0.7,1.8,0.8,3.5,0.4,5.4c-1.9,8.4-4.4,16.6-7.1,24.8c-1.3,3.7-2.8,7.3-4.1,11
	c-0.8,2.1-2.2,3.7-4,5c-4.3,3-8.4,6.2-12.6,9.3C449.5,583.2,449,583.5,448.5,583.8z M569.9,271.3c1,1.4,0.8,2.4,0.9,3.3
	c0,0.6,0,1.3,0.1,1.9c0,0.1,0.3,0.4,0.4,0.4c0.3,0,0.5-0.2,0.8-0.4c0.1,0,0.2-0.2,0.2-0.3c0.4-1.7,0.3-3.5-0.3-5.1
	c-0.5-1.2-1.8-1.8-2.9-1.1c-3.7,2.5-6.5,5.7-7.8,10.1c-0.3,1.1,0.1,2.1,0.8,3c1.5,1.9,1.7,4.2,1.5,6.5c-0.1,1.4-0.5,2.8-1.4,4
	c-1.6,2.2-3.5,4.1-5.8,6.6c0.3-2,0.4-3.2,0.6-4.4c1.1-6.5,2.2-13.1,3.2-19.6c0.4-2.9,1.5-5.5,2.9-7.9c1.8-3.2,4.7-5.4,8.2-6.6
	c1.9-0.6,3.5-0.1,4.6,1.6c0.9,1.5,1.6,3.1,2.2,4.7c1.9,5.8,2.1,11.8,1.7,17.8c-0.7,9.4-4,17.8-9.8,25.2c-2.4,3-5,5.7-8.3,7.7
	c-2.2,1.3-4.5,2.1-7.1,1.9c-0.5,0-1-0.2-1.7-0.4c0.7-3.8,1.5-7.5,2.1-11.1c0.8-0.8,1.4-0.2,2-0.2c1,0,1.9,0,2.9-0.2
	c0.2,0,0.3-0.6,0.5-1.1c-1.2-0.1-2.2-0.2-3.2-0.3c-0.9-0.2-1.5-1.1-1.1-2c0.5-1.2,1-2.4,1.8-3.5c1.4-1.8,2.9-3.5,4.4-5.2
	c3-3.4,3.9-7.2,2.6-11.5c-0.3-1-0.9-2-1.5-2.9c-0.4-0.7-0.5-1.4-0.3-2.2C564.3,276.4,566.8,273.8,569.9,271.3z M384.4,519
	c0.7-1.8,1.2-3.6,2-5.4c0.7-1.6,1.9-2.8,3.6-3.1c3.2-0.6,5.5-2.6,7.5-4.9c3.7-4.1,7.3-8.3,11-12.5c1-1.1,2.1-2.3,3.3-3.2
	c2-1.5,3.9-1.3,5.4,0.7c3.2,4.6,5.3,9.5,4,15.3c-1.6,7.7-5.3,14.5-10.4,20.4c-1.2,1.4-2.7,2.6-3.8,4c-1.1,1.4-1.9,3.1-2.9,4.7
	c-0.8,0-0.8-0.6-1-1.1c-1.1-2.6-2.5-5.1-4.3-7.3c-3.5-4.3-7.9-7.2-13.6-7.4C385,519.3,384.8,519.1,384.4,519z M459.9,597.9
	c-5.5-3.1-8.3-7.7-8.4-13.9c0.7-0.6,1.4-1.2,2-1.7c3.3-2.5,6.6-5,10-7.4c2.2-1.6,3.7-3.6,4.8-6c2.7-6.3,4.8-12.8,6.8-19.4
	c1-3.1,1.9-6.2,2.9-9.8c0.4,0.8,0.7,1.2,0.8,1.6c1.4,6.2,2.7,12.3,4,18.4C480.4,564.9,462.6,594.6,459.9,597.9z M481.8,566
	c0.2,0.8,0.4,1.4,0.4,2c0,2.2,0.1,4.4-0.1,6.5c-0.3,4.9-0.8,9.8-1.1,14.6c-0.1,1-0.3,1.9-0.9,2.7c-4.5,5.6-8.9,11.2-13.4,16.9
	c-0.1,0.2-0.4,0.3-0.6,0.4c-1.4-0.1-2.2-1.2-3-2.2c-1.5-1.6-2.6-3.5-3.1-5.7c1.6-2.5,3.3-4.9,4.8-7.4c5-8.4,10-16.8,15-25.2
	C480.3,567.8,480.6,566.7,481.8,566z M480,594.9c1.2,2.9,1.1,5.4,0.9,7.9c-0.3,2.7-0.8,5.4-1.1,8.1c-0.2,1.4-0.8,2.5-1.7,3.4
	c-2.6,2.6-5.5,4.9-8.7,6.9c-2.7-1.4-3.9-3.7-4.4-6.5c-0.1-0.5,0.2-1.3,0.5-1.8c0.5-0.8,1.2-1.5,1.8-2.3c3.5-4.3,6.9-8.7,10.4-13
	C478.3,596.8,479,596,480,594.9z M419.6,229.7c7.2-1.6,14.1-2.7,21.2-3.5c0.2,2-0.7,3.5-1.1,5.1c-0.4,1.7-1,3.3-1.5,5
	c-0.5,1.6-1,3.3-1.6,5.1c-1.8-0.9-2.8-2.3-4.2-3.3c-1.3-1-2.5-2-3.9-3s-2.9-1.9-4.4-2.8C422.7,231.4,421.1,231,419.6,229.7z"/>
<path class="st9" d="M405.7,233.1c0.8-0.5,1.1-0.8,1.5-0.9c1.6-0.4,3.2-0.6,4.8-1.1c2.3-0.7,4.5-0.5,6.7,0.4
	c4.5,1.8,8.5,4.3,12.1,7.4c0.1,0.1,0.2,0.4,0.3,0.6c0,0.1-0.1,0.1-0.2,0.2c-0.1,0-0.2,0.1-0.3,0.1
	C422.6,237.1,414.5,234.9,405.7,233.1z"/>
<path class="st0" d="M169,394c-2.9,0.6-5.6,1.1-8.4,1.6c-0.7-1.8-0.5-3.5-0.6-5.2s-0.1-3.5-0.1-5.2s-0.2-3.4,0.1-5.1
	c0.4,0.2,0.7,0.2,0.8,0.3c2.6,4.1,5.3,8.2,7.9,12.3C168.8,393.1,168.8,393.4,169,394z"/>
<path class="st9" d="M496.2,238.9c0.7-0.7,1.3-1.4,2-2c4.6-4.1,9.6-7.8,14.7-11.4c1.1-0.8,2.3-1.2,3.7-0.9c1.7,0.3,3.4,0.4,5.3,0.6
	c-0.3,0.4-0.4,0.8-0.6,0.9c-8.6,3.2-16.6,7.6-24.1,12.9c-0.2,0.1-0.4,0.1-0.6,0.2C496.4,239.1,496.3,239,496.2,238.9z"/>
<path class="st7" d="M330.7,382.5c0.1,0.4-9.1,5.3-20.5,4.5c-9.3-0.7-15.9-4.8-19-7c2.5,1,5.9,2.2,10.1,3.1
	c2.2,0.5,8.2,1.6,16.4,1.2C325.9,383.9,330.6,382.2,330.7,382.5z"/>
<path class="st2" d="M463.4,80c-3.6-0.3-6.7-0.7-9.8-0.7c-3.1-0.1-6.3,0.1-9.6,0.2c0.1-0.4,0-0.8,0.2-1.1c0.6-1,1.6-1.4,2.7-1.7
	c4.3-1.1,8.5-1.2,12.8-0.2C461.4,76.9,462.8,77.6,463.4,80z"/>
<path class="st6" d="M460.9,502.3c1.5-1.5,3-3,4.4-4.5c0.8,0.1,0.9,0.5,0.8,1c-0.1,1.3-0.2,2.6-0.4,3.9
	C464.1,503,462.7,502.8,460.9,502.3z"/>
<path class="st14" d="M341,335.2c-2.1,4.5-4.4,8.8-7.4,12.7c-1.2,1.6-2.5,3-4.2,4.1c-2.1,1.3-4,1.1-5.5-0.9c-1.1-1.5-2-3.1-2.7-4.8
	c-1.5-3.5-2.2-7.3-2.8-11.1c-0.5-3.3-0.8-6.7-1.1-10.1c0-0.4,0-0.8,0.1-1.5c4.4,0.1,8.6-0.1,12.4-2.3c2.1,0.4,3.5,1.7,4.9,3.2
	C337.4,327.6,339.4,331.3,341,335.2z"/>
<path class="st15" d="M345.9,324.3c-1.3,3-2.4,5.6-3.6,8.5c-0.5-0.7-0.9-1.1-1.2-1.6c-0.7-1.2-1.4-2.5-2.1-3.7
	c-1.8-2.9-3.9-5.5-7-7.3c0.5-1.4,1.5-2.1,2.5-3.3c0.4,0.3,0.8,0.5,1,0.7C338.2,320.8,341.3,323.2,345.9,324.3z"/>
<path class="st11" d="M227.4,311.6c-0.1-4.2,0.9-8.2,3.2-11.8c4-6.3,9.8-9,17.2-8.4c1.5,0.1,3,0.4,4.5,0.8
	c6.4,1.8,10.5,6.1,12.1,12.5c1.8,7.1,0.4,13.6-4.1,19.4c-7.1,9.1-19.3,8-25.3,3.7c-4.8-3.4-6.9-8.2-7.5-13.9
	C227.3,313.1,227.4,312.4,227.4,311.6z"/>
<path class="st16" d="M479,491.6c0-2.5,0.5-4.8,1.5-7c0.5-1.1,1.2-2.1,2-2.9c1.6-1.6,3.5-2.1,5.7-1.3c0.9,0.4,1.8,0.8,2.6,1.3
	c1,0.5,1.4,1.4,1.2,2.5c-0.1,1.1-0.3,2.2-0.5,3.2c-0.6,2.7-1.6,5.2-3.1,7.5c-0.8,1.2-1.7,2.2-3,2.9c-2.5,1.4-4.8,0.6-5.8-2
	c-0.2-0.5-0.4-1-0.5-1.6C479.1,493.3,479.1,492.4,479,491.6z"/>
<path class="st17" d="M444.7,332.8c0.5-1.3,1.6-1.8,2.6-2.1c1.9-0.5,3.8-1.1,5.7-1.4c8.6-1.4,17.3-1.4,25.9,0.2
	c1.9,0.4,3.8,0.9,5.5,2c1.8,1.1,2,2.3,1,4.1c-0.2,0.4-0.5,0.7-0.8,1c-3.8,4-8.3,6.7-14,6.8c-2.7,0-5.4-0.2-8-1
	c-4.7-1.4-9.2-3.3-13.5-5.7c-1.1-0.6-2.2-1.4-3.2-2.2C445.3,334.1,445,333.4,444.7,332.8z"/>
<path class="st18" d="M461.2,299.1c0.7,1.6,1.3,3.2,2,4.8c-2.6-1.4-5.2-2.9-7.8-4.3c2.6-2.2,5.2-4.3,7.8-6.5
	C462.5,295.1,461.8,297.1,461.2,299.1z"/>
<path class="st7" d="M342.7,493.6c-2.5,10.4-5,20.7-7.5,31.1c-1.8,7.1-3.7,14.2-5.5,21.3c-0.5,2.3-1.5,5.4-3.5,8.4
	c-0.6,0.8-1.1,1.5-1.7,2.2c-0.7-0.4-1.7-1-3-1.4c-1.1-0.4-4.6-1.5-8.5-0.3c-1.7,0.5-2.9,1.3-5.2,2.8c-1.7,1.2-3.1,2.3-4,3.1
	c-8-1.9-18.5-4.3-24.4-5.7c-7.7-1.8-31.9-7.5-38.6-10.4c-2.1-0.9-7.1-3.4-14.5-6.2c-4.8-1.8-8.7-3.2-11.3-4
	c-3.5-3.4-7.8-8-12.4-13.7c-6-7.5-9.8-13.8-12.2-17.7c-3.8-6.2-6.9-12.2-9.5-17.9c9.8,13.7,24.1,28.2,43,30.6
	c30.1,3.8,51.1-23.7,68.8-15.2c14.5,7,17.2,33.3,17.2,33.3c16.5-40.8,26.9-60.5,31.1-59.3C343.3,475.1,343.9,481.5,342.7,493.6z"/>
<path class="st9" d="M578.1,265.3c0,0,15.8-1,29.3,5.7c-6.1-0.1-19.8,0.7-23.7,2.6c20.5,0.6,43.9,5.7,59.9,16.8
	c-4.9,1-24.5,4.8-33,6.7c-8.4,2-35.5,10.1-31.4,12c4.1,1.8,14,5.9,18,7.9c4,2.1,17.7,8.3,14.3,8.3s-18.1-0.1-22.6-0.2
	s-26.2-0.4-23.7,1c2.6,1.3,17.4,6.6,13.8,6.8s-30.4,4.3-26.6,4.8c3.8,0.5,22.5,4,17.7,5.1s-27.7,7-28.7,6.8c-1-0.1-7.1-1.8-7.1-1.8
	s9-7.9,11.2-11.1s6-15.5,6-15.5s2.6,1.2,5.3,0.6s9.8-5.3,12.2-8.3c2.5-3,9.5-12.7,10.6-21.2C581,283.7,582.1,272.9,578.1,265.3
	L578.1,265.3z"/>
<path class="st19" d="M647.2,482c-1.3-0.7-2.2-1.1-3.1-1.5c-3.4-1.7-6.8-3.5-10.2-5.2c-0.5-0.2-1-0.3-1.5-0.4
	c-0.2,0-0.4,0.2-0.5,0.3c-0.1,0.2-0.1,0.5,0,0.6c0.6,0.5,1.2,0.9,1.9,1.2c4.3,2.3,8.7,4.5,13,6.8c1.8,1,3.6,2.1,5.3,3.2
	c1,0.6,1.9,1.4,2.9,2.2c-0.1,3.6-0.5,7-1,10.5c-0.2,1.5-0.1,2.7,0.6,4.1c10.8,21.6,20.3,43.9,29.4,66.3c3.3,8.2,6.5,16.4,9.8,24.6
	c0.2,0.4,0.3,0.8,0.4,1.3c-0.8,1.1-2.1,1.2-3.2,1.5c-15,5.1-29.7,10.8-44.1,17.2c-10.7,4.8-21.3,10-31.3,16.2
	c-6.7,4.1-13.2,8.5-19,13.9c-1.1,1-2,2.3-3.5,3.1c-0.3-0.8-0.6-1.5-0.7-2.3c-2-11-4.1-22-6-33.1c-1.8-10.6-3.4-21.3-5.1-31.9
	c-0.9-5.7-1.8-11.4-2.5-17.1c-0.2-1.5-0.2-3-0.1-4.6c0.3-9.7,0.8-19.4,2-29c1.3-11.4,3.2-22.6,5.7-33.8
	c4.8-21.7,11.5-42.9,20.3-63.4c0.5-1.1,1-2.2,1.5-3.3c0.1-0.2,0.3-0.3,0.7-0.6c0.5,0.1,1.3,0.2,2,0.5c9.8,3.8,19,8.8,27.3,15.1
	c2.2,1.6,4.1,3.6,6,5.6c1.6,1.7,2.4,3.8,2.5,6.2c0.2,6.4,0.6,12.8,0.9,19.3C647.5,477.5,647.3,479.5,647.2,482z M454.8,81.2
	c3.4-0.2,6.3,0.3,9.2,1.4c12.9,5,25.5,10.6,38,16.6c10.1,4.8,20.1,9.9,29.8,15.7c3.3,1.9,6.5,4.1,9.7,6.1c1.4,0.9,2.7,1.9,4,2.9
	c7.8,6.2,7.5,7.2,9.4,14.3c2,7.6,3.5,15.3,4.6,23c1.3,8.7,2.5,17.5,3.7,26.2c0.5,4.3,0.8,8.7,1.1,13c0.1,0.9,0,1.7,0,2.8
	c-0.6-0.1-1-0.1-1.4-0.3c-14.4-7.9-29.8-12.7-45.6-16.6c-12.3-3-24.8-5-37.3-6.3c-7.4-0.8-14.8-1.1-22.2-1c-1.2,0-2.4,0.2-3.7-0.3
	c-0.5-2.9-0.3-5.8-0.3-8.7c0-2.8-0.3-5.6,0-8.6c2.8-0.4,5.4-0.3,7.9-0.3s5,0,7.5,0.1c2.6,0.1,5.2,0.2,7.8,0.3c2.5,0.1,5,0.1,7.5,0.2
	c2.6,0.1,5.2,0.4,7.8,0.5c2.5,0.1,4.9,0.4,7.6,0.3c-0.4-2.6-1.9-4-3-5.7c-0.5-0.8-1.1-1.7-1.9-2.1c-0.9-0.5-2.1-0.7-3.1-0.8
	c-5-0.4-10-1.1-15-1.1c-6.5-0.1-13.1,0.2-19.6,0.3c-1.1,0-2.2,0-3.4,0c-0.1-0.4-0.4-0.8-0.4-1.2c-0.1-7.3-0.1-14.6-0.1-21.9
	c0-0.3,0.1-0.6,0.2-1.1c3.4-2.9,7.1-3.4,11.2-1.4c2.4,1.1,4.6,2.5,6.9,3.8c1,0.5,1.9,1.1,2.8,1.6c0.3,0.2,0.8,0,1.5,0
	c-0.3-0.7-0.5-1.2-0.8-1.6c-2.2-2.7-4.4-5.4-6.7-8.1c-0.8-0.9-1.6-1.8-2.4-2.7c-2.3-2.2-4.9-3.6-8-4.2c-1.2-0.2-2.4-0.4-3.7-0.6
	c-0.1-0.6-0.3-1.2-0.3-1.8c0.1-10.2,0.3-20.5,0.4-30.7C454.6,82.5,454.7,82,454.8,81.2z M628.2,412.3c-0.4,0.1-0.7,0.3-1,0.3
	c-9,0.4-17.7,2.1-26.4,4.3c-17.3,4.3-33.9,10.6-50.1,17.8C529.4,444,509,455,489,466.8c-1.2,0.7-2.4,1.4-4,2.3
	c0.1-1,0.1-1.7,0.4-2.2c2.2-5.4,4.3-10.7,6.6-16c8.4-18.9,17.6-37.5,27.5-55.7c1.1-2.1,2.4-4.2,3.5-6.3c0.2-0.4,0.3-0.8,0.4-1.2
	c0-0.1-0.1-0.4-0.3-0.5s-0.5-0.1-0.6,0c-0.5,0.5-1,1.1-1.4,1.7c-2.1,3.7-4.1,7.4-6.2,11.1c-0.3,0.6-0.4,1.5-1.6,1.6
	c-0.4-1.6-0.7-3.3-0.7-5c0-3.6-0.2-7.2,0-10.8c0.3-7.2,0.9-14.4,1.3-21.5c0.1-1.1,0.3-2.1,0.5-3.2c0.7-0.5,1.4-0.9,2-1.3
	c5.2-3.4,10.5-6.7,15.6-10.1c1.4-0.9,2.6-1.2,4.3-0.9c3.7,0.7,7.2,1.8,10.6,3.2c9.4,3.8,18.2,9,26.6,14.6
	c10.1,6.8,19.6,14.6,28.9,22.5c8.1,6.8,16,13.9,23.9,20.8C626.9,410.7,627.8,411.2,628.2,412.3z M452.9,81.1
	c0,11.8-0.1,23.1-0.5,34.3c-0.4,0.3-0.7,0.5-1,0.6c-3.9,1-7.2,3.1-10.4,5.4c-5.5,4-10.4,8.6-15.1,13.4c-7.5,7.7-14.4,15.8-20.3,24.7
	c-0.9,1.4-1.7,2.8-2.5,4.2c-0.2,0.4-0.3,1-0.4,1.6c1,0,1.9,0.1,2.7,0c7.4-1.4,14.9-2.3,22.3-2.9c7.4-0.6,14.8-0.8,22.2-1.2
	c0.6,0,1.2,0.2,2.1,0.3c0.2,5.7,0.3,11.4,0.2,17.2c-1,0.1-1.8,0.3-2.7,0.4c-16.5,0.9-32.3,4.3-47.6,10.5c-4.5,1.9-8.9,4.1-13.4,6.1
	c-1,0.4-1.8,1.2-3.2,1.1c-0.6-1.4-0.4-2.9-0.6-4.4c-0.3-1.6-0.4-3.2-0.6-4.9c-0.2-1.5-0.4-3-0.6-4.5s-0.4-3-0.6-4.5s-0.4-3-0.7-4.5
	c-0.3-1.6-0.5-3.2-0.8-4.8c-0.3-1.5-0.5-3-0.8-4.5s-0.6-3-0.9-4.5c-0.3-1.6-0.6-3.2-0.9-4.8c-0.3-1.5-0.6-3-0.9-4.5s-0.6-3-1-4.5
	c-0.3-1.5-0.6-3-1-4.5c-0.4-1.6-0.7-3.2-1.1-4.8c-0.4-1.5-0.7-3-1.1-4.5c0.5-1.5,1.8-2.4,2.9-3.5c9.3-9.4,19.3-17.9,30-25.7
	c7.2-5.3,14.7-10.1,22.7-14.2c5.9-3,12-5.6,18.5-7.2C449.5,81.8,451,81.5,452.9,81.1z M381.8,382.5c9.8-8.6,19.2-17.8,27.7-27.9
	c1.5,0.3,17.9,7.9,26.2,12c0.9,1.2,0.9,2.8,1.1,4.3c0.6,5.5,1.2,11,1.8,16.6c0.1,1.3-0.2,2.5-0.9,3.7c-7.8,13.5-14.6,27.5-20.4,42
	c-0.4,0.9-0.8,1.8-1.2,2.8c-0.9-0.5-1.7-1-2.4-1.5c-7.8-5.1-13.9-11.9-18.9-19.7c-6.1-9.4-10.3-19.7-13-30.5c-0.1-0.3-0.1-0.6-0.1-1
	C381.7,383.2,381.7,383,381.8,382.5z"/>
<path class="st20" d="M279.8,600.4c2.5-5,5-6.7,7.2-6.9c8-0.9,13.8,17.7,21.6,16.5c2.5-0.4,4.8-2.9,8.8-7.2c2.2-2.4,2.9-3.7,5.5-5.8
	c2.4-1.9,4.6-3.7,7.5-3.5c2.3,0.2,4.1,1.5,4.9,2.3c-0.2,1.4-0.5,3.4-0.6,5.9c-0.6,7.7-1.6,20.9,4.3,33.7c5.2,11.4,14,18.3,14.4,18
	c0.1-0.1-1.1-1.6-0.5-2.4c0.4-0.7,1.6-0.2,4.2-0.5c2.4-0.2,3-0.8,3.4-0.4c1.1,1-0.1,6.1-3.6,8.3c-3.2,2.1-7.2,1-13.5-0.8
	c-7.7-2.2-8.1-3.8-12.5-4.3c-6.9-0.8-8.7,3-15,3.6c-13.5,1.3-24.9-14.8-26.2-16.5c-1.1-1.5-5.7-8.2-8.3-21.5
	C280.4,614.4,279.6,608,279.8,600.4z"/>
<path class="st12" d="M539.6,288.7c-0.4,0.2-0.6,0.4-0.8,0.4c-9.7-0.1-19.3,0.4-29.1,1.2c-0.2-0.7-0.4-1.3-0.4-1.9
	c-0.5-8.1-1-16.3-1.5-24.4c-0.3-5-0.6-10-1-15c-0.2-2.8,0.3-5.4,1.6-7.9c1.2-2.3,2.6-4.5,4.4-6.5c3.1-3.5,7.1-4.6,11.5-4
	c5.2,0.7,9.1,3.3,11.5,8.1c2.5,4.9,4.2,10,4.8,15.5c0.9,8.3,0.9,16.5,0.2,24.8c-0.2,2.8-0.6,5.6-0.9,8.4
	C539.8,287.8,539.7,288.3,539.6,288.7z M523.8,266.8c0-4.9-0.1-9.9-0.1-14.8c-1.3,6.4-3.8,9.1-5.8,10.4c0,0-0.5,0.3-5.6,2.7l0,0l0,0
	c0,0,0,1.6,0.1,3c0,0.8,0,1.4,0.1,2c0.8,5,0.1,6.6,1.9,12.9c0.4,1.3,1,2.7,1.7,3.9c0.8,1.3,2.6,1.5,3.7,0.4c0.9-0.9,1.5-1.9,1.8-2.7
	C522.8,279.7,523.7,268.4,523.8,266.8z M431,296.3c-1.8,0.2-4.5,0.4-7.9,0.5c-5.3,0.2-7.9,0.1-13.4,0.2c-3.1,0.1-6.3,0.3-9.6,0.5
	c-0.3-0.7-0.6-1.4-0.8-2.1c-1.3-7-2.6-13.9-3.1-21c-0.5-7.7-0.5-15.4,1.1-23.1c1-4.8,2.8-9.2,6.2-12.8c0.7-0.7,1.4-1.4,2.2-1.9
	c1.4-0.9,2.9-1.2,4.7-0.7c3.4,1,6.9,1.8,10.4,2.8c0.8,0.2,1.6,0.7,2.1,1.3c1.7,1.9,2.9,4,3.5,6.3c0.5,1.7,0.4,3.1,0.4,3.4
	c0,7.7,3.2,18.3,4,38.1C431,289.7,431,292.6,431,296.3z M414.4,269.1c0,0.3,0.1,1.8,0.5,4.8c0.1,0.5,0.1,1.1,0.2,1.6
	c0.6,4.6,1.2,9.3,2.5,13.8c0.4,1.2,0.9,2.5,1.4,3.6c0.4,0.9,1.1,1.7,2.2,1.6c1.1,0,1.6-1,2.1-1.9c0.2-0.4,0.3-0.8,0.4-1.2
	c0.1-0.3,1-5.8,1-5.8c0.6-8.4,1.1-13.7,0.8-24.4c-0.2-6-0.8-6.4-1-6.5c-0.7-0.1,0,5.8-3.7,9.5C418.1,267,414.9,266.7,414.4,269.1z
	 M323.9,384.3c0.2,0,0.4-0.1,0.5-0.1C324.3,384.2,324.1,384.3,323.9,384.3L323.9,384.3z M374.8,273c-0.1,2.8-0.5,4.8-1.4,6.7
	c-0.2,0.5-0.5,1-0.8,1.4c-0.8,1-1.7,1.7-3.1,1.3c-1.4-0.5-2.7-1.2-2.8-2.9c-0.3-4.2,0.9-8,4-10.9c1.2-1.1,2.5-0.9,3.1,0.7
	C374.3,270.6,374.6,272.2,374.8,273z M379.3,294.2c0,1.1-0.7,1.8-1.8,1.8c-0.8,0-1.4-0.7-1.3-1.5c0-0.9,0.6-1.5,1.6-1.6
	C378.7,292.8,379.3,293.3,379.3,294.2z M377,297.4c0,0.6-0.4,1-0.9,0.9c-0.4,0-0.7-0.4-0.7-0.8c0-0.5,0.3-0.8,0.9-0.8
	C376.7,296.7,377,297,377,297.4z M275.1,257.3c0,0.4-0.1,1-0.2,1.6c-0.8,3.3-3.2,4.9-6.5,4.4c-0.2,0-0.4-0.1-0.6-0.1
	c-5-1.1-6.8-5.4-4-9.7c1.3-2,3-3.1,5.5-2.5c0.7,0.1,1.5,0.3,2.2,0.5C273.9,252.5,275.1,254.4,275.1,257.3z M284.1,277.6
	c0,1.2-0.9,2.2-2,2.1s-1.9-0.8-2-1.8c-0.1-1.2,0.9-2.1,2.4-2C283.4,276,284.1,276.7,284.1,277.6z M278.4,281.5
	c0,0.9-0.7,1.6-1.4,1.5c-0.8,0-1.4-0.6-1.4-1.3c-0.1-0.9,0.7-1.5,1.7-1.5C277.8,280.3,278.4,280.9,278.4,281.5z M420,513.9
	 M330.8,297.5c3.6,0.2,7.2,0.5,10.8,0.7c-2.3,1.2-4.5,2.4-6.8,3.6C333.5,300.4,332.1,299,330.8,297.5z"/>
<path class="st7" d="M402.8,561.5c-0.4-3.6-0.6-8.4,0.2-13.9c0.7-5.1,2-9.4,3.2-12.6c0.5-1.1,1.5-2.8,2.8-4.6c2.1-3,3.8-4.3,5.6-6.4
	c1.5-1.7,3.4-4.4,5.1-8.3c0.7-1.9,1.4-3.9,2.1-5.8l13.1-7.1c0.6-0.3,5.1-2.4,6-1.2c0.2,0.2,0.5,0.9-0.7,2.8
	c-1.8,1.5-3.5,3.1-5.3,4.6c-0.2,0.2-1.8,1.7-1.6,2.1c0.3,0.4,2.5-0.7,2.7-0.8c2-1.6,3.9-3.3,5.9-4.9l4.4-4.3c0.5-0.3,4.8-3.2,6-2.1
	c0.2,0.2,0.5,0.7,0.1,2.2c-1.5,1.5-3,3-4.5,4.5c-0.5,0.9-1.1,1.8-0.9,2s1.4-0.8,3.5-2.8c1.3-1.2,3.1-2.8,5.2-4.8
	c0.6-0.6,1.2-1.2,1.9-1.9c1.1-1,2.6-0.8,3-0.1c0.3,0.5,0.2,1.2-0.1,1.8c-12.5,12.5-25,25.1-37.4,37.6
	C416.4,545.6,409.6,553.6,402.8,561.5z"/>
<path class="st7" d="M335.4,529.4c13.9-1.4,23.3-5.7,29.4-9.3c10.5-6.3,14.3-12.8,28.3-21.9c7.2-4.7,13.6-7.7,17.8-9.5
	c-7.8,8.4-13.6,14.5-15.4,16.6c-0.7,0.8-1.7,1.9-3.4,2.7c-1,0.5-1.6,0.6-2.6,1c-1.1,0.5-2.6,1.3-4.2,3.1c-0.7,3.5-2,5.8-3,7.2
	c-1.4,2-2.8,2.9-7.8,6.8c-2.7,2.1-4.9,3.7-6,4.6l-11.2,9.9c-2.3,5.5-4.6,11.1-7,16.6c-3.9,0.4-7,1.2-9,2c-4.3,1.5-6.1,3.1-8.9,2.8
	c-2.8-0.4-4.9-2.4-6.2-4.1c1.4-3.2,2.9-6.4,4.3-9.6l3.6-13.7C334.5,532.8,335,531.1,335.4,529.4z"/>
<path class="st21" d="M336.8,596.6c1.5,0.6,4,1.8,6.3,4.2c2.5,2.6,3.7,5.3,4.2,6.8c13.7-0.5,32.3-2.8,52.9-10.4
	c11-4,20.3-8.8,28-13.4c3-1.6,6.6-0.7,8.4,1.8c1.6,2.2,1.5,5.4-0.2,7.7c-1.9,1.7-3.8,3.5-5.7,5.2c-0.1,0.3-0.1,0.6,0.1,0.8
	s0.6,0.2,0.9,0c3-2.6,6-5.1,9.1-7.7c3.9-0.5,7.6,1.2,9.7,4.3c2.8,4.3,0.8,9,0.7,9.4c-0.9,0.6-1.8,1.3-2.6,1.9l-3,2.3
	c-0.5,0.4-0.5,1-0.2,1.3s0.8,0.2,1.2-0.1c1.8-1.3,3.6-2.5,5.5-3.8c2.7-0.5,5.4,0.4,7.1,2.4c2.5,2.9,1.6,6.5,1.5,6.8
	c-1,0.9-2.7,2.7-3.4,5.5c-0.2,0.9-0.3,1.7-0.3,2.4c0,0,0.4,0.6,0.8,0.6s0.8-0.7,0.7-1.5c0.1-0.7,0.3-1.9,1-3.1
	c0.4-0.8,0.9-1.3,1.3-1.7c0.3,0.1,2.3,0.5,3.4,2.5c1,1.8,0.4,3.6,0.3,3.9c-1.6,1.2-4.1,2.9-7.4,4.5c-4.1,1.9-7,2.6-15.7,4.7
	c-2.6,0.6-6.5,1.6-11.5,2.9c-20.7,4-42,7.6-63.8,10.9c-5.1,0.8-10.2,1.5-15.3,2.2c-1.1-1.2-2.6-3-4.4-5.3c0,0-0.8-1-1.4-1.8
	c-4.9-6.5-7.6-17-7.6-17c-2-7.9-1.9-14.2-1.8-17.6C335.6,603.5,336.2,599.5,336.8,596.6z"/>
<path d="M330.5,299.2c1.8,2.2,4.1,3.9,6.4,5.5c0.8,0.5,1.6,0.5,2.5,0.3c2.3-0.6,4.5-1.6,6.5-3c0.5-0.4,1-0.8,1.5-1.2
	c0.9-0.9,0.7-2-0.5-2.6c-0.7-0.3-1.4-0.5-2.2-0.7c-2.7-0.4-5.4-0.6-8-1c-1.9,0-3.8-0.1-5.6,0c-1.1,0-1.6,1.1-1,2.1
	C330.3,298.8,330.4,299,330.5,299.2z M341.6,298.2c-2.3,1.2-4.5,2.4-6.8,3.6c-1.3-1.4-2.7-2.9-4-4.3
	C334.4,297.8,338,298,341.6,298.2z M313,321.9c0.9,0.4,1.7,0.9,2.5,1.3c0.1,0.6,0.1,1.1,0.2,1.5c0.3,5,1,10,2,14.9
	c0.7,3.4,1.5,6.8,3.2,9.9c0.7,1.3,1.6,2.6,2.7,3.6c1.6,1.6,3.7,1.9,5.7,0.8c1.2-0.7,2.4-1.5,3.4-2.5c2.4-2.2,4.2-5,5.8-7.8
	c3.1-5.2,5.5-10.6,7.8-16.1c0.4-1,0.8-2,1.2-2.8c1.6-0.3,3-0.5,4.4-0.9c1.7-0.5,3.2-1.4,4.1-3c0.3-0.6,0.3-1.3-0.9-1.3
	c-2.2,3-5.4,3.5-9,3.2c-1.7-0.2-3.1-0.8-4.5-1.7c-2-1.2-3.6-2.8-5.1-4.5c-0.6-0.7-1.2-1.4-2.2-2.5c-0.7,1.1-1.2,1.8-1.7,2.5
	c-1.3,1.9-3.1,3.3-5.2,4.3c-6.4,2.9-13.9,1.3-18.5-3.9c-0.9-1-1.6-2.1-2.3-3.1c-0.4-0.5-0.8-1-1.1-1.5c-1,1-1,1-0.7,1.6
	C306.7,317.3,309.3,320.1,313,321.9z M334.4,317c0.4,0.3,0.8,0.5,1,0.7c2.7,3.1,5.8,5.5,10.4,6.6c-1.3,3-2.4,5.6-3.6,8.5
	c-0.5-0.7-0.9-1.1-1.2-1.6c-0.7-1.2-1.4-2.5-2.1-3.7c-1.8-2.9-3.9-5.5-7-7.3C332.5,318.8,333.5,318.1,334.4,317z M317.4,323.7
	c4.4,0.1,8.6-0.1,12.4-2.3c2.1,0.4,3.5,1.7,4.8,3.2c2.8,3.1,4.8,6.7,6.4,10.6c-2.1,4.5-4.4,8.8-7.4,12.7c-1.2,1.6-2.5,3-4.2,4.1
	c-2.1,1.3-4,1.1-5.5-0.9c-1.1-1.5-2-3.1-2.7-4.8c-1.5-3.5-2.2-7.3-2.8-11.1c-0.5-3.3-0.8-6.7-1.1-10.1
	C317.3,324.7,317.4,324.3,317.4,323.7z M265.1,286.4c2.7,1,5.5,1.4,8.4,1.6c2.1-0.3,4.3-0.4,6.4-1c7.1-1.9,11.4-6.5,13-13.6
	c0.6-2.8,0.5-5.6,0-8.4c-2.1-11-11.6-18-22.6-16.5c-2.4,0.3-4.6,0.9-6.7,2.4c-7.1,5.3-10.2,12.3-9.4,21
	C254.7,279,258.5,283.8,265.1,286.4z M282.5,275.9c0.9,0,1.6,0.8,1.6,1.7c0,1.2-0.9,2.2-2,2.1c-1-0.1-1.9-0.8-2-1.8
	C280.1,276.8,281.1,275.9,282.5,275.9z M277.2,280.3c0.6,0,1.2,0.6,1.2,1.2c0,0.9-0.7,1.6-1.4,1.5c-0.8,0-1.4-0.6-1.4-1.3
	C275.4,280.9,276.2,280.2,277.2,280.3z M263.7,253.5c1.3-2,3-3,5.5-2.5c0.7,0.2,1.5,0.3,2.2,0.5c2.5,1,3.7,2.8,3.7,5.8
	c0,0.4-0.1,1-0.2,1.6c-0.8,3.3-3.2,4.9-6.5,4.4c-0.2,0-0.4-0.1-0.6-0.1C262.7,262.1,261,257.8,263.7,253.5z M239.9,331.8
	c1.6,0.4,3.2,0.7,4.8,0.8c5.5,0.2,10.5-1.3,14.7-5.1c4.9-4.6,7.1-10.3,7.2-15.2c0.2-12.5-6.1-20.4-16.6-22.2
	c-12-2-19.8,4.4-22.9,13.3c-1.5,4.4-2,8.9-0.9,13.5C227.9,324.4,232.2,329.7,239.9,331.8z M227.4,311.6c-0.1-4.2,1-8.2,3.2-11.8
	c4-6.3,9.8-9,17.2-8.4c1.5,0.1,3,0.4,4.5,0.8c6.4,1.8,10.5,6.1,12.1,12.5c1.8,7.1,0.4,13.6-4.1,19.4c-7.1,9.1-19.3,8-25.3,3.7
	c-4.8-3.4-6.9-8.2-7.5-13.9C227.3,313.1,227.4,312.4,227.4,311.6z M447.8,337.9c4.8,2.8,9.9,4.9,15.3,6.3c3.7,1,7.5,1.3,11.3,0.4
	c4.9-1.2,9-3.8,12.1-7.8c2-2.7,1.4-5.2-1.5-6.8c-1.4-0.8-3-1.3-4.5-1.7c-4.9-1.3-9.9-1.5-14.9-1.5c-0.5,0-1.1,0-1.6,0
	c-4.8,0.1-9.6,0.4-14.2,1.5c-1.8,0.4-3.6,0.9-5.1,2c-1.8,1.3-2.1,3.1-0.6,4.7C445.1,336.1,446.5,337.1,447.8,337.9z M447.3,330.8
	c1.9-0.5,3.8-1.1,5.7-1.4c8.6-1.4,17.3-1.4,25.9,0.2c1.9,0.4,3.8,0.9,5.5,2c1.8,1.1,2,2.3,1,4.1c-0.2,0.4-0.5,0.7-0.8,1
	c-3.8,4-8.3,6.7-14,6.8c-2.7,0-5.4-0.2-8-1c-4.7-1.4-9.2-3.3-13.5-5.7c-1.1-0.6-2.2-1.4-3.2-2.2c-0.5-0.4-0.8-1.2-1.2-1.7
	C445.2,331.5,446.3,331.1,447.3,330.8z M363.5,294.8c0.9,2.2,2.1,4.3,4,5.8c4.1,3.3,9.7,2.8,13.1-1.3c1.2-1.4,1.9-3.1,2.6-4.9
	c1.1-3.1,1.3-6.4,1.4-9.5c-0.1-4.5-0.5-8.9-2.2-12.9c-0.7-1.7-1.6-3.3-2.7-4.8c-1.6-2-3.8-2.7-6.4-2.2c-2.5,0.5-4.7,1.7-6.4,3.7
	c-1.5,1.7-2.6,3.8-3.4,5.9c-1.3,3.5-1.8,7.2-1.7,10.9C361.8,288.7,362.3,291.9,363.5,294.8z M377.8,292.9c0.8-0.1,1.4,0.5,1.4,1.3
	c0,1.1-0.7,1.8-1.8,1.8c-0.8,0-1.4-0.7-1.3-1.5C376.2,293.5,376.8,292.9,377.8,292.9z M376.3,296.7c0.4,0,0.7,0.2,0.7,0.7
	c0,0.6-0.4,1-0.9,0.9c-0.4,0-0.7-0.4-0.7-0.8C375.4,297.1,375.7,296.8,376.3,296.7z M370.7,268.6c1.2-1.2,2.5-0.9,3.1,0.7
	c0.5,1.4,0.8,2.9,1,3.7c-0.1,2.8-0.5,4.8-1.4,6.7c-0.2,0.5-0.5,1-0.8,1.4c-0.8,1-1.7,1.7-3.1,1.3c-1.4-0.5-2.7-1.2-2.8-2.8
	C366.3,275.3,367.6,271.5,370.7,268.6z M457.2,302.8c3.1,1.5,6.3,3,9.8,4.6c0.2-0.8,0.3-1.2,0.3-1.6c-0.3-5.1-0.6-10.2-1-15.3
	c0-0.4-0.3-0.8-0.4-1.1c-0.3,0-0.6,0-0.7,0.1c-3.1,2.3-6.3,4.6-9.4,7c-0.8,0.6-1.3,1.5-1.8,2.3c-0.5,0.7-0.4,1.5,0.3,2.1
	C455.2,301.6,456.1,302.3,457.2,302.8z M463.2,293.1c-0.7,2-1.3,4-2,6c0.7,1.6,1.3,3.2,2,4.8c-2.6-1.4-5.2-2.8-7.8-4.3
	C458,297.4,460.6,295.3,463.2,293.1z M512.3,265c5.1-2.4,5.6-2.7,5.6-2.7c2.1-1.2,4.5-3.9,5.8-10.3c0,4.9,0,9.8,0.1,14.8
	c-0.1,1.6-1,12.9-2.3,17.8c-0.2,0.8-0.8,1.8-1.8,2.7c-1.1,1.1-2.9,0.9-3.7-0.4c-0.7-1.2-1.3-2.5-1.7-3.9c-1.8-6.2-1.2-7.9-1.9-12.9
	c-0.1-0.6-0.1-1.2-0.1-2C512.3,266.6,512.3,265,512.3,265z M511.6,306.8c-0.2-0.7-0.4-1-0.3-1.3c0.2-0.4,0.4-0.8,0.8-1
	c3.8-3.4,8-6.4,12.5-8.9c0.7-0.4,1.4-0.6,2.1-0.8c1.2-0.3,1.9,0.4,1.6,1.7c-0.2,1-0.5,1.9-0.9,2.8c-1,2.3-2.1,4.5-3.2,6.8
	c-0.2,0.5-0.4,0.9-0.8,2.1c1.4-1.1,2.2-1.8,3-2.4c3.6-2.9,7.1-5.7,10.7-8.5c1-0.8,2.2-1.5,3.3-2.2c0.5-0.3,1.2-0.7,1.8-0.1
	c0.3,0.3,0,1-0.8,1.5c-4,2.5-7.6,5.4-11.2,8.4c-2.9,2.5-5.8,5-8.7,7.5c-0.5,0.4-1,0.8-1.6,1.1c-0.1,0.1-0.4,0-0.6-0.1
	c-0.2-0.1-0.3-0.4-0.3-0.5c0.2-0.7,0.5-1.4,0.8-2.1c1.8-3.6,3.6-7.2,5.4-10.8c0.4-0.8,0.7-1.8,1-2.8c-2.4,0.4-3.1,0.8-7.7,4.2
	C516.3,303.1,514.1,304.8,511.6,306.8z M425.6,261.4c0.3,10.7-0.2,16-0.8,24.4c0,0-1,5.4-1,5.8c-0.1,0.4-0.2,0.8-0.4,1.2
	c-0.4,0.9-1,1.8-2.1,1.9c-1.1,0-1.8-0.7-2.2-1.6c-0.5-1.2-1-2.4-1.4-3.6c-1.4-4.5-2-9.1-2.5-13.8c-0.1-0.5-0.1-1.1-0.2-1.7
	c-0.3-3-0.5-4.6-0.5-4.8c0.5-2.4,3.7-2,6.5-4.7c3.7-3.6,3-9.5,3.7-9.5C424.8,254.9,425.4,255.3,425.6,261.4z M492.8,481.1
	c-3.8-4-9.9-3.5-12.9,1.2c-1.8,2.7-2.4,5.8-2.6,8.8c0,2.1,0.2,4,1,5.8c1.2,2.5,3.5,3.6,6.2,2.9c1.9-0.5,3.3-1.6,4.5-3.1
	c2.8-3.6,4.4-7.8,4.6-12.3c0-0.6,0-1.3-0.1-1.9C493.4,482,493.2,481.5,492.8,481.1z M491.6,487.4c-0.6,2.7-1.6,5.2-3.1,7.5
	c-0.8,1.2-1.7,2.2-3,2.9c-2.5,1.4-4.8,0.6-5.8-2c-0.2-0.5-0.4-1-0.5-1.6c-0.1-0.9-0.1-1.7-0.2-2.6c0-2.5,0.5-4.8,1.5-7
	c0.5-1.1,1.2-2.1,2-2.9c1.6-1.6,3.5-2.1,5.7-1.3c0.9,0.3,1.8,0.8,2.6,1.3c1,0.5,1.3,1.4,1.2,2.5C492,485.2,491.9,486.3,491.6,487.4z
	 M701.6,686.5c-4.3-17.8-9.3-35.4-15-52.8c-2.6-8-5.2-15.9-7.8-23.9c-0.6-1.7-1.2-3.5-1.3-5.5c2.9-1.5,6-2.3,9.1-3.5
	s6.4-1.9,9.4-3.5c0.2-1.3-0.4-2.3-0.8-3.3c-4.5-11.2-8.9-22.5-13.5-33.6c-7.8-18.8-15.8-37.5-24.9-55.8c-1-2-1.4-3.8-1.1-6
	c0.3-2.7,0.5-5.4,0.8-8.1c0.2-1.5-0.3-2.6-1.5-3.4c-1.2-0.9-2.5-1.8-3.8-2.6c-0.8-0.5-1.6-1.1-2.4-1.6c0-0.5-0.1-0.8-0.1-1.1
	c0.8-8.9-0.1-17.8-0.7-26.8c-0.1-2.3-1-4.2-2.5-5.9c-1.1-1.3-2.3-2.6-3.6-3.8c-2.2-1.8-4.4-3.6-6.7-5.2c-7.3-5-15.1-9.1-23.3-12.4
	c-1.1-0.4-2.3-0.7-2.7-2.1c-0.2-0.5-1-0.8-1.6-1.1c-2.9-1.3-5.8-2.6-8.7-3.8c-0.6-0.3-1.3-0.6-2.3-1.1c1.7-1,3.2-1.2,4.6-1.5
	c1.4-0.4,2.7-0.7,4.1-1c1.5-0.3,3-0.6,4.5-0.9c1.4-0.3,2.8-0.5,4.2-0.8c1.5-0.3,3-0.5,4.5-0.7s3-0.4,4.5-0.5
	c1.4-0.2,2.8-0.2,4.2-0.4c1.5-0.2,3,0.3,4.5-0.5c-0.3-1.3-1.3-1.9-2.1-2.6c-7-6.2-14-12.5-21.1-18.6c-9.2-7.9-18.5-15.6-28.3-22.8
	c-10.6-7.7-21.6-14.6-33.9-19.5c-0.4-0.1-0.7-0.4-1.4-0.8c1.1-0.4,1.8-0.7,2.7-0.9c7.8-1.8,15.5-3.5,23.3-5.2
	c0.6-0.1,1.3-0.2,1.7-0.9c0.2-0.4-0.4-1.1-1.5-1.4c-3.9-1-7.8-2-11.7-3c-1.1-0.3-2.3-0.5-3.4-0.8c1-0.7,2.1-1,3.1-1.2
	c6.9-1.3,13.8-2.1,20.7-2.6c0.6,0,1.5,0.1,1.5-0.8c0-0.4-0.6-0.9-1-1.1c-1.6-0.8-3.2-1.4-4.8-2.1c-2.1-0.9-4.3-1.7-6.4-2.5
	c-0.4-0.2-0.9-0.2-0.7-1.1c1-0.3,2.2-0.3,3.4-0.3c8.7,0,17.4,0.1,26.2,0.1c4.3,0,8.5,0,12.8,0c0.6,0,1.3,0.1,1.8-0.8
	c-0.1-0.3-0.2-0.7-0.5-0.9c-1-0.7-1.9-1.4-3-2c-3.7-1.9-7.3-3.8-11.1-5.6c-5.2-2.4-10.5-4.7-15.8-7.1c-0.6-0.3-1.5-0.4-1.7-1.3
	c2-1.6,4.4-2.5,6.7-3.3c5-1.7,9.9-3.3,15-4.6c13-3.5,26.3-6.1,39.6-8.5c0.7-0.1,1.4-0.4,2-0.6c0.2-1.5-0.5-2.6-1.2-3.5
	c-1.7-2.5-3.4-5.1-5.4-7.4c-11.3-13.4-23.7-25.6-37.9-35.9c-0.5-0.3-0.9-0.8-1.9-1.8c3.2,0.7,5.6,1.1,8,1.7
	c6.3,1.7,12.6,3.4,18.9,5.1c0.9,0.3,1.8,0.8,3,0.2c-0.1-0.3-0.1-0.8-0.3-1.1c-1.1-1-2.2-2.1-3.4-3c-3.9-3-8.1-5.6-12.3-8
	c-6.3-3.6-12.9-6.9-19.5-9.9c-1-0.4-1.9-0.9-2.8-1.4c1.8-0.6,3.5-0.4,5.2-0.2c6.7,0.7,13.4,1.5,20.1,2.2c1.4,0.1,2.8,0.4,4.4-0.1
	c-0.2-0.5-0.3-1-0.5-1.1c-0.9-0.5-1.8-0.8-2.7-1.1c-11.3-4.2-22.7-8.3-34-12.5c-1.1-0.4-2.2-0.9-3.4-1.3c0-1.3,0-2.3,0-3.4
	c0.1-1.6,0.2-3.3,0.2-4.9c0.3-15.9-0.2-31.8-2.4-47.6c-1-6.9-2.4-13.7-4.5-20.4c-1.5-5-4.1-9.3-7.6-13.2c-2.8-3.1-5.9-5.8-9.2-8.3
	c-6.5-4.9-13.4-8.9-20.7-12.4c-19.6-9.4-40-15.9-61.3-20c-2.4-0.5-4.9-0.9-7.2-1.3c-1.3-3.7-2.3-4.9-5.5-5.6
	c-4.3-0.9-8.7-0.8-13,0.2c-2.5,0.6-4.4,1.8-5,4.5c0,0.2-0.3,0.3-0.5,0.6c-5.3,0.9-10.5,2.3-15.7,4.1c-19.7,7.1-37.3,17.8-53.2,31.3
	c-0.7,0.6-1.2,1.6-2.5,1.4c-0.3-0.8-0.5-1.6-0.8-2.5c-1.7-5.7-3.4-11.5-5.2-17.2c-2.3-7.1-4.7-14-7.8-20.8c-1-2.1-2-4.1-3.2-6
	c-0.5-0.9-1.3-1.7-2.1-2.4c-0.9-0.8-1.9-0.8-2.6,0.1c-0.9,1.1-1.8,2.2-2.3,3.5c-1.1,2.7-2,5.5-2.8,8.4c-1.9,6.8-3.3,13.8-4.3,20.8
	c-1.3,9-2.5,18.1-3.6,27.2c-0.7,6-1.2,12.1-1.7,18.2c-0.4,4.9-0.9,9.8-0.9,14.7c-0.1,10.3-0.5,20.7,0.5,31c0.1,0.7-0.1,1.4-0.1,2.3
	c-1-0.3-1.9-0.5-2.7-0.8c-9.6-3.4-19.5-5.4-29.6-6.4c-11.4-1.1-22.9-0.7-34.3,0.7c-11.6,1.4-23,3.9-34.1,7.4c-1,0.3-2.1,0.6-3.1,0.9
	c-0.7-0.5-1.3-1-1.9-1.4c-5.7-4.2-11.2-8.7-17-12.7c-37.9-25.6-78.9-44.4-123-56.4c-4.2-1.1-8.4-2.4-12.8-2.9
	c-0.6-0.8-1.3-1.6-1.9-2.5c-13.2-18.1-26.3-36.1-39.5-54.2c-1.4-1.9-2.8-3.9-4.2-5.8c-0.3-0.4-0.7-0.8-1.2-1.1
	c-0.2-0.1-0.8,0-0.8,0.2c-0.2,0.5-0.3,1-0.3,1.6c-0.4,5.9-0.8,11.7-1.1,17.6c-0.9,14.7-1.8,29.4-2.6,44c-0.8,12.8-1.5,25.7-2.2,38.5
	c-0.2,4.1-0.5,8.3-0.8,12.4c-0.6,10.1-1.2,20.2-1.8,30.3c-0.1,0.9,0,1.7,0,2.3c0.3,0.3,0.3,0.4,0.4,0.5c0.2,0.2,0.3,0.3,0.5,0.5
	C52,234.6,85,262.8,117.9,291c0.3,0.2,0.5,0.4,0.7,0.6s0.3,0.3,0.4,0.5c0.1,0.1,0.1,0.2,0.2,0.3s0.1,0.2,0.1,0.4
	c0,0.3-0.1,0.6-0.1,0.9c-3,13.9-6,27.9-9,41.8c-0.4,1.8-0.3,3.2,1.2,4.4c0.3,0.2,0.5,0.5,0.7,0.7c11.8,12.7,23.5,25.4,35.3,38.2
	c0.8,0.9,1.6,1.8,2.4,2.7c-1.8,4.4-3.6,8.8-5.4,13.1c-1.8,4.4-3.7,8.8-5.5,13.3c-1.8,4.3-3.6,8.6-5.4,13c-1.8,4.4-3.8,8.8-5.5,13.4
	c1.1,1,2,1.9,3,2.8c10,9,20.1,18.1,30.2,27.1c0.9,0.8,2,1.4,2.4,2.7c-0.2,0.8-0.5,1.6-0.7,2.4c-2.7,8.2-5.3,16.4-8,24.5
	c-0.3,1-0.9,2-0.5,3.4c2.9,1.5,6,3,9.1,4.6c3,1.5,6.1,3,9.1,4.5c3,1.6,6.2,2.9,9.5,4.9c-1.1,0.8-1.9,1.5-2.8,2.1
	c-5.5,4-10.9,8-16.4,11.9c-3.2,2.3-5.6,5.2-7.6,8.5c-5.7,9.3-10.6,19-14.5,29.2c-1.4,3.5-2.5,7.2-3.1,11c-0.3,1.8-0.2,3.5,0.3,5.2
	c0.4,1.1,0.7,2.3,1.2,3.4c3.6,9.3,9,17.4,15.9,24.5c10.5,10.6,23.2,17.3,37.6,20.5c14.1,3.1,28.4,5.8,42.7,8
	c9.6,1.5,19.1,3,28.8,4.3c7.2,1,14.5,1.7,21.8,2.3c2.8,0.2,4.8,1,6.6,3.3c4.8,6,11.1,10.1,18.7,11.9c2.2,0.5,4.3,0.6,6.5,0
	c1.1-0.3,2.2-0.8,3.6-0.6c0.3,3.6,0.1,7,0.1,10.5s0,7,0,10.5s-0.2,7,0.2,10.8c4.8,0.1,12.1,0.2,21,0.3c7.5,0,6.1,0,8.3,0
	c8.9,0,17.9,0.1,26.8,0.1c0.6,0,1.5,0.1,1.9-0.2c1.7-1.7,3.8-1.6,5.8-1.5c2.6,0.1,5.2,0.5,7.8,1c5.6,1.1,11.2,1.8,16.9,1.7
	c6.5-0.1,13-1,19.5-1.7c6.2-0.7,12.4-1.3,18.6-0.9c4.2,0.3,8.5,0.3,12.3,2.6c0.4,0.3,1.1,0.2,1.6,0.2c1,0,2-0.2,2.9-0.3
	c12.9-1.9,26-3.1,39-4.3c11.5-1.1,23-2.1,34.5-3.3c12.8-1.2,25.5-2.9,38.2-5.4c6.2-1.2,12.3-2.7,18.5-4.1c0.6-0.1,1.2-0.3,2-0.4
	c1,3,1.9,5.9,2.9,8.8c1,2.8,1.8,5.8,4,8.6c1.3-1.5,3-1.1,4.6-1c8.9,0,17.9,0.1,26.8,0.1c7.1,0,14.2-0.4,21.2-1.3
	c6.6-0.8,13.2-1.6,19.8-2.4c5.2-0.6,10.5-0.7,15.6,0.3c2.7,0.5,5.2,1.5,7.9,2.2c0.8,0.2,1.1,1.5,2.4,0.8
	C701.9,688.2,701.8,687.4,701.6,686.5z M608.2,429.5c0.1-0.2,0.3-0.3,0.7-0.6c0.5,0.1,1.3,0.2,2,0.5c9.8,3.8,19,8.8,27.3,15.1
	c2.2,1.6,4.1,3.6,6,5.6c1.6,1.7,2.4,3.8,2.5,6.2c0.2,6.4,0.6,12.8,0.9,19.3c0.1,2-0.1,3.9-0.3,6.5c-1.3-0.7-2.2-1.1-3.1-1.5
	c-3.4-1.7-6.8-3.5-10.2-5.2c-0.5-0.2-1-0.3-1.5-0.4c-0.2,0-0.4,0.2-0.5,0.3s-0.1,0.5,0,0.6c0.6,0.5,1.2,0.9,1.9,1.2
	c4.3,2.3,8.7,4.5,13,6.8c1.8,1,3.6,2.1,5.3,3.2c1,0.7,1.9,1.4,2.9,2.2c-0.1,3.6-0.5,7-1,10.5c-0.2,1.5-0.1,2.7,0.6,4.1
	c10.8,21.6,20.3,43.9,29.4,66.3c3.3,8.2,6.5,16.4,9.8,24.6c0.2,0.4,0.3,0.8,0.4,1.3c-0.8,1.1-2.1,1.2-3.2,1.5
	c-15,5.1-29.7,10.8-44.1,17.2c-10.7,4.8-21.3,10-31.3,16.2c-6.7,4.1-13.2,8.5-19,13.9c-1.1,1-2,2.3-3.5,3.1
	c-0.3-0.8-0.6-1.5-0.7-2.3c-2-11-4.1-22-6-33.1c-1.8-10.6-3.4-21.3-5.1-31.9c-0.9-5.7-1.8-11.4-2.5-17.1c-0.2-1.5-0.2-3-0.1-4.6
	c0.3-9.7,0.8-19.4,2-29c1.3-11.4,3.2-22.6,5.7-33.8c4.8-21.7,11.5-42.9,20.3-63.4C607.1,431.7,607.7,430.6,608.2,429.5z
	 M546.9,352.2c9.4,3.8,18.2,9,26.6,14.7c10.1,6.8,19.6,14.6,28.9,22.5c8.1,6.8,16,13.9,23.9,20.8c0.7,0.6,1.6,1.1,2,2.2
	c-0.4,0.1-0.7,0.3-1,0.3c-9,0.4-17.7,2.1-26.4,4.3c-17.3,4.3-33.9,10.6-50.1,17.8c-21.4,9.2-41.8,20.2-61.8,32
	c-1.2,0.7-2.4,1.4-4,2.3c0.1-1,0.1-1.7,0.3-2.2c2.2-5.4,4.3-10.7,6.6-16c8.4-18.9,17.6-37.5,27.5-55.7c1.1-2.1,2.4-4.2,3.5-6.3
	c0.2-0.4,0.3-0.8,0.4-1.2c0-0.1-0.1-0.4-0.3-0.5s-0.5-0.1-0.6,0c-0.5,0.5-1,1.1-1.4,1.7c-2.1,3.7-4.1,7.4-6.2,11.1
	c-0.3,0.6-0.4,1.5-1.6,1.6c-0.4-1.6-0.7-3.3-0.7-5c0-3.6-0.2-7.2,0-10.8c0.3-7.2,0.9-14.3,1.3-21.5c0.1-1.1,0.3-2.1,0.5-3.2
	c0.7-0.5,1.4-0.8,2-1.3c5.2-3.4,10.5-6.7,15.6-10.1c1.4-0.9,2.6-1.2,4.3-0.9C539.9,349.7,543.4,350.8,546.9,352.2z M481,589.1
	c-0.1,1-0.3,1.9-0.9,2.7c-4.5,5.6-8.9,11.2-13.4,16.9c-0.1,0.2-0.4,0.3-0.6,0.4c-1.4-0.1-2.2-1.2-3-2.2c-1.5-1.6-2.6-3.5-3.1-5.7
	c1.6-2.5,3.3-4.9,4.8-7.4c5-8.4,10-16.8,15-25.2c0.5-0.9,0.9-2,2.1-2.7c0.2,0.8,0.4,1.4,0.4,2c0,2.2,0.1,4.4-0.1,6.5
	C481.8,579.3,481.4,584.2,481,589.1z M480.9,602.8c-0.3,2.7-0.8,5.4-1.1,8.1c-0.2,1.4-0.8,2.5-1.7,3.4c-2.6,2.6-5.5,4.9-8.7,6.9
	c-2.7-1.4-3.9-3.7-4.4-6.5c-0.1-0.5,0.2-1.3,0.5-1.8c0.5-0.8,1.2-1.5,1.8-2.3c3.5-4.3,6.9-8.7,10.4-13c0.7-0.8,1.4-1.6,2.4-2.8
	C481.3,597.8,481.1,600.3,480.9,602.8z M459.9,597.9c-5.5-3.1-8.3-7.7-8.4-13.9c0.7-0.6,1.3-1.2,2-1.7c3.3-2.5,6.6-5,10-7.4
	c2.2-1.6,3.7-3.6,4.8-6c2.7-6.3,4.8-12.8,6.8-19.4c1-3.1,1.8-6.2,2.9-9.8c0.4,0.8,0.7,1.2,0.8,1.6c1.4,6.2,2.7,12.3,4,18.4
	C480.4,564.9,462.6,594.6,459.9,597.9z M477.9,532.8c-1.9,8.4-4.3,16.6-7.1,24.8c-1.3,3.7-2.8,7.3-4.2,11c-0.8,2.1-2.2,3.7-4,5
	c-4.3,3-8.4,6.2-12.6,9.3c-0.5,0.4-1.1,0.7-1.5,1c-9-4.6-15.6-16.7-11.6-30.1c1-0.4,2.1-0.8,3.2-1.2c2.6-1,5.3-2.1,7.9-3.1
	c1.1-0.4,1.8-1.2,2.2-2.2c2.5-5.7,4.3-11.6,4.1-18c-0.2-3.5-0.3-7-0.5-10.4c-0.3-4.3,1-8.2,3.7-11.5c2-2.5,4.7-3.5,7.9-2.6
	c1.8,0.5,3.1,1.4,4,3.1c0.4,0.8,0.8,1.5,1.2,2.3c2.4,5.7,4.7,11.5,7.1,17.2C478.3,529.2,478.4,530.9,477.9,532.8z M403.2,546.2
	c0.4-2.8,1-5.5,1.9-8.3c0.3-0.9,0.6-1.8,1-2.7c0-0.1,0-0.1,0.1-0.2c0.1-0.2,0.3-0.5,0.4-0.8v-0.1c0.5-1,1.3-2.3,2.3-3.7
	c2.1-3,3.8-4.3,5.6-6.4c1.1-1.3,2.6-3.2,3.9-5.8c0.2-0.4,0.5-0.9,0.7-1.3c0.2-0.4,0.4-0.7,0.5-1.1c0.7-1.9,1.4-3.9,2.1-5.8l0,0
	c0.2-0.8,0.5-1.6,0.7-2.5c0.5-2,0.5-4.1,0.9-6.4c6.3-3.3,12.7-6.2,19.6-7.5c1.2-0.2,2.4-0.3,3.6-0.2c1.5,0.1,2.2,1.3,1.4,2.5
	c-0.9,1.6-1.9,3.2-3.2,4.5c-2.9,2.8-6,5.4-9,8.1c-0.1,0.1-0.1,0.1-0.2,0.2c-0.2,0.2-0.4,0.4-0.6,0.5c-0.2,0.2-1.4,1.3-1.6,1.9v0.1
	v0.1c0.2,0.3,2-0.5,2.5-0.8c0.4-0.3,0.8-0.6,1.2-0.9c1.5-1.2,3-2.5,4.5-3.7c0.3-0.2,0.5-0.5,0.8-0.7l4-3.9l0,0
	c0.6-0.6,1.1-1.3,1.7-2c1.3-1.7,2.2-3.5,1.9-5.7c3.5-1.7,8.3-2.6,11.2-2.1c-0.3,0.6-0.5,1.3-0.8,1.7c-1.3,1.5-2.5,3-3.9,4.4
	c-1.3,1.3-2.7,2.7-4,4c-1.4,1.5-2.9,2.9-4.3,4.4c-0.5,0.9-1.1,1.8-0.9,2l0,0c0.2,0.2,1.4-0.8,3.5-2.8c1.3-1.2,3.1-2.8,5.2-4.8l0,0
	c0.6-0.6,1.2-1.2,1.8-1.8l0,0c0.6-0.6,1.3-1.3,1.9-2c1.7-1.8,3.5-2.3,6.1-2c-0.6,0.8-0.9,1.5-1.4,2c-2.5,2.5-5,5-7.4,7.5
	c-11.2,11.3-22.4,22.5-33.6,33.8c-6.8,8-13.6,15.9-20.4,23.9c-0.4-3.6-0.6-8.4,0.2-13.9C403.1,547.2,403.1,546.7,403.2,546.2z
	 M398.8,526.7c-3.5-4.3-7.9-7.2-13.6-7.4c-0.2,0-0.4-0.1-0.8-0.3c0.7-1.8,1.2-3.6,2-5.4c0.7-1.6,1.9-2.8,3.6-3.1
	c3.2-0.6,5.5-2.6,7.5-4.9c3.7-4.1,7.3-8.3,11-12.5c1-1.1,2.1-2.3,3.3-3.2c2-1.5,3.9-1.3,5.4,0.7c3.2,4.6,5.3,9.5,4,15.3
	c-1.6,7.8-5.3,14.5-10.4,20.4c-1.2,1.4-2.7,2.6-3.8,4c-1.1,1.4-1.9,3.1-2.9,4.7c-0.8,0-0.8-0.6-1-1.1
	C402,531.3,400.6,528.9,398.8,526.7z M466.1,498.7c-0.1,1.3-0.2,2.6-0.4,3.9c-1.7,0.4-3.1,0.2-4.9-0.4c1.5-1.5,3-3,4.4-4.5
	C466.1,497.9,466.2,498.3,466.1,498.7z M408,557.3c3.6-4.3,7.2-8.7,11-12.9c9.8-10.7,20.1-20.8,30.4-30.9c1.2-1.2,2.5-2.4,3.7-3.6
	c0.7,0.5,0.3,1,0.1,1.5c-1,2.7-1.3,5.5-1,8.3c0.3,2.8,0.4,5.6,0.5,8.5c0.2,6.1-1.2,11.9-3.6,17.4c-0.6,1.4-1.4,2.4-2.9,2.9
	c-4.6,1.6-9.2,3.3-13.8,4.9c-8.1,2.6-16.2,4.9-24.5,6.7c-0.5,0.1-1,0.2-1.6,0.2C406.5,558.9,407.3,558.1,408,557.3z M463.1,492.4
	c-0.1-0.4-0.1-0.8-0.3-1.1c-0.4-1.4-0.8-1.9-2.1-2c-1,0-2,0-2.9,0.2c-2.7,0.6-5.3,1.2-8,1.8c-0.8,0.2-1.7,0.4-2.6,0.4
	c-2.4-0.2-4.8,0.1-7.1,0.7c-0.4,0.1-0.8,0.1-1.2,0.1c-0.7-0.7-0.2-1.3,0-1.9c1.5-4.6,3-9.3,3.8-14.2c0.7-4.3,1.1-8.6,0.4-13
	c-0.8-4.9-2.8-9.1-6.1-12.8c-2.1-2.3-4.5-4.2-7-5.8c-2.8-1.8-5.7-3.6-8.6-5.4c-1.2-0.7-2.4-1.5-3.7-2.3c0.2-1.8,0.9-3.4,1.6-4.8
	c0.9-0.3,1.4,0.3,1.9,0.6c2.5,1.7,5,3.5,7.6,5.1c5.5,3.4,11.4,5.3,17.8,6c6.5,0.8,13,0.6,19.6,0.1c8.9-0.6,17.8-1.8,26.6-3.3
	c0.4-0.1,0.8,0,1.2,0c0.3,1.3-0.5,2.2-1,3.2c-3,7.1-6,14.2-9.1,21.3c-0.1,0.3-0.3,0.6-0.4,0.9c-0.6,3.5-2.8,5.6-5.9,7.2
	c-2.5,1.3-4.8,3-7.2,4.5c-0.8,0.5-1.6,1.1-2.4,1.6c-0.8,4.3-0.7,8.5-1.6,12.7C465.4,492.4,464.4,492.4,463.1,492.4z M395.1,340.4
	c3.3-6.3,4.7-13.1,4.2-20.2c-0.1-1.5-0.3-3-0.5-4.7c3.7-3.7,8-6.6,12.4-9.4c0.8,0.6,0.4,1,0.2,1.5c-1.2,2.7-2.5,5.3-3.7,8
	c-0.3,0.7-0.7,1.4-0.9,2.1c-0.1,0.4-0.1,0.9,0.1,1.2c0.4,0.5,1,0.2,1.4-0.1c0.6-0.4,1.2-0.9,1.9-1.3c5-3.4,10.1-6.8,15.2-10.3
	c0.5-0.4,1.1-0.7,1.5-1.2c0.2-0.2-0.1-0.7-0.2-1.3c-3.1,1.4-5.6,3.3-8.3,5c-2.6,1.7-5.2,3.5-8.2,5.6c0.1-0.8,0-1.1,0.2-1.5
	c1.1-2.5,2.3-5,3.4-7.4c0.3-0.7,0.7-1.4,0.9-2.1c0.1-0.4,0.1-0.9,0-1.2c-0.4-0.6-1-0.4-1.5-0.1c-0.8,0.4-1.6,0.8-2.3,1.2
	c-3.4,2.3-6.8,4.7-10.2,7.1c-0.7,0.5-1.4,1.1-2.4,1.9c-1.6-5.8-4-10.8-6.9-15.6c-1-1.8-1.2-3.7-1.1-5.7c0.2-4.2,0.6-8.5,0.9-12.7
	c0.3-4.8,0.8-9.6,0.9-14.3c0.2-9.5-0.7-18.9-4.3-28.1c0.7-0.2,1.2-0.4,1.8-0.6c2.9-0.7,5.7-1.3,8.6-2c2.1-0.6,4.1-0.3,6.3,0.4
	c-0.4,0.5-0.6,1-0.9,1.3c-3.9,3.5-6.3,8-7.6,13.1c-1.3,5.4-1.5,11-1.8,16.5c-0.3,6.2,0.7,12.4,1.5,18.5c0.5,3.7,1.1,7.3,1.7,11
	c0.2,1.3,0.5,2.5,0.7,3.5c1.1,1,2.1,0.8,3.1,0.8c3-0.1,6.1-0.2,9.1-0.3c5.2-0.3,10.4-0.7,15.7-0.6c2,0,4.1-0.5,6.1-0.9
	c0.4-0.1,0.9-0.7,1-1.1c0.2-0.8,0.3-1.7,0.2-2.6c-0.3-6.1-0.5-12.2-1-18.3c-0.4-5.5-1.1-11.1-1.8-16.6c-0.4-3.6-1.1-7.1-1.7-10.6
	c-0.4-2.5-1.3-4.8-2.6-7c-0.2-0.3-0.3-0.7-0.5-1.2c3,0.4,6.2,1.6,9.7,3.5c-0.1,0.7-0.2,1.4-0.4,2.1c-0.9,3.1-1.9,6.2-2.9,9.4
	c-0.3,0.8-0.5,1.7-0.6,2.5c0,0.2,0.3,0.5,0.5,0.8c1.2-0.1,1.6-1.1,2.2-1.9c4.4-5.7,8.8-11.4,13.1-17.1c2.9-3.8,5.8-7.6,8.8-11.4
	c0.4-0.5,0.8-0.9,1.6-1.6c0.3,2.2,0.3,3.9,0.3,5.6c0,1.7,0.1,3.5,0.1,5.2s0,3.5,0.1,5.2c0,1.7,0,3.5,0.1,5.2c0,1.6,0,3.3,0.1,4.9
	c0,1.7,0.1,3.5,0.2,5.2c0,1.7,0.1,3.5,0.2,5.2c0,1.7,0,3.5,0.1,5.2s-0.2,3.4,0.3,5c0.8,0.4,1.3,0.1,1.6-0.3c0.6-0.7,1.1-1.3,1.7-2
	c12.7-15.1,25.3-30.2,38-45.3c0.6-0.7,1.1-1.3,1.8-2c2.9-0.2,5.8,0,9.2,0.6c-1.1,0.9-1.8,1.4-2.4,1.9c-3.9,3-7.8,6-11.5,9.1
	c-2.9,2.4-5.5,5-7.7,8c-0.8,1-1.7,2-1.7,3.4c0.4,0.6,0.9,0.7,1.4,0.3c0.8-0.6,1.5-1.2,2.3-1.8c5.3-4.3,11-8.2,17-11.5
	c0.6-0.3,1.2-1,2.3-0.6c-0.4,0.5-0.7,1-1.1,1.5c-1.6,2-2.7,4.2-3.6,6.6c-1,2.7-1.6,5.4-1.5,8.3c0.4,10.5,0.8,20.9,1.3,31.3
	c0.1,2.1,0.4,4.1,0.6,6.2c0.1,1.1,0.3,2.2,0.6,3.2c0.5,1.7,1,2.1,2.8,2c2.6-0.2,5.2-0.4,7.8-0.7c5.5-0.6,11.1-0.5,16.7-0.4
	c1.4,0,2.8,0.1,4.3,0c0.7,0,1.5-0.3,2.3-0.4c0.2-1,0.5-2,0.6-2.9c1.2-11,1.8-21.9,0.7-32.9c-0.5-5-1.7-9.9-3.8-14.5
	c-0.8-1.8-1.8-3.5-2.9-5.1c-2.5-3.7-6.2-5.7-10.6-6.4c-1-0.2-2.2,0-3.2-0.7c2.6-1.6,5-2.4,7.6-2c5.2,0.7,10.3,1.5,15.5,2.3
	c2.8,0.4,5.6,1.1,8.4,1.5c1.6,0.2,3.2,0.3,5,0.4c0.7,1.5,0.4,3.2,0.9,5c-1.3-0.3-1.3-1.3-1.8-1.8c-0.3-0.3-0.7-0.4-1-0.6
	c-0.2,0.4-0.5,0.7-0.5,1.1c0.1,1,0.4,1.9,0.6,2.9c1.9,9.2,3.2,18.4,3.2,27.9c0,4.2-0.6,8.2-1.4,12.3c-1.5,8.3-2.7,16.5-4,24.8
	c-1.3,7.6-2.6,15.3-4.5,22.7c-0.2,0.8-0.5,1.7-0.7,2.5c-1.2,4.6-3.6,8.6-7,12c-3.6,3.7-7.6,6.9-11.7,9.9
	c-10,7.1-20.6,13.1-31.6,18.4c-6.7,3.3-13.4,6.2-20.4,8.8c-3,1.1-5.9,1.3-8.9,0.6c-6.2-1.4-12.2-3.4-18-5.7
	c-18.9-7.3-37.2-16-55-25.8c-0.8-0.4-1.5-0.9-2.3-1.3c-0.2-0.1-0.3-0.3-0.6-0.6C394.1,342.5,394.6,341.4,395.1,340.4z M393,340.2
	c-2,0.2-3.5-0.8-4.8-2.2c-1.2-1.3-2.1-2.8-2.6-4.5c-1.7-5.3-2.3-10.6-1.3-16.1c0.7-3.6,2.3-6.8,4.9-9.4c1.1-1.1,2.3-2.1,4-2.6
	C399.2,315.4,399.2,330.9,393,340.2z M450.4,129.1c-2.9,2.6-5.7,5.4-8.4,8.2c-5.1,5.4-10,10.9-15,16.4c-0.6,0.7-1.4,1.2-0.9,2.5
	c0.8,0,1.6,0.1,2.4,0c3.1-0.2,6.3-0.5,9.5-0.7c10.2-0.8,20.4-1.3,30.7-1.4c7,0,13.9-0.1,20.9,0.8c0.3,0,0.6,0.1,1,0.1
	c4.2,0.6,4.7,1,6.7,5.4c-1.4,0.5-2.8-0.1-4.1-0.1c-1.5,0-3-0.1-4.6-0.2c-1.4-0.1-2.8-0.1-4.2-0.2c-1.5-0.1-3-0.2-4.6-0.3
	c-1.4-0.1-2.8-0.1-4.3-0.1c-1.4,0-2.8-0.1-4.3-0.1s-3,0-4.6,0c-1.4,0-2.8,0-4.3,0c-1.4,0-2.8,0-4.3,0s-3,0-4.6,0.1
	c-1.4,0-2.8,0-4.3,0.1c-1.5,0-3,0.1-4.6,0.1c-1.4,0.1-2.8,0.2-4.2,0.3c-1.4,0.1-2.8,0.1-4.2,0.2c-1.5,0.1-3,0.2-4.6,0.3
	c-1.4,0.1-2.8,0.3-4.2,0.4c-1.4,0.1-2.8,0.3-4.2,0.4c-1.5,0.2-3,0.3-4.5,0.5c-1.4,0.2-2.8,0.4-4.2,0.5c-1.5,0.2-3,0.4-4.5,0.7
	c-1.4,0.2-2.8,0.4-4.5,0.7c0.5-1,0.7-1.7,1-2.3c3.2-5,6.8-9.6,10.5-14.1c6.2-7.4,12.9-14.5,20.3-20.8c3.2-2.7,6.5-5.1,10.1-7.1
	c3.3-1.9,6.8-2.1,10.5-1.4c1.4,0.3,2.7,0.8,4,1.4c3.3,1.8,5.6,4.7,7.6,7.8c-0.9,0.5-1.3-0.2-1.9-0.4c-1.4-0.5-2.8-1.3-4.2-1.8
	c-3-1-5.8-0.6-8.5,0.9C453.3,126.8,451.8,127.9,450.4,129.1z M451.6,153c-7.2,0.5-14.3,1-21.3,1.4c-0.3,0-0.6-0.1-1-0.3
	c0.2-0.4,0.2-0.7,0.4-0.9c6.3-7.2,12.7-14.3,19.7-21c0.5-0.5,1.1-0.9,1.7-1.4c0.3,0.2,0.5,0.4,0.5,0.5
	C452,136,452.1,149.8,451.6,153z M385.5,202.3c0-0.8-0.1-1.5-0.1-2.3c0-0.2,0.1-0.4,0.2-0.8c0.3-0.2,0.6-0.4,1-0.6
	c14.5-7.6,29.6-13.2,45.8-15.9c12.2-2,24.5-2.6,36.8-1.8c7.5,0.5,15,1.2,22.4,2.3c20.8,3.1,41,8,60.4,16.3c2.9,1.3,5.7,2.7,8.5,4.1
	c0.6,0.3,1.1,0.7,1.8,1.1c-0.3,0.7-0.4,1.5-0.7,2.1c-2.9,4.9-6.7,9.1-11,12.8c-1.1,1-2.5,1.4-3.9,1.3c-2.6-0.2-5.2-0.3-7.8-0.6
	c-10.3-1.1-20.5-2.4-30.8-3.5c-14.4-1.5-28.8-2.8-43.4-2.3c-8.2,0.3-16.3,1.2-24.4,2.4c-17.2,2.5-34,6.5-50.9,10.3
	c-1,0.2-2.1,0.4-3.2,0.6c-0.2-0.5-0.4-0.8-0.4-1.1C386.4,218.6,386,210.4,385.5,202.3z M385.9,229.8c0.6-0.2,1.3-0.4,2.1-0.6
	c14.2-3.3,28.4-6.7,42.8-9.2c11.2-2,22.4-3.5,33.7-4c5-0.2,10-0.1,15,0.1c7.7,0.4,15.4,1,23.1,1.7c6.8,0.6,13.6,1.5,20.5,2.2
	c6.4,0.7,12.8,1.4,19.2,2.1c1.1,0.1,2.2,0,3.3,0.2c3.3,0.5,5.9-0.8,8.2-3.1c3.8-3.9,7.6-7.8,10.1-12.7c0.1-0.2,0.3-0.3,0.4-0.5
	c2.4,0.8,4.7,2.3,7.6,5.1c-0.2,0.6-0.5,1.3-0.8,2c-1.6,3.3-3.5,6.5-5.8,9.4c-1.3,1.7-2.9,3.3-4.7,4.5s-3.7,1.7-5.9,1.3
	c-6-1.1-12-2.1-18-3c-7.2-1-14.5-1.8-21.7-2.7c-10.4-1.2-20.9-1.5-31.3-1.5c-9.6,0-19.1,0.5-28.7,1.4c-19.7,1.9-39,5.4-58.1,10.3
	c-2,0.5-4,1-6,1.4c-1.3,0.3-2.5,0.6-3.8,0.2C385.4,232.7,385.4,232.7,385.9,229.8z M521.3,226.1c-8.6,3.2-16.6,7.6-24.2,12.9
	c-0.2,0.1-0.4,0.1-0.6,0.2c-0.1-0.1-0.3-0.2-0.4-0.3c0.7-0.7,1.3-1.4,2-2c4.6-4.1,9.6-7.8,14.7-11.4c1.1-0.8,2.3-1.2,3.7-0.9
	c1.7,0.3,3.4,0.4,5.3,0.6C521.7,225.7,521.6,226.1,521.3,226.1z M524.2,230.5c5.2,0.7,9.1,3.3,11.5,8.1c2.5,4.9,4.2,10,4.8,15.5
	c0.9,8.3,0.9,16.5,0.2,24.8c-0.2,2.8-0.6,5.6-0.9,8.4c0,0.5-0.2,1-0.3,1.4c-0.4,0.2-0.6,0.4-0.8,0.4c-9.7-0.1-19.3,0.4-29.1,1.2
	c-0.2-0.7-0.4-1.3-0.4-1.9c-0.5-8.1-1-16.3-1.5-24.4c-0.3-5-0.6-10-1-15c-0.2-2.8,0.3-5.4,1.6-7.9c1.2-2.3,2.6-4.5,4.4-6.5
	C515.8,231,519.8,230,524.2,230.5z M498.2,225.8c-9.1,10.9-18.3,21.8-27.5,32.8c-2.7,3.3-5.5,6.5-8.2,9.8c-0.5,0.6-0.9,1.2-1.7,2.3
	c-0.3-1.4-0.5-2-0.5-2.6c-0.1-8-0.3-16.1-0.4-24.1c-0.1-5.1-0.3-10.2-0.4-15.3c0-1.4,0-2.8,0-4.1c1.4-0.9,2.7-0.8,4-0.8
	c17.7-1,31.2-1,35.8,0C499.6,224.7,498.7,225.2,498.2,225.8z M430.9,287.9c0.1,1.8,0.2,4.7,0.2,8.4c-1.8,0.2-4.5,0.4-7.9,0.5
	c-5.3,0.2-7.9,0.1-13.4,0.2c-3.1,0.1-6.3,0.3-9.6,0.5c-0.3-0.7-0.6-1.4-0.8-2.1c-1.3-7-2.6-13.9-3.1-21c-0.5-7.7-0.5-15.4,1.1-23.1
	c1-4.8,2.8-9.2,6.2-12.8c0.7-0.7,1.4-1.4,2.2-1.9c1.4-0.9,2.9-1.2,4.7-0.7c3.4,1,6.9,1.8,10.4,2.8c0.8,0.2,1.6,0.7,2.1,1.3
	c1.7,1.9,2.9,4,3.5,6.3c0.5,1.7,0.4,3.1,0.4,3.4C426.9,257.6,430.1,268.1,430.9,287.9z M405.7,233.1c0.8-0.5,1.1-0.8,1.5-0.9
	c1.6-0.4,3.2-0.6,4.8-1.1c2.3-0.7,4.5-0.5,6.7,0.4c4.5,1.8,8.5,4.3,12.1,7.4c0.1,0.1,0.2,0.4,0.3,0.6c0,0.1-0.1,0.1-0.2,0.2
	c-0.1,0-0.2,0.1-0.3,0.1C422.7,237.1,414.5,234.9,405.7,233.1z M428.5,235.1c-1.4-1-2.9-1.9-4.4-2.8c-1.3-0.9-3-1.2-4.5-2.6
	c7.2-1.6,14.1-2.7,21.2-3.5c0.2,2-0.7,3.5-1.1,5.1c-0.4,1.7-1,3.3-1.5,5c-0.5,1.6-1,3.3-1.6,5.1c-1.8-0.9-2.8-2.3-4.2-3.3
	C431,237.1,429.8,236,428.5,235.1z M443.2,225.9c4.5-0.7,8.8-1.1,13.1-1.5c0,0.4,0.1,0.7,0,0.8c-6.3,8.3-12.6,16.6-18.9,24.9
	c-0.5,0.7-1.1,1.3-2,2.3c0-0.9,0-1.3,0.1-1.7C438.1,242.4,440.4,234.1,443.2,225.9z M557.1,307.2c-0.9-0.2-1.5-1.1-1.1-2
	c0.5-1.2,1-2.4,1.8-3.5c1.4-1.8,2.9-3.5,4.4-5.2c3-3.4,3.9-7.2,2.6-11.5c-0.3-1-0.9-2-1.5-2.9c-0.4-0.7-0.5-1.4-0.3-2.2
	c1.3-3.6,3.8-6.2,6.9-8.6c1,1.4,0.8,2.4,0.9,3.3c0,0.7,0,1.3,0.1,1.9c0,0.2,0.3,0.4,0.4,0.4c0.3,0,0.5-0.2,0.8-0.3
	c0.1,0,0.2-0.2,0.2-0.3c0.4-1.7,0.3-3.5-0.3-5.1c-0.5-1.2-1.8-1.8-2.9-1.1c-3.7,2.5-6.5,5.7-7.8,10.1c-0.3,1.1,0.1,2.1,0.8,3
	c1.5,1.9,1.7,4.2,1.5,6.5c-0.1,1.4-0.5,2.8-1.4,4c-1.6,2.2-3.5,4.1-5.8,6.6c0.3-2,0.4-3.2,0.6-4.4c1.1-6.5,2.2-13.1,3.2-19.6
	c0.4-2.9,1.5-5.5,2.9-7.9c1.8-3.2,4.7-5.4,8.2-6.6c1.9-0.6,3.5-0.1,4.6,1.6c0.9,1.5,1.6,3.1,2.2,4.7c1.9,5.8,2.1,11.8,1.7,17.8
	c-0.7,9.4-4,17.8-9.8,25.2c-2.4,3-5,5.7-8.3,7.7c-2.2,1.3-4.5,2.1-7.1,1.9c-0.5,0-1-0.2-1.7-0.4c0.7-3.8,1.5-7.5,2.1-11.1
	c0.8-0.8,1.4-0.2,2-0.2c1,0,1.9,0,2.9-0.2c0.2,0,0.3-0.6,0.5-1.1C559,307.4,558,307.4,557.1,307.2z M511.1,398.6
	c0.1,2,0.6,4.1,1.1,6.6c-1.1,2.2-2.5,4.9-3.9,7.6c-0.3,0.5-0.9,1-1.4,1.2c-1.2,0.5-2.4,1-3.7,1.4c-9.1,3.4-18.3,6.3-27.9,7.9
	c-7.5,1.3-15.1,2-22.8,1c-9.3-1.2-17.3-4.8-24.4-11.2c0.5-1.8,1.4-3.4,2.2-5c0.8-1.7,1.6-3.3,2.5-5c0.8-1.6,1.7-3.3,2.6-4.9
	c0.9-1.5,1.5-3.3,3.1-4.8c0.2,1,0.4,1.8,0.4,2.5c-0.1,3.8-0.2,7.6-0.3,11.4c0,0.9-0.5,1.9,0.4,3c0.3-0.3,0.8-0.5,0.8-0.8
	c0.3-1,0.6-2.1,0.6-3.2c0-6.1,0.1-12.2-0.2-18.3c-0.3-6.5-1-13-2.1-19.5c0-0.2,0.1-0.4,0.2-0.6c1.2-0.3,2.1,0.5,3,0.9
	c6.5,2.7,13.1,5.4,19.9,7.4c3.4,1,7,1.7,10.5,2.5c1.8,0.4,3.5,0.2,5.1-0.4c3.7-1.4,7.4-2.7,11-4.2c7.3-3,14.3-6.5,21.2-10.2
	c0.9-0.5,1.9-0.9,3.3-1.6c-0.3,4.4-0.6,8.2-0.9,12C511,382.5,510.7,390.6,511.1,398.6z M506,417.3c-3.5,7.1-6.9,14.3-10.4,21.5
	c-1.1,0.2-2.2,0.5-3.2,0.6c-7.8,1-15.5,2.2-23.3,3c-8.2,0.8-16.5,1.1-24.8-0.3c-3.7-0.6-7.2-1.7-10.6-3.3c-3.9-1.8-9.5-5.5-13.1-8.6
	c0.5-2.7,3.8-10.2,6.5-15.1c0.5,0.3,1.1,0.5,1.6,0.8c0.7,0.5,1.4,1.1,2.1,1.6c7.3,5.5,15.5,8.2,24.6,8.8c9.4,0.6,18.7-0.7,27.8-2.9
	c7-1.7,13.8-3.9,20.6-6.4c0.6-0.2,1.2-0.4,1.9-0.5c0.1,0,0.2,0.1,0.3,0.1C506,416.9,506.1,417.1,506,417.3z M435.7,366.7
	c0.9,1.2,0.9,2.8,1.1,4.3c0.6,5.5,1.2,11,1.8,16.6c0.1,1.3-0.2,2.5-0.9,3.7c-7.8,13.5-14.6,27.5-20.4,42c-0.4,0.9-0.8,1.8-1.2,2.8
	c-0.9-0.5-1.7-1-2.4-1.5c-7.8-5.1-13.9-11.9-18.9-19.7c-6.1-9.4-10.3-19.7-13-30.5c-0.1-0.3-0.1-0.6-0.2-1c0-0.2,0-0.4,0.1-0.8
	c9.8-8.6,19.2-17.8,27.7-27.8C410.9,355,427.4,362.6,435.7,366.7z M585.4,216.5c3.9,1.4,7.8,2.8,11.7,4.3c4,1.5,7.9,2.9,11.8,4.8
	c-0.5,0-0.9,0.2-1.4,0.1c-3.3-0.3-6.5-0.7-9.7-1c-4.1-0.4-8.3-0.6-12.4-0.9c-0.8,0-1.5,0-2.3,0.1c-0.4,0-0.7,0.4-1,0.5
	c0.2,1.3,1.2,1.3,1.9,1.7c5.8,2.7,11.7,5.3,17.5,8.1c6.1,2.9,12,6.3,17.5,10.1c0.9,0.6,1.7,1.3,2.3,2.3c-0.7-0.1-1.4-0.2-2-0.3
	c-5.9-1.5-11.8-3.1-17.7-4.5c-2.5-0.6-5.2-0.8-7.7-1.2c-0.4-0.1-0.9,0-1.2,0.2c-0.2,0.2-0.3,0.7-0.2,1.1c0.1,0.2,0.5,0.4,0.8,0.6
	c7.3,4.1,13.6,9.5,19.7,15c7.8,7,15.2,14.4,21.9,22.4c2.2,2.7,4.2,5.5,6.3,8.3c0.2,0.3,0.4,0.6,0.6,1.1c0.7,0.4,1.4,0.9,2,1.3
	c-4.9,1-24.5,4.8-33,6.7s-35.5,10.1-31.4,12c4.1,1.8,14,5.9,18,7.9c4,2.1,17.7,8.3,14.3,8.3s-18.1-0.1-22.6-0.2s-26.2-0.4-23.7,1
	c2.6,1.3,17.4,6.6,13.8,6.8s-30.4,4.3-26.6,4.8s22.5,4,17.7,5.1s-27.7,7-28.7,6.8c-1-0.1-7.1-1.8-7.1-1.8s9-7.9,11.2-11.1
	s6-15.5,6-15.5s2.6,1.2,5.3,0.6s9.8-5.3,12.2-8.3c2.5-3,9.5-12.7,10.6-21.2c1.1-8.6,2.2-19.4-1.7-27c0,0,0.2,0,0.5,0
	c-0.3-0.7-0.7-1.5-1.1-2.2c-1.7-3-4.2-3.9-7.5-2.7c-1.3,0.5-2.5,1.2-3.7,1.8c-0.5-0.7-0.1-1.2,0.1-1.6c1.4-2.9,2.9-5.8,4.9-8.4
	c0.3-0.3,0.4-0.7,0.5-1.1c0-0.1-0.1-0.4-0.3-0.5c-0.1-0.1-0.4-0.1-0.6-0.1c-0.4,0.2-0.8,0.5-1,0.8c-0.9,1.2-1.8,2.5-2.5,3.8
	c-1.5,2.7-2.8,5.4-4.1,8.1c-0.5,1-0.9,1.9-1.4,2.9c-0.8,0-0.7-0.6-0.7-0.9c0.1-8.1-1-16.1-2.4-24.4c0.8,0.6,1.4,1,2.3,1.6
	c0.2-0.7,0.4-1,0.4-1.4c0-1,0-2-0.3-2.9c-0.6-2.2,0-4,1.1-5.9c3.5-6.2,6.9-12.6,10.4-18.9c0.2-0.3,0.4-0.5,0.7-0.9
	C577.5,213.4,581.4,215.1,585.4,216.5z M478.2,84.5c17.2,3.8,33.8,9.1,49.9,16.3c7,3.1,13.7,6.7,20.1,10.9c3.9,2.6,7.7,5.4,11.1,8.6
	c5.2,4.8,9.1,10.5,11,17.5c1.8,6.7,3.3,13.5,4.2,20.5c2.3,16.8,2.4,33.7,2,50.5c0,0.7-0.1,1.4-0.3,2.6c-4.2-1.2-6.6-4.5-10-6.2
	c-0.1-0.7-0.1-1.2-0.2-1.7c-0.5-6.3-0.8-12.6-1.6-18.9c-1-8.5-2.3-17-3.7-25.5c-1.3-8.1-2.9-16.1-5-24c-1.1-4-3.2-7.3-6.4-10
	c-3.5-3-7.2-5.6-11.1-8.1c-9.7-6.2-19.8-11.5-30-16.5C497,95,485.6,89.8,474,85c-0.9-0.4-1.7-0.8-2.5-1.6
	C473.8,83.6,476,84,478.2,84.5z M502.1,99.2c10.1,4.8,20.1,9.9,29.8,15.7c3.3,1.9,6.5,4,9.7,6.1c1.4,0.9,2.7,1.9,4,2.9
	c7.8,6.2,7.5,7.2,9.4,14.3c2,7.6,3.5,15.3,4.6,23c1.3,8.7,2.5,17.5,3.7,26.2c0.5,4.3,0.8,8.7,1.1,13c0.1,0.9,0,1.7,0,2.8
	c-0.6-0.1-1-0.1-1.4-0.3c-14.4-7.9-29.8-12.7-45.6-16.6c-12.3-3-24.8-5-37.3-6.3c-7.4-0.8-14.8-1.1-22.2-1c-1.2,0-2.4,0.2-3.7-0.3
	c-0.5-2.9-0.3-5.8-0.3-8.7c0-2.8-0.3-5.6,0-8.6c2.8-0.4,5.3-0.3,7.9-0.3c2.5,0,5,0,7.5,0.1c2.6,0.1,5.2,0.2,7.8,0.3
	c2.5,0.1,5,0.1,7.5,0.2c2.6,0.1,5.2,0.3,7.8,0.5c2.5,0.1,4.9,0.4,7.6,0.3c-0.4-2.6-1.9-4-3-5.7c-0.5-0.8-1.1-1.7-1.9-2.2
	c-0.9-0.5-2.1-0.7-3.1-0.8c-5-0.5-10-1-15-1.2c-6.5-0.1-13.1,0.2-19.6,0.3c-1.1,0-2.2,0-3.4,0c-0.2-0.4-0.4-0.8-0.4-1.2
	c-0.1-7.3-0.1-14.6-0.1-21.9c0-0.3,0.1-0.6,0.2-1.1c3.4-2.9,7.2-3.4,11.2-1.4c2.3,1.1,4.6,2.5,6.8,3.8c1,0.5,1.9,1.1,2.8,1.6
	c0.3,0.2,0.8,0,1.5,0c-0.3-0.7-0.5-1.2-0.8-1.6c-2.2-2.7-4.4-5.4-6.7-8c-0.8-0.9-1.6-1.8-2.4-2.7c-2.3-2.2-4.9-3.6-8-4.2
	c-1.2-0.2-2.4-0.4-3.7-0.6c-0.1-0.6-0.3-1.2-0.3-1.8c0.1-10.2,0.3-20.5,0.4-30.7c0-0.5,0.1-1,0.3-1.9c3.4-0.2,6.3,0.3,9.2,1.4
	C477,87.6,489.6,93.2,502.1,99.2z M444.2,78.4c0.6-1,1.6-1.4,2.7-1.7c4.3-1.1,8.5-1.2,12.8-0.2c1.6,0.4,3,1.1,3.6,3.5
	c-3.6-0.3-6.7-0.7-9.8-0.7c-3.1-0.1-6.3,0.1-9.6,0.2C444.1,79.1,444,78.7,444.2,78.4z M448.1,82.2c1.5-0.3,2.9-0.6,4.9-1.1
	c0,11.8-0.1,23.1-0.5,34.3c-0.4,0.3-0.7,0.5-1,0.6c-3.9,1-7.2,3.1-10.4,5.4c-5.5,4-10.4,8.6-15.1,13.4c-7.5,7.7-14.4,15.8-20.3,24.7
	c-0.9,1.4-1.7,2.8-2.5,4.2c-0.2,0.4-0.3,1-0.4,1.7c1,0,1.9,0.1,2.7,0c7.4-1.4,14.9-2.3,22.3-2.9c7.4-0.6,14.8-0.8,22.2-1.2
	c0.6,0,1.2,0.2,2.1,0.3c0.2,5.7,0.3,11.4,0.2,17.2c-1,0.2-1.8,0.3-2.7,0.4c-16.5,0.9-32.3,4.3-47.6,10.5c-4.5,1.9-8.9,4-13.4,6.1
	c-1,0.4-1.8,1.2-3.2,1.1c-0.6-1.4-0.4-2.9-0.6-4.4c-0.3-1.6-0.4-3.2-0.6-4.9c-0.2-1.5-0.4-3-0.6-4.5s-0.4-3-0.6-4.5s-0.4-3-0.7-4.5
	c-0.3-1.6-0.5-3.2-0.8-4.8c-0.3-1.5-0.5-3-0.8-4.5s-0.6-3-0.9-4.5c-0.3-1.6-0.6-3.2-0.9-4.8c-0.3-1.5-0.6-3-0.9-4.5s-0.6-3-1-4.5
	c-0.3-1.5-0.6-3-1-4.5c-0.3-1.6-0.7-3.2-1.1-4.8c-0.4-1.5-0.7-3-1.1-4.5c0.5-1.5,1.8-2.4,2.9-3.5c9.3-9.4,19.3-17.9,30-25.7
	c7.2-5.3,14.7-10.1,22.7-14.2C435.5,86.3,441.6,83.8,448.1,82.2z M373.5,116.9c4.9-4.4,10.1-8.2,15.6-11.9
	c11-7.4,22.5-13.7,34.8-18.4c5.1-1.9,10.3-3.5,15.7-4.5c0.6-0.1,1.3-0.2,1.9-0.3c0,0.2,0.1,0.3,0.1,0.4c-0.5,0.2-0.9,0.5-1.4,0.7
	c-10.2,3.8-19.5,9.1-28.5,15.2c-12.9,8.8-24.8,18.8-35.9,29.8c-0.7,0.7-1.4,1.3-2.3,2.1c-1.2-3.6-1.9-7-2.8-10.4
	C371.6,118.7,372.5,117.7,373.5,116.9z M338.7,148.3c0.4-2.6,1.8-5.1,2.8-7.6c3.2-7.7,6.7-15.4,10.7-22.7c1.6-2.9,3.3-5.6,5.1-8.3
	c1-1.4,2.1-2.8,3.3-4c0.8-0.9,1.7-1.7,3.2-1.8c0.3,0.5,0.7,1,0.8,1.5c1.3,4.6,2.6,9.2,3.9,13.8c0.9,3.3,1.8,6.5,2.6,9.8
	c0.3,1,0.4,2.1,0.5,3.2c0,0.3,0,0.7,0.1,1c2.9,7.9,4.1,16.2,5.7,24.4c1.7,8.9,3.2,17.8,4.4,26.7c1.9,13.8,2.8,27.7,2.2,41.7
	c0,1-0.1,2-0.3,2.9c0,0.2-0.3,0.3-0.5,0.6c-0.4-0.4-0.8-0.7-1.1-1.1c-4.5-5.8-9.9-10.7-15.8-15c-4.3-3.1-8.9-5.9-13.4-8.8
	c-1-0.6-1.7-1.3-2-2.4c-2.3-7.7-4.6-15.4-6.9-23.1c-2-6.8-3.7-13.6-4.8-20.6c-0.1-0.5-0.2-1.1-0.3-1.6
	C339,153.9,338.4,151,338.7,148.3z M334.4,160.8c0.2-2.7,1-5.1,2.3-7.4c0-0.1,0.2-0.1,0.4-0.1c0.6,3.6,1.1,7.3,1.8,10.9
	c1.7,8.9,4.4,17.5,7.1,26.1c0.9,2.9,1.8,5.8,2.7,8.7c0.2,0.8,0.4,1.7,0.7,3c-5-2.4-9.4-4.6-14.1-6.9c-0.2-1.3-0.4-2.7-0.5-4.1
	C334.3,181,333.7,170.9,334.4,160.8z M125.9,142.9c0-0.7,0.4-1.4,0.6-2.3c0.8,0.2,1.6,0.3,2.3,0.6c10.1,3.9,20.1,8.3,29.9,13.1
	c17.5,8.5,34.4,18,50.4,28.9c6.3,4.3,12.5,8.8,18.3,13.7c4.8,4,9.4,8.1,13.4,12.9c0.3,0.4,0.8,0.7,1.1,1c0.8-0.2,1.2-0.5,0.8-1.1
	c-0.4-0.7-1-1.4-1.6-2.1c-2.5-2.6-5.1-5.1-7.6-7.7c-0.7-0.7-1.4-1.3-2.3-2.2c0.7-0.4,1.2-0.8,1.8-0.9c8.9-2.8,18.1-5,27.3-6.5
	c11.2-1.8,22.5-2.5,33.9-2c12.3,0.5,24.3,2.5,35.8,6.8c5.7,2.1,11.3,4.7,16.6,7.5c6.5,3.5,12.9,7.2,18.8,11.7
	c4.5,3.4,8.9,7.1,12.7,11.3c6.7,7.3,10.5,15.8,11.6,25.7c0.9,8.2,0.8,16.3,0.1,24.5c-0.4,5-0.7,10-1,15c-0.3,3.6,0.3,6.9,2.4,9.9
	c0.6,0.8,0.9,1.7,1.5,2.9c-0.3,0.2-0.6,0.3-0.8,0.5c-5.7,3.3-8.5,8.6-9.3,15c-0.6,4.7-0.1,9.4,1.3,13.9c0.5,1.4,1.1,2.8,1.8,4.2
	c1.4,2.5,3.6,4,6.5,4.9c-0.4,0.8-0.7,1.4-1.1,2c-3.1,4.8-7,8.9-11.3,12.6c-11.5,9.8-24.3,17.3-38.6,22.1c-4.6,1.5-9.3,2.1-14,3.1
	c-6.7,1.4-13.4,0.9-20.2,0.3c-7.8-0.7-15-3.5-22.2-6.3c-1.3-0.5-1.3-0.6-2.8-0.2c0.3,0.4,0.5,0.8,0.8,1c5.1,2.9,10.2,5.8,15.4,8.6
	c2,1.1,4.2,1.8,6.3,2.7c3.8,1.5,7.6,1.6,11.5,0.8c7.9-1.6,15.5-4.3,23-7.2c1.3-0.5,2.6-1,4-1.5c14.5-5,27.4-12.8,38.9-22.9
	c3.5-3,6.5-6.4,9.2-10.1c0.4-0.6,1-1.2,1.5-1.8c5.1,2.8,10.2,5.5,15.4,8.3c-0.4,0.6-0.6,1.1-1,1.5c-6.2,7.5-13.2,14.2-20.3,20.9
	c-1.7,1.6-3.3,3.1-5.4,4.7c-0.3-1.2-0.6-2.1-0.9-3c-0.1-0.3-0.5-0.4-0.7-0.6c-0.2,0.3-0.6,0.6-0.7,0.9c-0.1,0.6,0,1.3,0.2,1.9
	c2.7,14.1,8,27.1,16.2,38.9c5,7.2,11.2,13.3,18.7,18c3,1.9,6.1,3.8,9.2,5.7c2.5,1.6,5,3.1,7.4,4.8c1.8,1.3,3.6,2.9,5.2,4.5
	c3.7,3.8,5.6,8.5,6,13.8c0.3,3.8,0,7.6-0.8,11.4c-1.1,5.5-2.7,10.8-4.7,16c-0.1,0.2-0.2,0.4-0.3,0.5c-4.2,1.8-8.4,3.7-12.6,5.5
	c-0.8-0.2-0.8-1-1-1.5c-0.9-2-1.7-4-2.7-6c-0.6-1.1-1.5-2.2-2.4-3c-1.5-1.4-3.3-1.6-5.2-0.7c-0.5,0.2-0.9,0.5-1.3,0.8
	c-4.8,5.2-8.9,9.5-11.7,12.5c-1.2,1.4-2.4,2.7-3.6,4.1c-0.1,0.1-0.2,0.2-0.2,0.2c-0.5,0.6-1.3,1.3-2.3,2s-2.2,1.2-3.5,1.5
	c-0.1,0-0.1,0-0.2,0.1c-1.1,0.5-2.4,1.3-3.9,3c0,0.1-0.1,0.1-0.1,0.2c-0.7,3.5-2,5.8-3,7.1c-0.7,0.9-1.3,1.6-2.4,2.5
	c-0.8,0.8-1.6,1.5-2.5,2.2c-3,2.2-6,4.4-8.9,6.7c-0.2,0.2-0.5,0.4-0.7,0.6l-10.4,9.2c0,0.1-0.1,0.1-0.1,0.2
	c-2.3,5.4-4.5,10.7-6.8,16.1c-0.1,0.2-0.1,0.3-0.2,0.5c-0.3,0-0.6,0-0.9,0.1c-1.7,0.2-3.3,0.5-4.6,0.8c-1.5,0.4-3,0.9-4.5,1.4
	c-3.6,1.4-5.4,2.7-8,2.4c-2.7-0.4-4.8-2.3-6.1-4l-0.1-0.1l0,0l0,0c1.4-3.2,2.9-6.4,4.3-9.6l3.6-13.7c0.4-1.7,0.8-3.4,1.3-5.1
	c0.1,0,0.2,0,0.3,0c1.8-7.3,3.4-14.7,5.1-22.1c3.5-15,7-29.9,10.4-44.9c0.5-2.1,0.9-4.3,1.3-6.4c0.1-0.5,0.2-1.1,0.2-1.6
	c0.1-1.7-1.2-2.7-2.8-2.1c-1,0.4-1.9,1-2.8,1.6c-0.7,0.4-1.3,1-2.2,1.6c-0.1-0.6-0.3-0.9-0.3-1.1c0-0.9,0.2-1.7,0.2-2.6
	c0-1.3,0.1-2.8-1.3-3.4c-1.2-0.6-2.3,0.1-3.3,0.8c-0.9,0.6-1.7,1.4-2.5,2.1c-0.4,0.3-0.8,0.7-1.5,1.2c-0.2-1.3-0.3-2.2-0.5-3.1
	c-0.5-2-2-2.7-3.7-1.5c-1.3,0.9-2.6,2-3.7,3.2c-3.1,3.4-5.5,7.3-7.7,11.3c-0.5,0.9-1.1,1.8-1.7,2.8c-0.4-0.4-0.7-0.5-0.8-0.8
	c-4.8-8.8-12.5-14.1-21.9-17c-12.5-3.8-24.5-2.4-36.1,3.6c-5.6,2.9-10.4,6.7-14.8,11.2c-4.6,4.8-8.5,10.2-11.8,16
	c-0.3,0.5-0.5,1-0.7,1.5c-0.1,0.2,0,0.4,0,0.6c0.5,0.5,1,0.6,1.4,0c0.6-0.8,1-1.7,1.5-2.5c3.4-5.8,7.5-11.2,12.4-16
	c6.8-6.6,14.6-11.4,23.8-13.6c12.5-2.9,24.2-1.2,35,6.1c4.1,2.8,7.4,6.4,9.7,10.8c0.9,1.7,0.9,3.1,0.1,4.9
	c-4.8,10.4-8,21.4-10.3,32.6c-0.2,0.8-0.3,1.7-0.4,2.6c0,0.5,0.1,1,0.7,0.9c0.3,0,0.8-0.5,0.8-0.8c0.9-3.9,1.7-7.9,2.7-11.8
	c2.5-9.8,5.9-19.1,10.5-28.1c2.2-4.3,4.6-8.4,7.7-12.1c1-1.3,2.2-2.4,3.4-3.5c0.4-0.4,1.1-0.6,1.6-0.9c1.1,0.9,1,2.1,0.9,3.1
	c-0.2,2.5-0.5,5-0.8,7.5c-0.4,2.5-1,4.9-1.5,7.4c-0.1,0.6-0.3,1.3-0.3,1.9c0,0.3,0.3,0.5,0.4,0.8c0.3-0.2,0.9-0.3,1-0.6
	c0.7-3.2,1.6-6.3,2-9.6c0.5-4.2,3-6.9,6.2-9.2c0.3-0.2,0.8-0.3,1.1-0.4c0.9,0.5,0.8,1.2,0.7,1.8c-0.3,3.1-0.6,6.3-1,9.4
	c-0.4,2.8-1,5.6-1.5,8.3c-0.1,0.7-0.1,1.3,1,1.5c0.2-0.6,0.6-1.3,0.8-2c0.5-2.6,1-5.1,1.4-7.7c0.2-1.5,0.7-2.8,1.8-3.7
	c1.3-1.1,2.6-2.3,4-3.3c0.3-0.2,0.8-0.2,1.2-0.3c0.5,1.3,0.1,2.5-0.2,3.6c-2.3,10-4.5,20-6.8,29.9c-0.3,1.2-0.5,2.3-0.8,3.5
	c-0.1,0.8-0.1,1.7-0.2,2.6c-2.5,10.4-5,20.8-7.5,31.1c-0.8,2.9-1.5,5.9-2.3,8.8c-0.1,0.4-0.2,0.7-0.3,1.1c-1,3.8-2,7.6-3,11.4
	c-0.5,2.2-1.4,5.2-3.4,8.1c-0.4,0.9-1,1.7-1.9,2.5l0,0l0,0l0,0c-0.7-0.3-1.4-0.6-2-0.9c-0.7-0.3-1.3-0.6-2-0.8c-1.6-0.4-4.4-1-7.5,0
	c-1.7,0.5-2.9,1.3-5.2,2.8c-1.7,1.2-3.1,2.3-4,3.1c-8-1.9-18.5-4.3-24.4-5.7c-7.7-1.8-31.8-7.5-38.6-10.4c-1.6-0.7-4.7-2.2-9.1-4.1
	l0,0c-0.5-0.2-1-0.4-1.5-0.6c-1.2-0.5-2.5-1-3.8-1.5c-4.8-1.8-8.7-3.2-11.3-4c-3.5-3.4-7.8-8-12.4-13.7c-6-7.5-9.8-13.8-12.2-17.7
	c-0.5-0.8-0.9-1.6-1.4-2.3c-2.3-3.8-4.4-7.7-6.3-11.7c-0.6-1.3-1.2-2.5-1.8-3.8c0.1,0.1,0.2,0.3,0.3,0.4c-0.5-1.6-0.5-3,0.1-4.6
	c3.4-9.1,6.9-18.1,11.3-26.8c0.4-0.8,0.7-1.6,1-2.4c0.3-1.3-0.5-2.4-1.9-2.4c-0.9,0-1.8,0.1-2.6,0.4c-1.5,0.6-3.1,1.1-4.5,1.9
	c-3.5,2-6.9,4.1-10.4,6.2c-0.9,0.5-1.8,1.1-3,1.9c-4.4-13.3-6.9-26.7-8.8-40.3c5-4.6,9.9-9.1,14.7-13.6c1.3,0.3,1.7,1.3,2.3,2
	c3,3.6,6,7.2,9.6,10.3c0.6,0.6,1.4,1.1,2.1,1.5c0.2,0.1,0.6-0.1,0.8-0.3c0.1-0.1,0.1-0.5,0-0.6c-0.2-0.4-0.5-0.7-0.8-1
	c-5-4.3-9.2-9.3-13.1-14.5c-7-9.3-13.2-19.2-19.2-29.2c-7.6-13-14.7-26.2-21.5-39.6c-0.7-1.5-1.5-2.7-3.1-3.6
	c-2.2-1.2-2.2-3.8-0.3-5.4c0.4-0.3,0.9-0.6,1.4-0.9c1.2-0.9,1.3-1.2,0.9-2.8c-0.1-0.3-0.3-0.6-0.4-0.9c-0.4-1.4,0-2.2,1.4-2.8
	c0.6-0.3,1.2-0.4,1.8-0.6c0.5-0.2,1-0.3,1.5-0.6c0.9-0.5,1.3-1.3,0.9-2.2c-0.3-0.7-0.7-1.4-1-2c0.4-1.4,1.5-1.6,2.6-1.8
	c1.1-0.2,2.2-0.1,3.1-0.2c1-0.7,0.8-1.6,0.7-2.5c-0.2-3.5,0.9-4.3,4.3-3.2c0.7,0.2,1.4,0.6,2.2,0.8c2.7,0.8,3.6,0.6,5.3-1.6
	c1.1-1.4,2.3-1.6,3.5-0.2c0.8,1,1.6,2.1,2.1,3.3c1.1,2.7,3,4.8,5.4,6.4c3.1,2.1,6.1,4.2,9.2,6.2c17.3,11.1,33,24.2,46.7,39.6
	c0.5,0.6,1,1.1,1.6,1.6c0.2,0.2,0.7,0,1.1-0.1c-0.1-1.4-1.1-2.1-1.8-2.9c-4.9-5.7-10.3-11-15.9-16c-10-8.9-20.5-17.2-32-24.3
	c-3.2-1.9-6.1-4.2-9.2-6.3c-1.9-1.2-2.2-2.7-1.7-4.8c1.1-4,2.1-8,3-12c0.3-1.5,1.1-2.5,2.2-3.5c4.1-3.9,8.2-7.8,12.1-11.9
	c5.3-5.5,10.1-11.4,14.3-17.9c1.9-3,3.7-6.2,5.2-9.4c1-2.1,1.6-4.5,2.1-6.8c0.6-2.8-0.1-5.4-2.3-7.4c-1.3-1.2-2.5-2.4-3.9-3.4
	c-3.8-2.7-7.6-5.5-11.5-8c-12.5-8.1-25.6-15.3-38.5-22.8c-5.3-3-10.5-6.2-15.8-9.2c-1.8-1-2.6-2.3-3.1-4.3
	c-3.4-12.6-5.4-25.3-6-38.3C125.5,148.8,125.7,145.8,125.9,142.9z M330.7,382.5c0.1,0.4-9.1,5.3-20.5,4.5c-9.3-0.7-15.9-4.8-19-7
	c2.5,1,5.9,2.2,10.1,3.1c2.2,0.5,8.2,1.6,16.4,1.2C325.9,383.9,330.7,382.2,330.7,382.5z M179.3,480.7c-3-6.4-5.5-12.6-7.4-19.2
	c5.3-3.7,10.5-7.1,16.3-9.6c1.1-0.5,2.2-1,3.6-0.7c-0.2,1.8-1.3,3.2-2,4.7c-0.7,1.7-1.6,3.3-2.3,5c-0.7,1.6-1.4,3.2-2.1,4.8
	c-0.7,1.6-1.3,3.2-2,4.8c-0.7,1.7-1.3,3.5-2,5.2C180.9,477.3,180.5,479,179.3,480.7z M170.4,395.6c2,2.9,4,5.6,5.9,8.3
	c-1.7,2.3-11.3,11.2-13.7,12.7c-0.2-0.1-0.4-0.2-0.5-0.4c-0.8-6-1.5-12.1-1.7-18.4C163.8,396.4,167.1,396.1,170.4,395.6z
	 M160.1,390.5c-0.1-1.7-0.1-3.5-0.1-5.2s-0.2-3.4,0.1-5.1c0.4,0.2,0.7,0.2,0.8,0.3c2.6,4.1,5.3,8.2,7.9,12.3
	c0.2,0.3,0.2,0.6,0.4,1.2c-2.9,0.6-5.5,1.1-8.4,1.6C159.9,393.9,160.2,392.2,160.1,390.5z M199.5,254.5c-0.2-0.3-0.4-0.5-0.7-0.7
	c-6.8-4.5-12.9-10-19-15.4c-13.6-12.1-26.7-24.7-39.6-37.5c-0.5-0.5-0.9-0.9-1.3-1.4c0.6-0.7,1-0.1,1.4,0.1
	c14.7,8.5,29.4,17,44,25.7c4.7,2.8,9.1,6,13.6,9.1c1.8,1.2,3.4,2.8,5,4.2c2,1.7,2.8,3.9,2.2,6.4c-0.4,2-1,4-1.8,5.9
	c-1.6,4.1-3.9,7.8-6.4,11.4c-4.8,6.9-10.3,13.3-16.1,19.3c-2,2-4,4-6.1,5.9c-0.5,0.4-1,0.7-1.9,1.3c0.8-4.5,2.2-8.2,3.5-12
	c3.2-9.7,6.8-19.3,11.3-28.2c1.1-0.4,1.5,0.3,2,0.6c2.5,1.9,5,3.8,7.6,5.7c0.5,0.4,1.2,0.5,1.8,0.7c0.1,0,0.4-0.2,0.5-0.3
	C199.6,254.9,199.6,254.6,199.5,254.5z M144.5,447.8c-8.1-6.8-10.3-9.2-13.6-12.2c-0.3-0.3-0.6-0.6-0.8-0.8
	c-0.1-0.3-0.1-0.4-0.1-0.5s0-0.2,0-0.3c7.1-17.2,14.3-34.4,21.4-51.5c-0.2-1.3-1.1-1.9-1.8-2.7c-11.2-12.2-22.5-24.3-33.7-36.5
	c-1.4-1.5-2.8-3-4.3-4.7c0.1-0.8,0.1-1.7,0.3-2.5c2.9-13.3,5.8-26.6,8.6-39.9c0.3-1.2,0.4-2.3,0.6-3.6
	c-33.9-29-67.6-57.9-101.5-86.9c2.8-47.4,5.7-94.8,8.5-142.1c1.2-0.4,1.4,0.6,1.8,1.1c4.8,6.6,9.6,13.2,14.5,19.8
	C55.2,99.2,66,114.1,76.9,129c0.5,0.7,1.1,1.4,1.5,2.1c4.5,7.4,9.6,14.3,15,21c4.3,5.4,8.7,10.6,13.3,15.7
	c8.1,9,16.2,17.9,24.6,26.7c4.8,5,10,9.7,15,14.6c12.4,12.1,25.1,23.9,37.9,35.6c0.8,0.7,1.5,1.5,2.2,2.2
	c-4.4,9.7-8.3,19.4-11.7,29.3c-3.3,9.8-5.7,19.8-8.3,30.2c-0.5-0.6-0.8-1-1.1-1.4c-0.7-0.9-1.3-2-2.2-2.8c-1.7-1.5-4-1.2-5.4,0.6
	c-0.1,0.2-0.2,0.4-0.3,0.6c-0.6,0.9-1.5,1.3-2.5,0.9c-0.7-0.2-1.4-0.5-2.2-0.7c-0.8-0.3-1.7-0.6-2.5-0.7c-2.8-0.5-4.6,1-4.8,3.9
	c0,0.6,0,1.3,0.1,2.1c-0.8,0.1-1.6,0.2-2.3,0.4c-0.8,0.2-1.7,0.4-2.5,0.8c-1.4,0.7-1.8,1.7-1.4,3.3c0.1,0.3,0.3,0.6,0.4,0.9
	c0.1,0.3,0.1,0.6,0.2,1.1c-0.6,0.3-1.2,0.5-1.8,0.7c-0.8,0.3-1.6,0.6-2.4,1.1c-1.3,0.8-1.9,2.1-1.5,3.7c0.2,0.6,0.4,1.2,0.6,2
	c-0.6,0.5-1.2,0.9-1.8,1.4c-2.7,2.4-2.6,6.1,0.4,8c1.4,0.9,2.2,2,2.8,3.4c6.5,13,13.4,25.7,20.7,38.2c0.8,1.5,1.3,2.9,1.3,4.6
	c0,11.8,0.8,23.5,2.1,35.2c1.8,16.1,4.4,28.3,6,34.1c0.4,1.5,0.8,2.8,1.1,3.7c-2.6-3.9-4.9-7.1-5.5-6.8c-0.9,0.4,2.4,7.5,1.3,8.1
	c-0.9,0.5-3.8-4.2-10.8-10.1c-1-0.8-1.8-1.5-2.4-1.9c3,4.9,6.1,9.8,9.1,14.6c-0.8-0.4-2-0.9-3.5-1.5c-2.5-1-3.6-1.1-4.9-1.6
	C149.1,451.7,148.4,451,144.5,447.8z M156.1,496.6c0.7-3.3,2-6.5,3-9.8s2.1-6.6,3.2-10c1.1-3.3,2.1-6.6,3.2-10c-2-2-4.1-4.1-6.4-6.2
	c-2.7-2.5-5.3-4.8-7.9-7c2.2,1,4.4,1.9,6.6,2.9c1.6,0.7,3.2,1.5,4.8,2.2c-0.1-1.3-0.8-2-1.3-2.7c-0.8-1.4-1.5-2.4-1.8-2.8
	c-0.9-1.3-2.4-3.3-4.6-6.9c1,1.2,2.5,2.9,4.5,4.8c2.3,2.1,5,4.8,5.9,4.2c1.1-0.8-1.8-6.9-1.5-7c0.2-0.1,1,1.5,2.9,5
	c2.6,4.9,4,7.4,5,11.4v0.1c1.5,6.5,3.9,11.9,8.7,22.7c2.1,4.7,5.2,11.1,9.8,18.5c-2,1.9-4.2,3.3-6.4,4.4
	C179.7,509,158.2,498.2,156.1,496.6z M286.1,641.4c-6.4-0.7-12.8-1.2-19.2-2c-8.4-1.1-16.8-2.3-25.2-3.6c-13.1-2-26.2-4.3-39.2-7
	c-5.2-1.1-10.5-2-15.6-3.6c-20.7-6.4-35.8-19.3-45-38.9c-0.8-1.8-1.4-3.6-2.2-5.5c-1-2.4-1-4.9-0.4-7.4c1-3.5,2-6.9,3.3-10.3
	c3.7-9.5,8.3-18.4,13.6-27.1c2.1-3.5,4.7-6.5,8-8.9c7.7-5.5,15.4-11.1,23.1-16.5c1.3-0.9,2.6-1.9,4.3-2.3c2.1,3,4.2,5.9,6.4,8.7
	s4.5,5.6,6.8,8.4c2.3,2.7,4.8,5.2,7.4,8.1c-4.3-0.4-8.1-1-11.8-1.2c-9.1-0.5-17.8,1.3-26.1,4.7c-0.3,0.1-0.6,0.3-0.9,0.4
	c-0.3,0.2-0.3,0.5,0.2,1.5c1.3-0.5,2.6-0.9,4-1.4c7.7-2.7,15.6-4,23.7-3.6c6.1,0.3,12.1,1.6,17.9,3.6c3,1,6,2.1,8.8,3.4
	c8.7,4.1,17.9,6.9,27.2,9.3c15,3.8,30,7.4,45,11.1c0.6,0.2,1.2,0.4,2,0.7c-0.7,0.8-1.1,1.3-1.6,1.8c-5.8,5.8-11,12.1-15.3,19.1
	c-2.1,3.3-3.9,6.8-5.3,10.5c-1.7,4.5-2.3,9-1.9,13.8c0.7,9.7,2.9,18.9,7,27.7c0.8,1.7,1.7,3.3,2.6,4.9c0.2,0.5,0.4,1,0.7,1.7
	C287.4,641.4,286.7,641.4,286.1,641.4z M315.8,656.9c-13.5,1.3-24.9-14.8-26.2-16.5c-1.1-1.5-5.7-8.2-8.3-21.5
	c-0.1-0.7-0.3-1.4-0.4-2.1c-0.2-1.2-0.4-2.4-0.6-3.5c-0.4-3.1-0.6-6.3-0.7-9.4c-0.1-1.1,0-2.1,0.1-3.1c0-0.1,0-0.2,0-0.3v-0.1
	c0.3-2.2,0.9-4.3,1.7-6.4c1.3-3.6,3.1-7,5.1-10.2c4.9-7.8,10.6-14.9,17.4-21.1c1.9-1.8,4-3.4,6.1-4.8c3.7-2.6,7.8-2.7,11.7-0.6
	c1.9,1,3.8,2.2,5.5,3.5c2.9,2.4,6,2.8,9.5,1.5c2.8-1,5.6-1.8,8.4-2.7c1.2-0.4,2.5-0.7,4.2-0.4c-0.2,0.8-0.3,1.3-0.5,1.8
	c-2.7,6.6-5.5,13.3-9,19.6c-0.7,1.2-1.2,2.5-1.7,3.9c-1.2,3.8-2.2,7.6-2.9,11.5c-0.2,1.4-0.4,3.4-0.6,5.7
	c-0.5,6.7-1.3,17.5,2.3,28.6c0.5,1.5,1.1,3,1.7,4.4c0,0.1,0.1,0.1,0.1,0.2c0.2,0.5,0.5,1.1,0.7,1.6c5.3,10.8,13.5,17.2,13.9,17l0,0
	c0.1-0.1-1.1-1.6-0.5-2.4c0.4-0.7,1.6-0.2,4.2-0.5c0.1,0,0.2,0,0.3,0c2.2-0.2,2.7-0.7,3.1-0.4l0,0l0,0c1.1,1-0.2,6.1-3.6,8.3
	c-2.5,1.6-5.5,1.3-9.8,0.2c-1.1-0.2-2.2-0.5-3.2-0.9c-0.2,0-0.3-0.1-0.5-0.1c-5-1.4-6.9-2.6-8.8-3.4c-1.1-0.4-2.2-0.7-3.3-0.9
	c-0.1,0-0.2,0-0.3,0C323.9,652.5,322.1,656.3,315.8,656.9z M378,687.6c-0.9,0.1-1.5,0.3-2.1,0.3c-17,0-34-0.1-51-0.1
	c-0.5,0-1.1-0.1-1.8-0.2c-0.1-0.6-0.3-1.1-0.3-1.6c0-9.6,0-19.2,0-28.8c0-0.2,0.1-0.4,0.2-0.8c3.1-2,6.6-2.2,10.1-1
	c2.3,0.8,4.5,1.8,6.7,2.6c3,1.2,6.1,2.2,9.4,2.7c1.3,0.2,2.6,0.3,3.9,0.1c3.8-0.4,6.5-2.4,8-5.9c0.4-1,0.7-2.1,1-3.1
	c0.2-0.7,0.4-1.4,0.7-2.3c5.2-0.8,10.4-1.6,15.5-2.3c0.5-0.1,1,0,2,0C379,661,378,674.2,378,687.6z M459.3,687.8
	c-0.6-0.1-1.2-0.2-1.8-0.3c-6.2-1.3-12.5-1.7-18.8-1.1c-6.5,0.7-13,1.4-19.5,2c-8.4,0.8-16.7,0.9-25-1c-4.6-1-9.2-1.8-14-0.7
	c-0.2-0.8-0.4-1.4-0.4-2c-0.1-7.5,0.4-15,0.9-22.5c0.3-4,0.7-8,1-12c0.1-1.1-0.1-2.2,0.7-3.4c2.4-0.4,5-0.9,7.5-1.3
	c17.1-2.8,34.1-5.9,50.9-9.9c4.9-1.2,9.7-2.6,14.5-4c1.8-0.5,3.6-1.4,5.4-2.1C461.2,632.7,460,683.5,459.3,687.8z M455.3,629.9
	c-2.7,1.1-5.4,1.8-10.3,3c-2.2,0.6-4.5,1.1-6.7,1.6c-2.3,0.6-5.2,1.3-8.5,2.1c-6.7,1.3-13.4,2.5-20.2,3.7
	c-10.1,1.9-20.1,3.6-30.3,5.1c-0.4,0.1-0.8,0.1-1.2,0.2c-4,0.6-8,1.3-12.1,1.9c-5.1,0.8-10.2,1.5-15.3,2.2c-1.1-1.2-2.6-3-4.4-5.3
	c0,0-0.8-1-1.4-1.8c-3.1-4.1-5.3-9.7-6.5-13.4v-0.1c-0.7-2.1-1-3.5-1-3.5c-2-7.9-1.9-14.2-1.8-17.6c0.2-4.7,0.8-8.7,1.3-11.6l0,0
	c0.5-2.9,1.2-5.9,2.1-8.8c0.8-2.8,1.9-5.5,3.3-8.1c4-7.3,7-15,10-22.7c1.7-4.1,3.4-8.3,5-12.4c0.9-2.3,2.2-4.1,4.1-5.8
	c5.1-4.4,10.3-8.7,15.8-12.6c1.5-1.1,2.9-2.3,4.2-3.6c1-1,2.1-1.4,3.5-1.5c2.1-0.1,4.1,0.3,6,1.2c2.4,1.2,4.4,2.8,6.1,4.8
	c2,2.3,3.5,5,4.7,7.8c1,2.4,1.2,4.7,0.6,7.3c-1.5,6.6-2,13.3-0.8,20.5c1,0.1,1.8,0.4,2.4,0.3c7-1.8,13.9-3.6,20.8-5.5
	c3.2-0.8,6.3-1.8,9.4-2.8c0.7,1,0.3,1.9,0.1,2.8c-0.6,4.4-0.3,8.7,1.1,12.9c1.6,5,4.5,9.2,8.5,12.5c0.8,0.7,1.7,1.4,2.7,2.2
	c-0.6,0.6-1.1,1.1-1.7,1.6c-2.9,2.3-5.7,4.5-8.6,6.8c-1.9,1.7-3.8,3.4-5.6,5.2c0,0.1,0,0.1-0.1,0.2c0,0.2,0.1,0.5,0.2,0.7
	c0.2,0.2,0.6,0.2,0.9,0c0,0,0,0,0.1-0.1c0.5-0.4,0.9-0.8,1.4-1.2c1.7-1.6,3.5-3,5.3-4.5c0.8-0.7,1.6-1.3,2.3-2c0.1,0,0.1,0,0.2,0
	c2.5-1.9,5-3.8,7.6-5.7c0.3-0.2,0.6-0.3,1-0.5c0.9,2.7,1.4,5.5,2.9,7.9c1.6,2.4,3.7,4.2,6.1,5.8c-0.6,1.3-1.6,1.9-2.6,2.6
	c-3.1,2.4-6.3,4.6-9.5,7l-0.9,0.6c-0.2,0.2-0.4,0.3-0.5,0.5c-0.2,0.3-0.1,0.8,0.1,1s0.5,0.2,0.8,0.1c0.1,0,0.1-0.1,0.2-0.1
	s0.1-0.1,0.2-0.1c1.8-1.3,3.6-2.5,5.5-3.8l0,0c2-1.4,4-2.9,5.9-4.3c0.2,0.1,0.5,0.1,0.6,0.2c2.3,4.3,1.7,3.7,6.2,8.1
	c-0.6,0.8-1.2,1.7-1.9,2.5c-0.7,0.8-1.5,1.6-2.2,2.5l0,0c0,0.2-0.1,0.3-0.1,0.3c-1,0.9-2.7,2.7-3.4,5.5c-0.2,0.8-0.3,1.6-0.3,2.3
	c0,0.1,0,0.1,0.1,0.1c0.1,0.2,0.4,0.5,0.7,0.5c0.1,0,0.2-0.1,0.2-0.1c0.2-0.2,0.4-0.5,0.4-0.8c0-0.1,0-0.1,0-0.2c0-0.1,0-0.3,0-0.4
	c0.1-0.7,0.3-1.9,1-3.1c0.4-0.8,0.9-1.3,1.3-1.7l0,0c0.7-0.8,1.5-1.6,2.4-2.3c1.4,2.2,2.8,4.3,4.2,6.4c0-0.1,0,0.1,0,0.1
	C463.5,625.4,459.7,628.2,455.3,629.9z M591.8,672.4c-8.3,2.1-16.8,3.7-25.3,5.1c-11.7,1.9-23.5,3.2-35.3,4.4
	c-8.2,0.8-16.5,1.4-24.7,2.2c-13.3,1.3-26.7,2.4-40,4.3c-1.6,0.2-3.2,0.4-4.8,0.5c-0.2-0.3-0.4-0.5-0.3-0.7
	c0.4-20,0.9-40.1,1.3-60.2c0.7-0.5,1.3-1.1,2-1.6c2.6-1.8,5.2-3.6,7.8-5.4c1.4-1,2.8-2.1,4.1-3.2c4.8-4.2,4.5-4.3,5.1-9.3
	c0.4-2.6,0.6-5.2,0.8-7.8c0.1-2.5,0-5-1.3-7.4c1.3-1.6,1.3-3.6,1.5-5.6c0.6-6.4,1.2-12.8,1-19.2c0-1.8-0.3-3.7-0.4-5.8
	c1.2-1.7,1-3.7,0.5-5.9c-1.5-6.6-2.8-13.2-4.3-19.8c-0.3-1.4-0.4-2.8,0-4.2c0.5-2.1,0.3-4.1-0.5-6.1c-2.4-5.8-4.8-11.7-7.2-17.5
	c-0.9-2.2-2.1-4.3-4.4-5.6c0.2-2.4,0.4-4.6,0.7-6.9c0.5-4.5,1-9.1,1.3-13.7c0.1-1.7,0.8-2.8,2.2-3.7c27.2-17,55-32.7,84.6-45.4
	c11-4.7,22.2-8.9,33.7-12.5c2.1-0.7,4-0.7,6,0.1c3.9,1.4,7.7,3,11.5,5c-0.9,3.2-2.5,5.9-3.6,8.8c-1.1,3-2.4,5.8-3.5,8.8
	c-1.1,2.9-2.2,5.9-3.3,8.9c-1.1,3.1-2.1,6.2-3.1,9.3c-1,3-1.9,6-2.8,9c-0.9,3-1.8,6.1-2.6,9.1s-1.5,6.1-2.3,9.2
	c-0.7,3.1-1.5,6.1-2.1,9.2c-0.7,3.1-1.2,6.2-1.8,9.3s-1.1,6.2-1.6,9.3c-0.5,3.2-1,6.5-1.3,9.7c-0.4,3.1-0.7,6.3-1,9.4
	c-0.3,3.2-0.5,6.3-0.8,9.5c-0.2,3.2-0.4,6.3-0.5,9.5c-0.2,0.1-0.4,0.2-0.6,0.3c-0.2-0.3-0.3-0.5-0.5-0.8c-3.3-6.5-6.5-13-9.8-19.6
	c-0.7-1.5-1.3-3-2-4.5c-1.4-3.2-1.7-6.5-1.2-9.9c0.9-5.7,1.8-11.4,2.7-17.1c0.8-5.2,1.7-10.3,1.8-15.6c0-1.5-0.1-3-0.3-4.6
	c0-0.3-0.5-0.4-1.1-0.8c-0.1,0.8-0.3,1.4-0.3,1.9c0.3,5.6-0.7,11.1-1.5,16.6c-0.8,5.6-1.8,11.2-2.7,16.8c-0.1,0.6-0.2,1.3-0.3,1.9
	c-0.7,5,0,9.7,2.4,14.3c2.5,4.8,4.9,9.7,7.3,14.6c0.7,1.5,1.4,3,2.2,4.4c2.3,4.3,3.7,8.7,4.3,13.6c1.4,10.6,3,21.1,4.7,31.7
	c3.8,23.5,7.6,47.1,13.5,70.2c0.1,0.5,0.2,1.1,0.3,1.8C594.9,671.5,593.4,672,591.8,672.4z M697.9,685.8c-6.4-2.1-13-2.7-19.7-2
	c-5.1,0.5-10.2,1.2-15.2,1.7s-9.9,1.3-14.9,1.6c-12.4,0.8-24.8,0.9-37.2,0.4c-2.3-0.1-4.6-0.1-7.1-0.2c-1.7-3.3-2.7-6.5-3.7-9.7
	c-2.6-8.3-4.5-16.8-6.4-25.3c-0.3-1.3,0-2.3,1-3.2c2.9-3,6-5.7,9.3-8.2c6.8-5.2,14-9.6,21.5-13.6c15.5-8.4,31.7-15.3,48.2-21.7
	c0.6-0.2,1.2-0.4,1.9-0.6c0.2,0.5,0.4,0.9,0.5,1.3c3.5,11,7.1,22,10.5,32.9c4.6,14.4,8.7,29,12.4,43.6c0.2,0.9,0.4,1.9,0.6,2.7
	C699,686.3,698.4,686,697.9,685.8z"/>
</svg>
