<?xml version="1.0" encoding="UTF-8" standalone="no"?>
<!DOCTYPE svg PUBLIC "-//W3C//DTD SVG 1.1//EN"
 "http://www.w3.org/Graphics/SVG/1.1/DTD/svg11.dtd">
<!-- Generated by graphviz version 2.46.0 (20210119.1425)
 -->
<!-- Title: dependencies Pages: 1 -->
<svg width="977pt" height="284pt"
 viewBox="0.00 0.00 977.00 284.00" xmlns="http://www.w3.org/2000/svg" xmlns:xlink="http://www.w3.org/1999/xlink">
<g id="graph0" class="graph" transform="scale(1 1) rotate(0) translate(4 280)">
<title>dependencies</title>
<polygon fill="white" stroke="transparent" points="-4,4 -4,-280 973,-280 973,4 -4,4"/>
<text text-anchor="start" x="463.51" y="-42.4" font-family="sans-serif" font-weight="bold" font-size="14.00">Legend</text>
<polygon fill="#ffffb3" stroke="transparent" points="250.5,-10 250.5,-30 270.5,-30 270.5,-10 250.5,-10"/>
<text text-anchor="start" x="274.13" y="-15.4" font-family="sans-serif" font-size="14.00"> &#160;Declarations</text>
<polygon fill="#8dd3c7" stroke="transparent" points="363.5,-10 363.5,-30 383.5,-30 383.5,-10 363.5,-10"/>
<text text-anchor="start" x="387.23" y="-15.4" font-family="sans-serif" font-size="14.00"> &#160;Module</text>
<polygon fill="#80b1d3" stroke="transparent" points="449.5,-10 449.5,-30 469.5,-30 469.5,-10 449.5,-10"/>
<text text-anchor="start" x="473.28" y="-15.4" font-family="sans-serif" font-size="14.00"> &#160;Bootstrap</text>
<polygon fill="#fdb462" stroke="transparent" points="546.5,-10 546.5,-30 566.5,-30 566.5,-10 546.5,-10"/>
<text text-anchor="start" x="570.17" y="-15.4" font-family="sans-serif" font-size="14.00"> &#160;Providers</text>
<polygon fill="#fb8072" stroke="transparent" points="642.5,-10 642.5,-30 662.5,-30 662.5,-10 642.5,-10"/>
<text text-anchor="start" x="666.23" y="-15.4" font-family="sans-serif" font-size="14.00"> &#160;Exports</text>
<g id="clust1" class="cluster">
<title>cluster_AppModule</title>
<polygon fill="none" stroke="black" stroke-dasharray="1,5" points="8,-70 8,-268 961,-268 961,-70 8,-70"/>
</g>
<g id="clust2" class="cluster">
<title>cluster_AppModule_declarations</title>
<polygon fill="none" stroke="black" points="491,-78 491,-130 953,-130 953,-78 491,-78"/>
</g>
<g id="clust9" class="cluster">
<title>cluster_AppModule_providers</title>
<polygon fill="none" stroke="black" points="293,-78 293,-130 483,-130 483,-78 293,-78"/>
</g>
<g id="clust6" class="cluster">
<title>cluster_AppModule_imports</title>
<polygon fill="none" stroke="black" points="16,-78 16,-130 285,-130 285,-78 16,-78"/>
</g>
<g id="clust8" class="cluster">
<title>cluster_AppModule_bootstrap</title>
<polygon fill="none" stroke="black" points="419,-208 419,-260 543,-260 543,-208 419,-208"/>
</g>
<!-- AppComponent -->
<g id="node1" class="node">
<title>AppComponent</title>
<polygon fill="#ffffb3" stroke="black" points="944.94,-122 839.06,-122 839.06,-86 944.94,-86 944.94,-122"/>
<text text-anchor="middle" x="892" y="-99.8" font-family="Times,serif" font-size="14.00">AppComponent</text>
</g>
<!-- AppModule -->
<g id="node4" class="node">
<title>AppModule</title>
<polygon fill="#8dd3c7" stroke="black" points="522.66,-187 519.66,-191 498.66,-191 495.66,-187 439.34,-187 439.34,-151 522.66,-151 522.66,-187"/>
<text text-anchor="middle" x="481" y="-164.8" font-family="Times,serif" font-size="14.00">AppModule</text>
</g>
<!-- AppComponent&#45;&gt;AppModule -->
<g id="edge1" class="edge">
<title>AppComponent&#45;&gt;AppModule</title>
<path fill="none" stroke="black" d="M892,-122.28C892,-143.32 892,-175 892,-175 892,-175 532.67,-175 532.67,-175"/>
<polygon fill="black" stroke="black" points="532.67,-171.5 522.67,-175 532.67,-178.5 532.67,-171.5"/>
</g>
<!-- WeatherAppComponent -->
<g id="node2" class="node">
<title>WeatherAppComponent</title>
<polygon fill="#ffffb3" stroke="black" points="821.35,-122 668.65,-122 668.65,-86 821.35,-86 821.35,-122"/>
<text text-anchor="middle" x="745" y="-99.8" font-family="Times,serif" font-size="14.00">WeatherAppComponent</text>
</g>
<!-- WeatherAppComponent&#45;&gt;AppModule -->
<g id="edge2" class="edge">
<title>WeatherAppComponent&#45;&gt;AppModule</title>
<path fill="none" stroke="black" d="M745,-122.02C745,-139.37 745,-163 745,-163 745,-163 532.83,-163 532.83,-163"/>
<polygon fill="black" stroke="black" points="532.83,-159.5 522.83,-163 532.83,-166.5 532.83,-159.5"/>
</g>
<!-- WeatherInfoComponent -->
<g id="node3" class="node">
<title>WeatherInfoComponent</title>
<polygon fill="#ffffb3" stroke="black" points="651.06,-122 498.94,-122 498.94,-86 651.06,-86 651.06,-122"/>
<text text-anchor="middle" x="575" y="-99.8" font-family="Times,serif" font-size="14.00">WeatherInfoComponent</text>
</g>
<!-- WeatherInfoComponent&#45;&gt;AppModule -->
<g id="edge3" class="edge">
<title>WeatherInfoComponent&#45;&gt;AppModule</title>
<path fill="none" stroke="black" d="M510.9,-122.11C510.9,-122.11 510.9,-140.99 510.9,-140.99"/>
<polygon fill="black" stroke="black" points="507.4,-140.99 510.9,-150.99 514.4,-140.99 507.4,-140.99"/>
</g>
<!-- AppComponent  -->
<g id="node7" class="node">
<title>AppComponent </title>
<polygon fill="#80b1d3" stroke="black" points="535.44,-252 426.56,-252 426.56,-216 535.44,-216 535.44,-252"/>
<text text-anchor="middle" x="481" y="-229.8" font-family="Times,serif" font-size="14.00">AppComponent </text>
</g>
<!-- AppModule&#45;&gt;AppComponent  -->
<g id="edge6" class="edge">
<title>AppModule&#45;&gt;AppComponent </title>
<path fill="none" stroke="black" stroke-dasharray="1,5" d="M481,-187.11C481,-187.11 481,-205.99 481,-205.99"/>
<polygon fill="black" stroke="black" points="477.5,-205.99 481,-215.99 484.5,-205.99 477.5,-205.99"/>
</g>
<!-- AppRoutingModule -->
<g id="node5" class="node">
<title>AppRoutingModule</title>
<polygon fill="#8dd3c7" stroke="black" points="277.27,-122 274.27,-126 253.27,-126 250.27,-122 148.73,-122 148.73,-86 277.27,-86 277.27,-122"/>
<text text-anchor="middle" x="213" y="-99.8" font-family="Times,serif" font-size="14.00">AppRoutingModule</text>
</g>
<!-- AppRoutingModule&#45;&gt;AppModule -->
<g id="edge4" class="edge">
<title>AppRoutingModule&#45;&gt;AppModule</title>
<path fill="none" stroke="black" d="M213,-122.02C213,-139.37 213,-163 213,-163 213,-163 429.12,-163 429.12,-163"/>
<polygon fill="black" stroke="black" points="429.13,-166.5 439.12,-163 429.12,-159.5 429.13,-166.5"/>
</g>
<!-- MaterialModule -->
<g id="node6" class="node">
<title>MaterialModule</title>
<polygon fill="#8dd3c7" stroke="black" points="130.47,-122 127.47,-126 106.47,-126 103.47,-122 23.53,-122 23.53,-86 130.47,-86 130.47,-122"/>
<text text-anchor="middle" x="77" y="-99.8" font-family="Times,serif" font-size="14.00">MaterialModule</text>
</g>
<!-- MaterialModule&#45;&gt;AppModule -->
<g id="edge5" class="edge">
<title>MaterialModule&#45;&gt;AppModule</title>
<path fill="none" stroke="black" d="M77,-122.28C77,-143.32 77,-175 77,-175 77,-175 429.29,-175 429.29,-175"/>
<polygon fill="black" stroke="black" points="429.29,-178.5 439.29,-175 429.29,-171.5 429.29,-178.5"/>
</g>
<!-- WeatherApiService -->
<g id="node8" class="node">
<title>WeatherApiService</title>
<ellipse fill="#fdb462" stroke="black" cx="388" cy="-104" rx="87.36" ry="18"/>
<text text-anchor="middle" x="388" y="-99.8" font-family="Times,serif" font-size="14.00">WeatherApiService</text>
</g>
<!-- WeatherApiService&#45;&gt;AppModule -->
<g id="edge7" class="edge">
<title>WeatherApiService&#45;&gt;AppModule</title>
<path fill="none" stroke="black" d="M457.17,-115.03C457.17,-115.03 457.17,-140.78 457.17,-140.78"/>
<polygon fill="black" stroke="black" points="453.67,-140.78 457.17,-150.78 460.67,-140.78 453.67,-140.78"/>
</g>
</g>
</svg>
