<?xml version="1.0" encoding="UTF-8" standalone="no"?>
<!DOCTYPE svg PUBLIC "-//W3C//DTD SVG 1.1//EN"
 "http://www.w3.org/Graphics/SVG/1.1/DTD/svg11.dtd">
<!-- Generated by graphviz version 2.46.0 (20210119.1425)
 -->
<!-- Title: dependencies Pages: 1 -->
<svg width="977pt" height="284pt"
 viewBox="0.00 0.00 977.00 284.00" xmlns="http://www.w3.org/2000/svg" xmlns:xlink="http://www.w3.org/1999/xlink">
<g id="graph0" class="graph" transform="scale(1 1) rotate(0) translate(4 280)">
<title>dependencies</title>
<polygon fill="white" stroke="transparent" points="-4,4 -4,-280 973,-280 973,4 -4,4"/>
<text text-anchor="start" x="463.51" y="-42.4" font-family="sans-serif" font-weight="bold" font-size="14.00">Legend</text>
<polygon fill="#ffffb3" stroke="transparent" points="250.5,-10 250.5,-30 270.5,-30 270.5,-10 250.5,-10"/>
<text text-anchor="start" x="274.13" y="-15.4" font-family="sans-serif" font-size="14.00"> &#160;Declarations</text>
<polygon fill="#8dd3c7" stroke="transparent" points="363.5,-10 363.5,-30 383.5,-30 383.5,-10 363.5,-10"/>
<text text-anchor="start" x="387.23" y="-15.4" font-family="sans-serif" font-size="14.00"> &#160;Module</text>
<polygon fill="#80b1d3" stroke="transparent" points="449.5,-10 449.5,-30 469.5,-30 469.5,-10 449.5,-10"/>
<text text-anchor="start" x="473.28" y="-15.4" font-family="sans-serif" font-size="14.00"> &#160;Bootstrap</text>
<polygon fill="#fdb462" stroke="transparent" points="546.5,-10 546.5,-30 566.5,-30 566.5,-10 546.5,-10"/>
<text text-anchor="start" x="570.17" y="-15.4" font-family="sans-serif" font-size="14.00"> &#160;Providers</text>
<polygon fill="#fb8072" stroke="transparent" points="642.5,-10 642.5,-30 662.5,-30 662.5,-10 642.5,-10"/>
<text text-anchor="start" x="666.23" y="-15.4" font-family="sans-serif" font-size="14.00"> &#160;Exports</text>
<g id="clust1" class="cluster">
<title>cluster_AppModule</title>
<polygon fill="none" stroke="black" stroke-dasharray="1,5" points="8,-70 8,-268 961,-268 961,-70 8,-70"/>
</g>
<g id="clust2" class="cluster">
<title>cluster_AppModule_declarations</title>
<polygon fill="none" stroke="black" points="491,-78 491,-130 953,-130 953,-78 491,-78"/>
</g>
<g id="clust6" class="cluster">
<title>cluster_AppModule_imports</title>
<polygon fill="none" stroke="black" points="214,-78 214,-130 483,-130 483,-78 214,-78"/>
</g>
<g id="clust8" class="cluster">
<title>cluster_AppModule_bootstrap</title>
<polygon fill="none" stroke="black" points="431,-208 431,-260 555,-260 555,-208 431,-208"/>
</g>
<g id="clust9" class="cluster">
<title>cluster_AppModule_providers</title>
<polygon fill="none" stroke="black" points="16,-78 16,-130 206,-130 206,-78 16,-78"/>
</g>
<!-- AppComponent -->
<g id="node1" class="node">
<title>AppComponent</title>
<polygon fill="#ffffb3" stroke="black" points="944.94,-122 839.06,-122 839.06,-86 944.94,-86 944.94,-122"/>
<text text-anchor="middle" x="892" y="-99.8" font-family="Times,serif" font-size="14.00">AppComponent</text>
</g>
<!-- AppModule -->
<g id="node4" class="node">
<title>AppModule</title>
<polygon fill="#8dd3c7" stroke="black" points="534.66,-187 531.66,-191 510.66,-191 507.66,-187 451.34,-187 451.34,-151 534.66,-151 534.66,-187"/>
<text text-anchor="middle" x="493" y="-164.8" font-family="Times,serif" font-size="14.00">AppModule</text>
</g>
<!-- AppComponent&#45;&gt;AppModule -->
<g id="edge1" class="edge">
<title>AppComponent&#45;&gt;AppModule</title>
<path fill="none" stroke="black" d="M892,-122.28C892,-143.32 892,-175 892,-175 892,-175 544.95,-175 544.95,-175"/>
<polygon fill="black" stroke="black" points="544.95,-171.5 534.95,-175 544.95,-178.5 544.95,-171.5"/>
</g>
<!-- WeatherAppComponent -->
<g id="node2" class="node">
<title>WeatherAppComponent</title>
<polygon fill="#ffffb3" stroke="black" points="821.35,-122 668.65,-122 668.65,-86 821.35,-86 821.35,-122"/>
<text text-anchor="middle" x="745" y="-99.8" font-family="Times,serif" font-size="14.00">WeatherAppComponent</text>
</g>
<!-- WeatherAppComponent&#45;&gt;AppModule -->
<g id="edge2" class="edge">
<title>WeatherAppComponent&#45;&gt;AppModule</title>
<path fill="none" stroke="black" d="M745,-122.02C745,-139.37 745,-163 745,-163 745,-163 544.9,-163 544.9,-163"/>
<polygon fill="black" stroke="black" points="544.9,-159.5 534.9,-163 544.9,-166.5 544.9,-159.5"/>
</g>
<!-- WeatherInfoComponent -->
<g id="node3" class="node">
<title>WeatherInfoComponent</title>
<polygon fill="#ffffb3" stroke="black" points="651.06,-122 498.94,-122 498.94,-86 651.06,-86 651.06,-122"/>
<text text-anchor="middle" x="575" y="-99.8" font-family="Times,serif" font-size="14.00">WeatherInfoComponent</text>
</g>
<!-- WeatherInfoComponent&#45;&gt;AppModule -->
<g id="edge3" class="edge">
<title>WeatherInfoComponent&#45;&gt;AppModule</title>
<path fill="none" stroke="black" d="M516.9,-122.11C516.9,-122.11 516.9,-140.99 516.9,-140.99"/>
<polygon fill="black" stroke="black" points="513.4,-140.99 516.9,-150.99 520.4,-140.99 513.4,-140.99"/>
</g>
<!-- AppComponent  -->
<g id="node7" class="node">
<title>AppComponent </title>
<polygon fill="#80b1d3" stroke="black" points="547.44,-252 438.56,-252 438.56,-216 547.44,-216 547.44,-252"/>
<text text-anchor="middle" x="493" y="-229.8" font-family="Times,serif" font-size="14.00">AppComponent </text>
</g>
<!-- AppModule&#45;&gt;AppComponent  -->
<g id="edge6" class="edge">
<title>AppModule&#45;&gt;AppComponent </title>
<path fill="none" stroke="black" stroke-dasharray="1,5" d="M493,-187.11C493,-187.11 493,-205.99 493,-205.99"/>
<polygon fill="black" stroke="black" points="489.5,-205.99 493,-215.99 496.5,-205.99 489.5,-205.99"/>
</g>
<!-- AppRoutingModule -->
<g id="node5" class="node">
<title>AppRoutingModule</title>
<polygon fill="#8dd3c7" stroke="black" points="475.27,-122 472.27,-126 451.27,-126 448.27,-122 346.73,-122 346.73,-86 475.27,-86 475.27,-122"/>
<text text-anchor="middle" x="411" y="-99.8" font-family="Times,serif" font-size="14.00">AppRoutingModule</text>
</g>
<!-- AppRoutingModule&#45;&gt;AppModule -->
<g id="edge4" class="edge">
<title>AppRoutingModule&#45;&gt;AppModule</title>
<path fill="none" stroke="black" d="M463.28,-122.11C463.28,-122.11 463.28,-140.99 463.28,-140.99"/>
<polygon fill="black" stroke="black" points="459.78,-140.99 463.28,-150.99 466.78,-140.99 459.78,-140.99"/>
</g>
<!-- MaterialModule -->
<g id="node6" class="node">
<title>MaterialModule</title>
<polygon fill="#8dd3c7" stroke="black" points="328.47,-122 325.47,-126 304.47,-126 301.47,-122 221.53,-122 221.53,-86 328.47,-86 328.47,-122"/>
<text text-anchor="middle" x="275" y="-99.8" font-family="Times,serif" font-size="14.00">MaterialModule</text>
</g>
<!-- MaterialModule&#45;&gt;AppModule -->
<g id="edge5" class="edge">
<title>MaterialModule&#45;&gt;AppModule</title>
<path fill="none" stroke="black" d="M275,-122.02C275,-139.37 275,-163 275,-163 275,-163 441.23,-163 441.23,-163"/>
<polygon fill="black" stroke="black" points="441.23,-166.5 451.23,-163 441.23,-159.5 441.23,-166.5"/>
</g>
<!-- WeatherApiService -->
<g id="node8" class="node">
<title>WeatherApiService</title>
<ellipse fill="#fdb462" stroke="black" cx="111" cy="-104" rx="87.36" ry="18"/>
<text text-anchor="middle" x="111" y="-99.8" font-family="Times,serif" font-size="14.00">WeatherApiService</text>
</g>
<!-- WeatherApiService&#45;&gt;AppModule -->
<g id="edge7" class="edge">
<title>WeatherApiService&#45;&gt;AppModule</title>
<path fill="none" stroke="black" d="M111,-122.28C111,-143.32 111,-175 111,-175 111,-175 441.03,-175 441.03,-175"/>
<polygon fill="black" stroke="black" points="441.03,-178.5 451.03,-175 441.03,-171.5 441.03,-178.5"/>
</g>
</g>
</svg>
