<?xml version="1.0" standalone="no"?>
<!DOCTYPE svg PUBLIC "-//W3C//DTD SVG 20010904//EN"
 "http://www.w3.org/TR/2001/REC-SVG-20010904/DTD/svg10.dtd">
<svg version="1.0" xmlns="http://www.w3.org/2000/svg"
 width="64.000000pt" height="64.000000pt" viewBox="0 0 64.000000 64.000000"
 preserveAspectRatio="xMidYMid meet">

<g transform="translate(0.000000,64.000000) scale(0.100000,-0.100000)"
fill="#000000" stroke="none">
<path d="M110 415 c-6 -8 -10 -22 -8 -32 3 -17 19 -18 218 -18 199 0 215 1
218 18 8 43 -9 47 -218 47 -160 0 -200 -3 -210 -15z"/>
<path d="M107 274 c-14 -14 -7 -43 12 -54 12 -6 96 -10 203 -10 195 0 224 6
216 46 -3 18 -15 19 -214 22 -116 1 -213 -1 -217 -4z"/>
</g>
</svg>
