<?xml version="1.0" standalone="no"?>
<!DOCTYPE svg PUBLIC "-//W3C//DTD SVG 20010904//EN"
 "http://www.w3.org/TR/2001/REC-SVG-20010904/DTD/svg10.dtd">
<svg version="1.0" xmlns="http://www.w3.org/2000/svg"
 width="512.000000pt" height="512.000000pt" viewBox="0 0 512.000000 512.000000"
 preserveAspectRatio="xMidYMid meet">

<g transform="translate(0.000000,512.000000) scale(0.100000,-0.100000)"
fill="#000000" stroke="none">
<path d="M2315 5109 c-884 -91 -1661 -631 -2049 -1423 -93 -188 -137 -308
-186 -500 -61 -240 -74 -355 -74 -626 0 -271 13 -386 74 -626 49 -192 93 -312
185 -500 248 -505 663 -920 1170 -1169 248 -122 496 -199 770 -241 169 -26
541 -26 710 0 562 85 1054 333 1450 731 439 440 689 974 746 1595 14 158 7
413 -16 570 -106 718 -510 1358 -1115 1765 -322 216 -665 349 -1060 410 -126
19 -477 28 -605 14z m420 -509 c316 -30 599 -121 863 -278 528 -314 880 -831
984 -1442 30 -177 30 -463 0 -640 -150 -883 -820 -1552 -1702 -1702 -166 -28
-454 -30 -615 -5 -448 72 -836 269 -1150 582 -657 656 -791 1663 -328 2464
160 276 415 545 670 704 393 247 841 358 1278 317z"/>
<path d="M2470 4083 c-199 -16 -409 -93 -557 -204 -69 -52 -174 -175 -229
-269 -84 -143 -144 -340 -144 -477 l0 -63 255 0 255 0 0 33 c0 82 53 216 116
294 45 55 166 135 245 162 287 99 587 -64 655 -355 11 -47 15 -101 12 -170 -3
-93 -6 -107 -41 -176 -42 -87 -119 -164 -213 -218 -169 -95 -316 -242 -412
-410 -41 -73 -90 -221 -97 -296 -3 -32 -8 -71 -10 -86 l-4 -28 259 0 260 0 0
33 c0 44 31 133 64 185 47 75 90 115 206 190 235 152 379 347 452 609 19 67
22 104 22 263 0 159 -4 196 -22 264 -89 324 -372 602 -697 685 -72 18 -276 44
-315 39 -8 -1 -35 -3 -60 -5z"/>
<path d="M2305 1527 c-3 -7 -4 -123 -3 -257 l3 -245 255 0 255 0 0 255 0 255
-253 3 c-198 2 -254 0 -257 -11z"/>
</g>
</svg>
