<?xml version="1.0" standalone="no"?>
<!DOCTYPE svg PUBLIC "-//W3C//DTD SVG 20010904//EN"
 "http://www.w3.org/TR/2001/REC-SVG-20010904/DTD/svg10.dtd">
<svg version="1.0" xmlns="http://www.w3.org/2000/svg"
 width="512.000000pt" height="512.000000pt" viewBox="0 0 512.000000 512.000000"
 preserveAspectRatio="xMidYMid meet">

<g transform="translate(0.000000,512.000000) scale(0.100000,-0.100000)"
fill="#000000" stroke="none">
<path d="M840 4715 c-229 -64 -337 -308 -233 -522 15 -30 48 -74 73 -96 31
-28 509 -297 1393 -787 741 -409 1347 -747 1347 -750 0 -3 -172 -101 -382
-218 -211 -116 -817 -452 -1348 -745 -1041 -577 -1036 -573 -1088 -684 -23
-50 -27 -71 -27 -153 0 -107 18 -160 80 -235 73 -90 203 -143 316 -130 79 9
108 24 765 388 313 173 1037 574 1609 889 938 518 1046 580 1101 634 78 75
107 145 107 254 0 109 -29 179 -107 254 -56 54 -203 138 -1671 949 -885 489
-1641 904 -1680 923 -86 41 -174 51 -255 29z"/>
</g>
</svg>
