<?xml version="1.0" standalone="no"?>
<!DOCTYPE svg PUBLIC "-//W3C//DTD SVG 20010904//EN"
 "http://www.w3.org/TR/2001/REC-SVG-20010904/DTD/svg10.dtd">
<svg version="1.0" xmlns="http://www.w3.org/2000/svg"
 width="48.000000pt" height="48.000000pt" viewBox="0 0 48.000000 48.000000"
 preserveAspectRatio="xMidYMid meet">

<g transform="translate(0.000000,48.000000) scale(0.100000,-0.100000)"
fill="#000000" stroke="none">
<path d="M188 431 c-126 -41 -182 -179 -116 -291 74 -128 265 -127 338 2 51
91 21 213 -66 264 -46 27 -115 38 -156 25z m82 -166 c26 -32 -13 -81 -47 -59
-23 14 -28 41 -13 59 16 19 44 19 60 0z m-74 -60 c13 -14 32 -25 44 -25 12 0
31 11 44 25 20 21 32 25 80 25 32 0 56 -4 56 -10 0 -19 -30 -84 -48 -104 -25
-28 -92 -56 -137 -56 -74 0 -157 66 -171 138 l-6 32 57 0 c49 0 61 -4 81 -25z"/>
<path d="M224 249 c-10 -17 13 -36 27 -22 12 12 4 33 -11 33 -5 0 -12 -5 -16
-11z"/>
</g>
</svg>
