<?xml version="1.0" standalone="no"?>
<!DOCTYPE svg PUBLIC "-//W3C//DTD SVG 20010904//EN"
 "http://www.w3.org/TR/2001/REC-SVG-20010904/DTD/svg10.dtd">
<svg version="1.0" xmlns="http://www.w3.org/2000/svg"
 width="50.000000pt" height="50.000000pt" viewBox="0 0 50.000000 50.000000"
 preserveAspectRatio="xMidYMid meet">

<g transform="translate(0.000000,50.000000) scale(0.100000,-0.100000)"
fill="#000000" stroke="none">
<path d="M212 457 c-29 -31 -28 -61 4 -103 l26 -34 -89 0 c-81 0 -92 -2 -111
-23 -28 -30 -28 -68 1 -95 21 -19 35 -22 117 -22 l94 0 -32 -33 c-38 -39 -41
-75 -9 -105 44 -41 66 -31 171 78 125 131 125 127 0 259 -105 111 -131 122
-172 78z m98 -151 c0 -7 -7 -19 -15 -26 -8 -7 -15 -20 -15 -30 0 -10 7 -23 15
-30 15 -13 21 -40 8 -40 -4 0 -17 10 -30 22 -29 27 -29 65 -1 95 24 26 38 29
38 9z m57 -8 c13 -12 23 -33 23 -47 0 -24 -34 -71 -52 -71 -13 0 -9 27 7 40 8
7 15 20 15 30 0 10 -7 23 -15 30 -15 13 -21 40 -8 40 4 0 17 -10 30 -22z m-31
-39 c10 -17 -13 -36 -27 -22 -12 12 -4 33 11 33 5 0 12 -5 16 -11z"/>
</g>
</svg>
