<?xml version="1.0" standalone="no"?>
<!DOCTYPE svg PUBLIC "-//W3C//DTD SVG 20010904//EN"
 "http://www.w3.org/TR/2001/REC-SVG-20010904/DTD/svg10.dtd">
<svg version="1.0" xmlns="http://www.w3.org/2000/svg"
 width="50.000000pt" height="50.000000pt" viewBox="0 0 50.000000 50.000000"
 preserveAspectRatio="xMidYMid meet">

<g transform="translate(0.000000,50.000000) scale(0.100000,-0.100000)"
fill="#000000" stroke="none">
<path d="M60 452 c0 -5 7 -28 15 -53 12 -36 35 -62 118 -135 l102 -91 26 27
26 26 -88 99 c-65 73 -101 105 -132 117 -47 19 -67 22 -67 10z"/>
<path d="M373 443 c-27 -9 -54 -29 -74 -54 l-31 -39 27 -35 26 -36 41 33 c39
30 59 63 73 121 8 31 1 33 -62 10z"/>
<path d="M162 237 c-7 -8 -2 -20 18 -39 24 -24 30 -25 40 -13 10 12 10 18 0
31 -22 26 -47 35 -58 21z"/>
<path d="M64 219 c-10 -17 123 -146 136 -133 8 8 5 24 -11 56 -16 34 -33 51
-66 67 -51 25 -50 24 -59 10z"/>
<path d="M374 208 c-47 -23 -94 -102 -74 -122 7 -7 29 9 75 54 61 60 72 80 49
86 -5 2 -28 -7 -50 -18z"/>
<path d="M68 122 c-7 -10 -21 -21 -31 -25 -12 -5 -17 -15 -15 -29 4 -29 45
-37 55 -11 4 10 16 25 27 34 17 14 18 19 7 33 -17 21 -27 20 -43 -2z"/>
<path d="M389 124 c-11 -14 -10 -19 7 -33 11 -9 23 -24 27 -34 10 -26 51 -18
55 11 2 14 -3 24 -15 29 -10 4 -24 15 -31 25 -16 22 -26 23 -43 2z"/>
</g>
</svg>
